<svg id="Layer_5" data-name="Layer 5" xmlns="http://www.w3.org/2000/svg" viewBox="0 0 1424.15 1705.8"><path d="M566.18,1487.52a360.15,360.15,0,0,1,110.38-141.91,355.08,355.08,0,0,1,109-57.78c12.66-4.13,25.74-7,38.66-10.33,2.78-.71,5.23-1.65,6.17-4.46,4.47-13.48,9.25-27,9.9-41.29a57.76,57.76,0,0,0-6.19-29.38c-10.66-20.88-23.68-40.27-38-58.75-22.17-28.71-45-56.92-67.51-85.35-3.23-4.07-6.59-8.06-9.58-12.31-10.35-14.7-23-27.28-36.13-39.41-8.57-7.91-16.82-16.17-25.21-24.28-5.08-4.91-8.29-10.92-10.52-17.55-20.45-60.8-49.38-117.65-81.11-173.15-6.39-11.18-14.56-21.34-21.9-32-1.92-2.77-4.21-5.35-5.64-8.35-2.4-5,.9-9.2,6.42-8.31a14.54,14.54,0,0,1,5.47,2.06c6.85,4.4,14,8.45,20.28,13.61,18.12,14.95,36.48,30,49.12,50.12,19.1,30.39,36.61,61.69,47.29,96.28,2,6.32,4.14,12.56,5.93,18.92,2.65,9.37,8.32,15.9,17,20.38,14.11,7.3,28,15,41.93,22.65a81,81,0,0,1,11,7c17,13.36,34.05,26.75,50.87,40.39,13.53,11,24.18,24.67,35.16,38a61.88,61.88,0,0,0,7.51,7.32c1,.91,2.61,1.24,4.9,2.28-.12-2.52.16-4.19-.33-5.59A143,143,0,0,0,836,1043,461.9,461.9,0,0,0,798,975c-10.53-15.44-20.53-31.26-30.4-47.14C760.8,917,757,904.9,755,892.3c-1.42-8.88-2.54-17.82-3.64-26.75-.73-6-.16-11.84,2.81-17.21,4.21-7.61,11.62-8.39,17-1.62a49.21,49.21,0,0,1,5.32,9c3.3,6.68,6.29,13.51,9.57,20.2,12.86,26.19,31.24,47.81,53.76,66.3q30.79,25.29,60.44,52c21.2,19.06,39.29,40.74,50.2,67.48,12.94,31.73,21.3,64.6,23.16,98.94,1.86,34.61.25,69.15-2.25,103.67-.29,4,0,8.06,0,12.55a47.94,47.94,0,0,0,5.09,1.75,369.07,369.07,0,0,1,130,57.42c55.44,38.58,96.34,89.08,123.57,150.67a337.36,337.36,0,0,1,27.8,104.27c1.27,13.13,2.4,26.31,2.69,39.48.21,9.8-1,19.63-1.64,29.44-.15,2.59-1.51,4-4,4.79-37,12.22-74.32,23.15-112.62,30.64-29,5.67-58.15,10.35-87.55,13.15-20.55,2-41.18,3.1-61.8,4.29-15.14.87-30.32,1.69-45.49,1.72-16.71,0-33.43-.84-50.14-1.38-8.43-.27-16.88-.33-25.27-1.09-27.84-2.51-55.75-4.63-83.47-8.17-25.08-3.2-50-7.62-74.9-12.28a981.36,981.36,0,0,1-108.47-26.7c-18.8-5.81-37.42-12.18-56.11-18.32-1.6-.53-3.11-1.36-4.71-1.85-5.05-1.53-6.75-4.48-7.2-10.1-2-24.38,1.28-48.29,5.64-72.08A338,338,0,0,1,566.18,1487.52ZM700.4,1344.58c-8.49,6.48-17.25,12.65-25.44,19.49q-76,63.47-107.6,157.42a21.64,21.64,0,0,0-.59,4.5c.89.35,1.15.55,1.41.53a14.73,14.73,0,0,0,2.48-.29c6.26-1.47,11.35.68,15.64,5.11a39.93,39.93,0,0,1,3.7,4.59c2,2.71,4.36,3.33,7.35,1.81,3.38-1.72,6.74-3.5,10.19-5.08,14.54-6.67,29.75-.33,35.43,14.65a36.54,36.54,0,0,1,.79,24c-1.4,4.71-3.27,9.28-4.67,14-1.73,5.81-.71,8.12,4.46,11.19,2.05,1.22,4.15,2.36,6.2,3.6,7.47,4.53,11.79,11,10.93,19.9-.73,7.51-2.59,14.91-3.42,22.42a124.2,124.2,0,0,0-.65,18c.13,3.81,2.45,6.22,6.62,7,5.94,1.09,11.76,2.77,17.66,4.13,31.39,7.21,63,13.61,94.93,17.57,30.67,3.81,61.44,6.85,92.22,9.58,17.48,1.55,35.07,2.51,52.61,2.48q44.69-.08,89.35-1.88c18.51-.76,37-2.69,55.42-4.8,34.53-3.94,68.84-9.48,102.52-18.09,24.77-6.33,49.17-14.06,73.73-21.19,3.55-1,5.33-3.33,5.24-7.15-.37-15.31.06-30.68-1.14-45.92a333.81,333.81,0,0,0-20.47-91.46q-29.21-77.73-90-134.41c-4.63-4.3-9.4-8.46-14.26-12.5-6.15-5.12-12.43-10.08-18.72-15a13.88,13.88,0,0,0-3.24-1.46c-.74.6-1.32.86-1.57,1.3-4.11,7.43-11.12,9.74-18.85,11.16-10.17,1.87-20.2,0-30.26-.71-10.22-.72-20.38-2.17-30.58-3.24-4.35-.45-7.48,1.36-9.86,5.08-3.27,5.09-7.62,9.41-13.53,10.87a90.47,90.47,0,0,1-19.94,2.83c-11.21.19-22.45-.66-33.67-.92-10.23-.23-17.27,6.87-17.4,17.11a20.62,20.62,0,0,0,6.62,15.87,40.41,40.41,0,0,0,10.61,7.48c10.87,4.92,21.84,9.72,33.07,13.71,9.79,3.48,20,5.87,30.56,5.51,7.11-.25,9.33-1.87,11.88-8.55,2-5.34,4.2-10.83,10.66-12,6.91-1.22,11.76,2.91,15.12,8.07,4.28,6.55,8.59,13.36,11.16,20.67,4.4,12.57,7.69,25.55,11,38.47,2.45,9.52,7.82,16.24,16.56,20.62a120.64,120.64,0,0,1,13.47,7.85c8.08,5.46,14,12.67,15.82,22.51a68.6,68.6,0,0,1,1.3,15.51c-.52,10.71,3.44,19.35,10.39,27.16,5.88,6.61,11.59,13.41,16.9,20.49,7.43,9.91,14.16,20.33,18.64,32,4.9,12.72.89,22.75-11.32,28.75a35.25,35.25,0,0,1-4.69,1.87c-13.13,4.25-26,3.27-38.81-1.59-20.94-8-37.64-20.54-46.84-41.68a98.79,98.79,0,0,0-6.08-11.57c-5-8.29-9.92-10.31-19.47-8.36-1.93.4-3.84.91-5.76,1.3a30.65,30.65,0,0,1-16.63-.8c-8.27-2.9-14.36-8.65-20.05-15-3.38-3.76-6.66-7.64-10.31-11.12-6.19-5.89-12.24-6.64-19.59-2.26a64.44,64.44,0,0,0-10.68,8.17c-5.88,5.43-11.37,11.29-17.18,16.81-9.13,8.68-19.11,16.19-30.76,21.19-16.82,7.21-32.68,6.54-46.59-6.56-20.89-19.65-31.57-44.13-33.09-72.57-.71-13.19-1.05-26.43-.65-39.62.6-19.55,9.69-34,27.94-42,3.72-1.63,7.67-2.74,11.5-4.13,3.4-1.23,6.63-2.91,7.74-6.61,3.55-11.81,10.5-21.68,17.42-31.62a29.09,29.09,0,0,0,3.62-7.56c1-3-.59-5.12-3.78-5a35.77,35.77,0,0,0-7.78,1.66c-4.87,1.37-9.61,3.34-14.55,4.25-11.78,2.18-18.87-5.38-16.31-17.05.51-2.32,1.33-4.58,2-6.87.32-1.08.72-2.14,1-3.24,1.18-5.51-.93-8.33-6.6-8.72a24.39,24.39,0,0,0-5.05.22c-15.48,2.34-27,18.1-24.58,33.56.52,3.33,1.13,6.65,1.64,10,1.92,12.39-1.78,22.9-11.31,31-6.29,5.33-9.08,11.75-9.14,19.9a42.61,42.61,0,0,1-5.77,21.77c-5.26,8.86-15.54,11.6-24.48,6.39-7-4.07-11.91-10.14-13.52-18-1.21-6-1-12.25-1.56-18.38s-.7-12.62-1.77-18.81c-1.56-9.06-5.19-17.45-9.59-25.55-6.9-12.7-11-26.3-10-40.84.84-11.46,2.86-22.83,4.29-34.24a61.47,61.47,0,0,0,0-6.38C719.09,1331.86,710.14,1338.31,700.4,1344.58Z" transform="translate(-151.48 -8.68)"/><path d="M971,1104.71a281,281,0,0,0-16.07-46.51,180.27,180.27,0,0,0-36-53.64,372.11,372.11,0,0,0-50.73-44.32c-13.13-9.4-12.62-6-8.19-23,6.59-25.26,18.26-48.21,33.23-69.66,19.38-27.78,39-55.38,56.22-84.63a113.11,113.11,0,0,0,13.36-33.11c2.85-13,4.95-26.24,7.56-39.34a50.38,50.38,0,0,1,3.41-11.65c3-6.25,9.33-7.37,14.76-3a22.27,22.27,0,0,1,8,14c3,18.29,7.09,36.64,3.94,55.26a266.45,266.45,0,0,1-8,32.29c-4.64,15.33-10.16,30.4-14.95,45.69a386.45,386.45,0,0,0-15.79,73.68c-.3,2.76.11,5.6.19,8.4l1.59.54c1.22-1.15,2.78-2.11,3.58-3.51,2.87-5,6-9.91,8.09-15.22,7.52-19,17.89-36.27,30.23-52.45,3.33-4.36,6.67-8.73,9.64-13.33,15.34-23.68,34.44-44,55.51-62.59,2.43-2.14,4.61-4.54,7-6.67,7-6.16,9.61-14,10.21-23.18,1.41-21.3,1.93-42.82,5.51-63.78,4.71-27.5,10.1-55.15,23.16-80.34,11.09-21.39,23.45-42,40.27-59.52,1.74-1.81,3.58-3.87,5.79-4.77a10.4,10.4,0,0,1,7.08-.23c2.64,1,2.64,4.07,2.14,6.67a19.38,19.38,0,0,1-1.34,4.43c-12,26-18,53.78-24.22,81.5a1063,1063,0,0,0-19.19,110.48,306.05,306.05,0,0,0-2.45,31.1c-.18,13.62-4.67,25.48-11.86,36.76s-14.15,22.66-20.71,34.29a283.24,283.24,0,0,0-12.7,25.67q-14.65,33.4-28.78,67c-15,35.63-29.29,71.48-40.72,108.53-11,35.68-18.32,72.2-27.84,108.19-.46,1.72-.88,3.44-1.32,5.16l-1.12.06c-.35-1.63-.81-3.25-1.05-4.9C976,1138.39,973.54,1121.72,971,1104.71Z" transform="translate(-151.48 -8.68)"/><path d="M991,374.15c-12.75-15.39-17.53-33.35-18.94-52.49-1.52-20.45.81-40.72,3.23-61,1.89-15.77,3.74-31.54,5.66-47.31a40,40,0,0,1,1.11-4.49,31.26,31.26,0,0,1,3.69,2c17.45,13.05,35,26,52.26,39.25,15.88,12.17,31,25.16,42.68,41.68,16.12,22.84,19.71,47.2,9.23,73.46-5.42,13.6-13.55,25.54-22,37.32a6.24,6.24,0,0,1-5,2c-16-2.16-32-4.85-46.81-11.87A75.74,75.74,0,0,1,991,374.15Zm49.58-59.53c.4-10.39.84-20.77,1.13-31.15a23.89,23.89,0,0,0-.89-4.94l-1.7-.1c-4.57,11.08-6.81,22.82-8.8,34.93-3.83-4.79-7.57-9.4-9.94-14.64-8-17.67-15.44-35.57-23.16-53.36a22.67,22.67,0,0,0-2.24-3.43l-1.32.62c1.28,4.22,2.24,8.56,3.89,12.62,4.35,10.67,9,21.21,13.51,31.83a38.12,38.12,0,0,1,1.4,4.86l-.85.6c-6.66-3.81-12.53-9.31-20.13-11.1-.33.49-.65,1-1,1.48,10,9.21,22.66,15.76,30.21,27.52,7.4,11.54,13.72,23.63,16.59,37.43-10.45-6.17-20.69-12.28-32.18-15.6l-1.07,1.54c19.5,15.61,41.26,29,52.79,52.44.25.51,1,.75,2.48,1.72-.26-2.15-.15-3.53-.62-4.67-1.91-4.68-3.77-9.4-6.06-13.9C1044.05,352.36,1038.72,334.7,1040.61,314.62Z" transform="translate(-151.48 -8.68)"/><path d="M702.8,529c-10.51,15.65-25.27,25.11-42.54,30.62-10.14,3.24-20.73,5.06-31.11,7.56-2.71.66-4.88.3-6.67-2.12-9.06-12.2-18.14-24.37-23.77-38.68-7.42-18.85-8.3-37.57-.06-56.56,5.71-13.13,14.09-24.27,23.78-34.52,15.23-16.1,32.86-29.44,50.12-43.19,8.58-6.83,17.06-13.78,25.61-20.64A46,46,0,0,1,702.1,369a33.44,33.44,0,0,1,1.41,4.4c3.29,21.39,6.7,42.78,9.73,64.21,2.79,19.81,4.51,39.7,1.22,59.65A88.37,88.37,0,0,1,702.8,529Zm-69.42,11c-.52,3.11-3,6-1,10.27a24.85,24.85,0,0,0,2.63-3.87c1.77-4.29,3.66-8.55,5-13,6.08-20.32,16.49-37.64,33.25-51.11,7-5.61,13.06-12.33,19.46-18.64a19,19,0,0,0,2.43-3.86l-.78-.94a14.93,14.93,0,0,0-3.7,1.14c-7.6,4.79-15.14,9.67-22.68,14.54-1.32.85-2.6,1.76-4.3,2.92a10.72,10.72,0,0,1-.34-2.35c1.21-7.34,2.69-14.53,5.57-21.53,6.48-15.72,12.35-31.69,18.4-47.58a23.53,23.53,0,0,0,.79-4.32l-1.34-.38c-2,3.94-4.39,7.75-6.07,11.84-4.32,10.54-8.32,21.2-12.52,31.79a38.48,38.48,0,0,1-2.41,4.34c-3.26-7.39-3.24-15.35-8.47-21.6-.29,13.68,4.33,27.18,1.38,40.77-2.9,13.33-6.65,26.41-14.28,38-2.11-5.9-3.33-11.8-5.37-17.42-2-5.44-3.11-11.4-7.65-15.79a9.61,9.61,0,0,0-.52,4.46c.78,5.71,1.76,11.39,2.5,17.11C635.29,509.64,636.88,524.47,633.38,540Z" transform="translate(-151.48 -8.68)"/><path d="M946.56,626.28c3.57,17.58.7,34.2-4.81,50.53-2.11,6.26-4.68,12.36-7,18.55-.92,2.47-2.43,3.95-5.21,4.17-15.43,1.2-30.86,2.32-46.22-.77C864,694.87,848,685.7,836.62,669a112.32,112.32,0,0,1-18-45.51c-3.7-22.16-6.1-44.54-9-66.83-1-7.8-1.89-15.63-2.75-23.45-.19-1.72,0-3.48,0-5.86a28.89,28.89,0,0,1,4.08,1c22.5,10,45.08,19.72,67.42,30,17.3,8,33.77,17.44,47.33,31.12C935.77,599.77,943.65,611.44,946.56,626.28Zm-41.83,32C893.25,642.82,888,625.14,886,606.19c-.73-6.8-2.8-13.47-4.39-20.17a23.06,23.06,0,0,0-2-4.2l-1.22.11a14.6,14.6,0,0,0-1,3.69c-.09,8.7,0,17.4,0,26.1v5.74a16.32,16.32,0,0,1-2.69-1.4,85.18,85.18,0,0,1-14.06-15c-9.93-14-20.34-27.6-30.6-41.34a27.69,27.69,0,0,0-3-3l-1.12.86c2.09,3.71,3.89,7.63,6.33,11.09,6.57,9.3,13.43,18.39,20.13,27.61a45.19,45.19,0,0,1,2.55,4.44c-.21.26-.43.51-.65.76-7.22-1.56-13.82-6.19-21.79-4.79,11.35,7.49,25.09,10.85,34.92,20.56,9.6,9.48,18.52,19.57,24.23,32.12-6-1.23-11.52-3.31-17.19-4.52s-11.26-3.58-17.43-1.64a182.42,182.42,0,0,0,16.75,8.45c5.84,2.77,11.75,5.45,17.37,8.63A128,128,0,0,1,907,670.65c4.91,3.84,9.2,8.47,13.76,12.75l1.35-1.09a39.51,39.51,0,0,0-2.87-5.19C914.59,671,909.79,664.92,904.73,658.31Z" transform="translate(-151.48 -8.68)"/><path d="M478.11,649.23c3.36,14.12,2.87,28,.56,41.78-1.09,6.51-2.64,12.94-3.93,19.41-.5,2.57-1.67,4.36-4.39,5-14.76,3.56-29.52,7.11-44.88,6.66-20.06-.59-37.52-7-51.72-21.81-12-12.58-20.28-27.39-25.72-43.56-7-20.75-12.72-41.92-18.94-62.93-2.32-7.81-4.5-15.66-6.69-23.51-.41-1.43-.58-2.92-1-5a18,18,0,0,1,4,0c26.2,7,52.47,13.71,78.54,21.11,15.87,4.5,31,11,44.49,20.77C463.06,617.74,473.82,631,478.11,649.23Zm-71.29,20.93c-5.67.17-11.45-1.42-17.18,1.23a170.89,170.89,0,0,0,17.74,5.71c6.2,1.81,12.46,3.5,18.52,5.74a129.84,129.84,0,0,1,17.32,7.63c5.48,3,10.47,6.91,15.67,10.41l1-1a16,16,0,0,0-2-3.34c-3.23-3.32-6.43-6.72-10-9.7-15.72-13.26-27.47-29-33.25-49.13-2.59-9-6.43-17.67-9.82-26.45-.54-1.38-1.73-2.5-2.62-3.75l-1.45.51c-.58,11.77,2.37,23.16,5.36,35.2a17.7,17.7,0,0,1-2.82-.93,93.35,93.35,0,0,1-17.52-13.68c-11.81-12-24.08-23.6-36.2-35.31a26.75,26.75,0,0,0-3.34-2.41l-1,1.06c2.57,3.24,4.87,6.72,7.74,9.65,8.16,8.34,16.57,16.43,24.84,24.66a44.28,44.28,0,0,1,3,3.67l-.56,1c-3.78-.7-7.54-1.62-11.35-2s-7.45-1.87-11.19.55c12.39,5.64,26.48,6.7,37.79,14.64s21.56,16.58,29.71,27.56l-.73,1C418.9,671.84,413.25,671,406.82,670.16Z" transform="translate(-151.48 -8.68)"/><path d="M550.94,567.87c12.64,10.76,25.27,21.09,37.39,32a130.5,130.5,0,0,1,26,31.92c11.73,20.36,13.86,41.58,5.6,63.68-5.74,15.34-15.25,28.42-25.08,41.3a5.5,5.5,0,0,1-6,2.09c-14.92-2.88-29.83-5.78-43.62-12.59-18-8.91-31.21-22-37.88-41.47-4.65-13.55-6-27.41-5.74-41.53.37-22.16,4.38-43.89,7.88-65.69,1.72-10.68,3.3-21.39,5-32.08.23-1.46.75-2.86,1.45-5.42Zm-6.63,67c11.42,13.25,17.44,29,21.45,45.89-10.14-6.45-20.11-12.51-31.61-15.7,3.41,5.59,9,8.71,13.52,12.85,4.79,4.34,9.88,8.38,14.47,12.91a127.88,127.88,0,0,1,12.66,14.09c3.77,5,6.73,10.66,10,16l1.33-.51a19.06,19.06,0,0,0-.53-4.18,132.82,132.82,0,0,0-4.91-12.56c-9-18.86-13.12-38.38-9.91-59.35,1.38-9,1.4-18.2,1.89-27.32.09-1.57-.58-3.17-.9-4.76h-1.59c-5,10.55-7.53,21.89-10.11,33.65-3.72-4.83-7.24-9.57-9.41-14.86-7.18-17.56-13.87-35.32-20.8-53a28.21,28.21,0,0,0-2-3.62l-1.33.55c1,4,1.66,8.14,3.07,12,3.94,10.84,8.21,21.55,12.29,32.34a46,46,0,0,1,1.25,5.56c-7.55-3.77-12.57-10-20-11.2l-.9,1.27C529.44,621.42,536.67,627.92,544.31,634.84Z" transform="translate(-151.48 -8.68)"/><path d="M1022.7,443.74c7.27,7.57,13.25,15.75,17.28,25.11,7.58,17.65,6.8,35.78,1.24,53.66-3.2,10.29-7.93,20.1-11.94,30.14-1,2.59-2.67,4.15-5.65,4.2-14.9.28-29.79.7-44.47-2.8C959,549.25,942.86,539,932,520.8c-7.19-12-11.35-25-14.09-38.6-4-19.91-4.87-40.15-6-60.36-.71-12.63-1.51-25.26-2.23-37.88-.08-1.49.12-3,.22-5.09a19.06,19.06,0,0,1,4,.93c24,12.25,48.17,24.33,72,36.92A152.82,152.82,0,0,1,1022.7,443.74ZM937.85,421c-2.76-4.2-5.59-8.34-9.64-11.56a46.78,46.78,0,0,0,5.12,11.88c6,9.5,12.32,18.8,18.44,28.23a42,42,0,0,1,2.39,4.85c-7.85-1.31-14.12-6.12-22.06-5.26,10.8,8.22,24.34,12.18,33.68,22.34,9.14,9.95,17.46,20.48,22.59,33.25a7.55,7.55,0,0,1-3.57-.39c-8.55-2.71-17.09-5.5-25.67-8.12-1.49-.45-3.19-.21-4.79-.3l-.46,1.72c5.53,2.86,11.08,5.66,16.56,8.6s11.21,5.89,16.54,9.28a138.83,138.83,0,0,1,15.69,11.32c4.62,3.95,8.58,8.69,12.84,13.08l1.24-.89a17.25,17.25,0,0,0-1.29-3.64c-2.48-3.91-5.22-7.67-7.69-11.59-4.7-7.46-9.66-14.8-13.83-22.56-5.33-9.93-7-20.94-8.13-32.06-1-9.35-2.61-18.63-4.1-27.91-.25-1.56-1.23-3-1.88-4.5l-1.52.31c-2.84,11.32-2.41,23-2.88,35-4.52-3.81-8.89-7.56-12-12.15C954.71,447.29,946.55,434.33,937.85,421Z" transform="translate(-151.48 -8.68)"/><path d="M338.28,780.09c23.86-8.07,47.36-16.25,71-23.9,18.27-5.9,36.95-10,56.33-9.17,24.31,1,43.67,11.35,58,31.15,9,12.47,14.6,26.55,20,40.76a5.78,5.78,0,0,1-1.15,6.6c-10.42,11.05-20.77,22.16-33.88,30.21-17.13,10.51-35.27,14.69-55.26,10-16.95-3.95-32-11.83-45.43-22.36-17.14-13.42-33.48-27.85-50.14-41.89-6.23-5.25-12.37-10.62-18.55-15.94-.94-.81-1.84-1.69-3.19-2.93A28.11,28.11,0,0,1,338.28,780.09Zm36,12.26c3.49,1,6.93,2.33,10.49,3.08,10.18,2.14,20.41,4,30.61,6.11a47.05,47.05,0,0,1,5,1.54c.07.39.15.78.23,1.18-6.37,3.52-14,5-19.4,10.11l.67,1.67c8.81-1.73,17.08-5.62,25.85-7.53a67.93,67.93,0,0,1,26.8-.58c8.77,1.57,17.93,1.57,26,6.63-10.63,5-20.91,10-29.55,17.86,6.54.34,12.06-2.82,18-4.44,6.23-1.72,12.35-3.9,18.64-5.36a133.16,133.16,0,0,1,18.67-3.19c6.19-.53,12.45-.11,18.68-.11.07-.48.13-1,.2-1.43a20,20,0,0,0-3.6-1.58c-4.39-1-8.79-2-13.24-2.56-20.9-2.44-39.72-9.48-55.83-23.51-6.65-5.79-14.21-10.54-21.44-15.64a22.54,22.54,0,0,0-4.61-1.94c-.39.47-.77,1-1.15,1.43,6.41,9.6,14.51,17.82,23.25,25.38-.76.82-.92,1.14-1.14,1.2a12.94,12.94,0,0,1-2.07.33,75.48,75.48,0,0,1-20.9-1.68c-16.09-3.4-32.28-6.31-48.44-9.34a28.12,28.12,0,0,0-5,0l-.09.85C371.77,791.24,372.74,791.69,374.29,792.35Z" transform="translate(-151.48 -8.68)"/><path d="M1213.7,414.73c.73,18.87.06,37.24-5.33,55.1q-10.55,34.95-44.62,48.32c-14.17,5.55-29,7.49-44,9.14-2.77.3-4.94-.43-6.5-2.88-7.45-11.75-14.81-23.5-19.59-36.73-9.7-26.9-5.28-51.37,12-73.79C1117.76,398.24,1133,386,1149,374.75c17.81-12.53,35.83-24.76,53.79-37.08a41.22,41.22,0,0,1,4.6-2.26c1.55,9.25,1.49,17.88,2.33,26.39.86,8.81,1.67,17.63,2.34,26.45S1213.14,405.64,1213.7,414.73ZM1160,454.15c2.76-2.17,5.57-4.29,8.29-6.51,7.29-5.95,14.58-11.9,21.78-18a23.42,23.42,0,0,0,3.06-4l-.79-1.17c-1.65.4-3.45.51-4.9,1.27-7.1,3.7-14.1,7.58-21.13,11.38-1.4.76-2.81,1.47-5.12,2.67.28-2.36.42-3.68.59-5,1.25-9.44,6.38-17.31,10.31-25.69,5.91-12.58,11.59-25.28,17.32-38a13.15,13.15,0,0,0,.61-2.84l-1.1-.47c-2.1,3.25-4.51,6.35-6.24,9.79-4.92,9.8-9.53,19.75-14.34,29.61a34.58,34.58,0,0,1-2.82,4.16l-1.2-.24c-1.88-6.52-1.3-13.82-5.7-19.72-1.94,13.13,1.44,26.41-1.9,39.44-3.74,14.58-12.42,33.33-17.59,35.95-.34-1.42-.63-2.73-1-4-2-8-3.92-16.09-6-24.1-.37-1.41-1.45-2.64-2.21-4l-1.16.37c-1.27,6,.39,12.1.47,18.14.08,6.32.66,12.65.53,19a132.28,132.28,0,0,1-1.47,18.46c-1,6-2.87,11.89-4.37,17.83l1.36.59a18.07,18.07,0,0,0,2.46-3.05c2.11-4.28,4.19-8.58,6-13C1139.84,478.56,1147.48,465.09,1160,454.15Z" transform="translate(-151.48 -8.68)"/><path d="M690.11,725c-10.05-11.83-19.75-23.52-26.11-37.53-8.1-17.86-10.09-36-3.38-54.91,5.81-16.4,15.3-30.49,27.37-42.59,15.66-15.72,32.23-30.55,48.44-45.72,5.64-5.29,11.36-10.49,17.1-15.68,1.18-1.07,2.57-1.92,4.36-3.25a19.38,19.38,0,0,1,1.79,3.78c5.43,26,11.09,52,16.07,78.07,3.24,16.91,4.24,34.06,1.42,51.21C773.29,682.07,761,699.93,740,711.76c-13.52,7.62-28.3,11.62-43.2,15.28A6,6,0,0,1,690.11,725Zm16-66.31C702.3,646,697.41,636,693.48,634.1c-.06,6.54,2.1,12.36,3,18.32,1,6.25,2.34,12.45,3,18.73a134.58,134.58,0,0,1,.93,18.49c-.16,6.08-1.19,12.14-1.84,18.21l1.5.34a21.68,21.68,0,0,0,1.93-3.44,109.39,109.39,0,0,0,3.76-11.63c5-21.38,14.91-39.79,31.56-54.53,6-5.28,11-11.64,16.29-17.63,1.14-1.28,1.7-3.08,2.52-4.64l-1.11-.93a23.24,23.24,0,0,0-4.37,1.92c-6.64,4.71-13.19,9.54-19.78,14.33-1.27.92-2.56,1.82-4.55,3.24-.12-2-.25-3.11-.23-4.15.2-7,2-13.53,4.22-20.12,5.13-15.46,9.87-31.06,14.71-46.63a23.26,23.26,0,0,0,.53-4l-1.37-.31c-1.77,3.93-3.85,7.76-5.25,11.82-3.43,10-6.53,20-9.83,30.06a44.14,44.14,0,0,1-2.17,4.69l-1.18,0c-3-6.25-3.16-13.89-8.39-19.17a8.66,8.66,0,0,0-.59,4.55c.83,4.85,1.78,9.68,2.76,14.5,4,19.52-1.55,37.59-8.48,55.43a15.6,15.6,0,0,1-2.34,3.19c-.73-.8-1.14-1.06-1.27-1.42C707.05,662,706.66,660.67,706.07,658.69Z" transform="translate(-151.48 -8.68)"/><path d="M344.65,699.12c4.47,17.07,3.86,34,2.38,51-.16,1.76-1.68,4.24-3.21,4.92C326,762.93,307.93,769.72,288,769.63c-22.36-.1-40-9.93-54.68-25.9-13.5-14.66-22.83-32-31.18-49.87-9.16-19.6-18-39.38-26.87-59.11a37.3,37.3,0,0,1-1.31-4.44c1.86-.26,3.19-.71,4.45-.58,26,2.69,52,5.16,78,8.29,16.8,2,33.18,6.1,48.5,13.64C325,661.57,338.7,676.87,344.65,699.12Zm-78.37,1.07c8.48,6.07,18.52,10.16,24.81,19.23a12.52,12.52,0,0,1-4.33.81c-8,.54-16,1-23.93,1.69-1.47.12-2.87,1-4.31,1.49l.11,1.45c5.78,1.85,12,1.66,17.92,2.57,6.12.93,12.3,1.52,18.35,2.75a136.06,136.06,0,0,1,17.91,4.74c5.68,2,11.07,4.81,16.58,7.27l.78-1.11a21.36,21.36,0,0,0-2.81-3.23,102.12,102.12,0,0,0-9.55-6.92c-18.55-11.16-33.05-25.85-42-45.89-3.31-7.4-7.86-14.26-12-21.28-.89-1.51-2.44-2.64-3.68-4l-1.25.66c.08,1.57-.15,3.23.3,4.68,2.33,7.51,4.85,15,7.29,22.43.54,1.63,1,3.28,1.88,6-2.34-.73-3.6-1.12-4.85-1.53-9-2.95-16-9.26-23.47-14.68-10-7.23-20.18-14.3-30.35-21.34a33,33,0,0,0-5.2-2.45l-.75,1.2a94.7,94.7,0,0,0,7.62,7c8.47,6.29,17.11,12.34,25.63,18.55a46.7,46.7,0,0,1,4.11,3.74l-.45,1.11c-1.57.14-3.15.36-4.73.42-3.93.13-7.86.1-11.78.35-1.14.07-2.23.85-3.35,1.31l.12,1.58c5.06.71,10.11,1.59,15.19,2.11A75.43,75.43,0,0,1,266.28,700.19Z" transform="translate(-151.48 -8.68)"/><path d="M350.69,943.85c10-13.79,20.25-27,33-38,12.59-10.83,26.52-19,43.32-21.06,15.4-1.91,30.07,1.25,43.84,7.82,9.61,4.58,18.63,10.4,27.9,15.68,2.53,1.43,4,3.42,3.64,6.52-1.52,13.84-3.2,27.61-7.75,40.91-9.15,26.74-27.66,43-54.82,49.76a153.19,153.19,0,0,1-45.63,4.06c-26.24-1.45-52.44-3.52-78.65-5.38-1.28-.09-2.53-.72-5-1.44C324.23,982.71,337.37,963.4,350.69,943.85Zm57.43,10.68c-5.37,3.28-10.55,6.93-16.15,9.75-12.79,6.46-25.81,12.47-38.68,18.77-2.55,1.24-4.86,3-7.29,4.45l.66,1.41c3.38-1.11,6.9-1.91,10.11-3.37,9.72-4.44,19.3-9.17,29-13.71a47.11,47.11,0,0,1,5.94-1.75c-2.29,7.51-7.78,12.51-7.56,19.83,9.41-9.2,15-21.69,26-29.31s22.14-14.45,35.44-17.53a12.51,12.51,0,0,1-1.32,4.52c-3.32,7.27-6.71,14.51-9.94,21.83a19.2,19.2,0,0,0-.83,4.48l1.13.46c4.84-3.82,7.35-9.57,11.06-14.32s7.23-10,11.21-14.77,8.56-9.28,12.94-13.83c4.12-4.28,10-6.51,13.66-11.54a6,6,0,0,0-3.86.24,113.66,113.66,0,0,0-11,5.24c-18.58,10.81-38.28,16.43-60,14.76-8.5-.65-17.12.16-25.68.45-1.46,0-2.89.89-4.34,1.36l-.05,1.27c1.58.72,3.09,1.76,4.74,2.09,7.43,1.51,14.89,2.81,22.34,4.2,1.82.33,3.62.73,5.43,1.1l1.07,1.92C410.89,953.08,409.73,953.63,408.12,954.53Z" transform="translate(-151.48 -8.68)"/><path d="M285.2,920.77c-17.16,0-32.47-5.39-47.26-12.58-19.67-9.56-37.5-22.14-55.6-34.27-9-6-18-11.95-27-18a46.58,46.58,0,0,1-3.82-3.3,24.06,24.06,0,0,1,3.54-2.81c22.59-11.08,45.1-22.33,67.85-33.07,16.73-7.89,34.16-13.83,52.76-15.45,23.93-2.08,44.24,5.5,60.86,22.95,10.61,11.13,18,24.35,25.24,37.73a6.78,6.78,0,0,1-.55,7.85c-8.75,12.26-17.62,24.43-29.53,33.91C318.2,914.48,303.27,921.37,285.2,920.77Zm26.88-59.65c-17.19-1.07-32.34-7.56-46.62-16.87-6.44-4.21-13.53-7.44-20.4-11-1.42-.73-3.17-.79-4.78-1.16l-.67,1.18a20.54,20.54,0,0,0,2.79,3.78c6.06,5.22,12.24,10.3,18.36,15.43,1.23,1,2.43,2.09,4.41,3.79-2.25.61-3.53,1-4.81,1.31-8.94,2.29-17.87.64-26.83.08-13.46-.83-26.93-1.45-40.4-2.09a30.22,30.22,0,0,0-4.52.45l0,1.46c4.09.73,8.14,1.79,12.26,2.13,10.22.85,20.47,1.34,30.7,2.07a59,59,0,0,1,6.56,1.33c-5.65,5.63-13.31,6.9-16.37,13.8,12.67-3.71,23.78-11.71,37.11-13,13.14-1.22,26.3-1.82,39.31,2.22a12.44,12.44,0,0,1-3.46,3.25c-6.58,4.78-13.19,9.52-19.69,14.4-1.18.89-1.92,2.36-2.85,3.56l1,1.36c5.49-2.56,10.94-5.18,16.46-7.68,5.76-2.61,11.47-5.35,17.38-7.58a134.35,134.35,0,0,1,17.68-5.49c5.91-1.34,12-1.78,18.05-2.61,0-.59,0-1.19,0-1.78a53.36,53.36,0,0,0-6.32-1.13C328.52,861.94,320.67,861.62,312.08,861.12Z" transform="translate(-151.48 -8.68)"/><path d="M903.32,234.08c12.71,6.36,23.92,14.14,33.22,24.65a66.4,66.4,0,0,1,15.21,31.06,89.38,89.38,0,0,1,.32,34.38c-1.53,8.57-3.69,17-5.55,25.54a6.7,6.7,0,0,1-5.59,5.56c-15,3.28-30.07,6.07-45.54,5-15.22-1.09-29.39-5.46-41.21-15.38a93.41,93.41,0,0,1-23-29.35c-8-15.63-13.23-32.25-17.5-49.18-5.06-20-9.85-40.14-14.71-60.23a38.26,38.26,0,0,1-.46-5c1.83,0,3.25-.32,4.45.05,27.84,8.46,55.69,16.89,83.45,25.61C892.12,228.6,897.5,231.53,903.32,234.08Zm-52.77,27,3.51,4.71-.75,1.09c-6.29.29-12.52-3.53-19-.88a9.5,9.5,0,0,0,3.73,2.53c4,1.4,8,2.76,12,3.92,18.9,5.39,32,18.63,44.52,32.72,1,1.14,1.46,2.77,2.62,5.08-2.63-.25-4.23-.38-5.82-.55-7.67-.84-15.33-1.75-23-2.47-1.41-.13-2.89.53-4.34.82,0,.57-.09,1.14-.14,1.71,5.68,1.8,11.38,3.55,17,5.42,5.87,1.94,11.8,3.77,17.53,6.07A138.13,138.13,0,0,1,914.83,329c5.18,2.93,9.94,6.58,14.89,9.92.32-.37.65-.73,1-1.1a19,19,0,0,0-2-3.36c-3-3.2-6.13-6.19-9.05-9.42-5.84-6.44-11.86-12.75-17.24-19.56-6.9-8.75-10.35-19.19-13.47-29.78-2.55-8.61-5.65-17.06-8.66-25.53-.54-1.5-1.83-2.73-2.77-4.08l-1.3.39c-.2,1.72-.72,3.47-.53,5.14.84,7.53,1.9,15,2.84,22.55.21,1.67.25,3.36.45,6-2.2-1.18-3.55-1.63-4.55-2.49-5.4-4.65-11-9.14-16-14.18-9.62-9.64-18.88-19.65-28.37-29.43a54.42,54.42,0,0,0-5.2-4.19l-1.13,1.28C830.93,242.36,841.49,250.7,850.55,261.12Z" transform="translate(-151.48 -8.68)"/><path d="M1298.43,500.42c22.52,5.53,43.7,14,65,21.89,7.77,2.9,15.61,5.62,23.39,8.49a56.88,56.88,0,0,1,5.2,2.6,26.49,26.49,0,0,1-3,3.73c-19,15.82-37.9,31.8-57.16,47.31-14.61,11.77-30.33,21.91-48.31,27.93-22.92,7.67-44.56,5-64.9-8.23-12.88-8.38-23.27-19.42-33.18-30.94-1.23-1.43-2-4.43-1.37-6.1,6.65-17.85,14.32-35.11,27.85-49.14,17-17.57,38-23.12,61.51-21.36C1281.76,497.21,1289.91,499.06,1298.43,500.42Zm-15.21,68c7.34,1.91,14.67,3.89,22,5.66,1.68.4,3.53.06,5.3.06l.34-1.44a20.45,20.45,0,0,0-3.65-3c-6.86-3.53-13.82-6.89-20.72-10.34-1.51-.75-3-1.63-5.31-2.94,2.18-1.18,3.35-1.84,4.54-2.46,8.32-4.33,17.55-4.75,26.53-6.32,12-2.11,24.06-4.39,36.06-6.72a33.28,33.28,0,0,0,5.41-2c-.11-.45-.23-.9-.34-1.35a93.71,93.71,0,0,0-9.94.54c-10.14,1.59-20.23,3.46-30.36,5.13a60.23,60.23,0,0,1-6.32.39c-.13-.38-.26-.75-.38-1.13,3.32-5.49,10-8.58,11.61-15.46a10.39,10.39,0,0,0-4.62,1.87c-3.82,2.88-7.55,5.87-11.26,8.88-14.78,12-32.58,15.23-50.68,17.58-1.48.19-3-.38-5.57-.74,1.81-2,2.92-3.23,4-4.47,4.89-5.8,9.81-11.57,14.6-17.45.93-1.14,1.3-2.74,1.93-4.14l-1.13-1c-5.27,3-9.57,7.38-14.38,11s-9.47,7.55-14.46,10.94a140.66,140.66,0,0,1-15.88,9.55c-5.35,2.69-11.1,4.59-16.68,6.83.1.51.21,1,.31,1.51a28.8,28.8,0,0,0,5.09,0c6.9-1.28,13.74-2.93,20.66-4.08C1247.89,560.26,1265.52,561.32,1283.22,568.4Z" transform="translate(-151.48 -8.68)"/><path d="M1096,260.68c-3-17.56-.22-34.28,4.44-50.77,6.16-21.85,15.37-42.56,24.08-63.45,3.14-7.53,6.08-15.13,9.2-22.67a59,59,0,0,1,3-5.41,36.09,36.09,0,0,1,4,3.64c14.86,19.26,29.87,38.4,44.42,57.89,11.15,14.93,20.66,30.87,26.1,48.88,7.23,24,3.57,46.06-11.2,66.39-8.62,11.86-19.57,21.27-30.71,30.54-2.07,1.72-4.32,2.72-7,1.56-17.23-7.43-34.07-15.48-47.33-29.33C1105,287.52,1098.08,275.54,1096,260.68Zm63.42,7.05c-.44-11.56,2-22.58,5.85-33.43,3.13-8.86,5.84-17.88,8.52-26.9.53-1.79.07-3.87.07-5.81l-1.19-.45c-1.16,1.27-2.6,2.37-3.42,3.82-3.61,6.34-7,12.79-10.54,19.19-.81,1.47-1.76,2.87-3.15,5.12-1.32-2.41-2.2-3.79-2.85-5.27-3.77-8.53-3.83-17.78-5.11-26.79q-2.41-17.11-5.1-34.19a20.24,20.24,0,0,0-1.64-4.22l-1.35.27a68.7,68.7,0,0,0,0,8.12c1.26,10.33,2.74,20.62,4,30.94a42.22,42.22,0,0,1-.22,6.18c-6.39-3.66-9.06-10.17-15.61-11.8,3.11,8.09,9.34,14.12,13.53,21.42a68.17,68.17,0,0,1,8.86,24.42c1.18,8.31,4.25,16.48,2.09,25.28a16.88,16.88,0,0,1-4.53-3.06c-5.45-4.85-10.83-9.78-16.36-14.55-1.06-.92-2.65-1.23-4-1.83l-1.08,1.32c4.67,6.4,9.48,12.7,14,19.23s9,13,12.65,19.9,6.21,14.43,9.25,21.68l1.18-.14a66.23,66.23,0,0,0,0-7.59C1162.09,288.55,1160.76,278.54,1159.44,267.73Z" transform="translate(-151.48 -8.68)"/><path d="M559.13,286.3c11,15.47,21.77,30.77,29.78,47.77,5.68,12,9.57,24.52,10.61,37.91,1.42,18.07-4.5,33.73-14.92,48-9.15,12.53-21.16,22.06-33.4,31.31-2.05,1.55-4.22,2.28-6.67,1.13-15.82-7.43-31.19-15.56-43.71-28.13-17.5-17.56-23.1-39-20.32-63,2.28-19.78,9.15-38.21,17.09-56.26,8.55-19.42,17.41-38.69,26.18-58a38.7,38.7,0,0,1,2.82-4.33,35.29,35.29,0,0,1,3.78,3.74C539.93,259.59,549.44,272.83,559.13,286.3Zm-42.82,90.5c2.94,4.29,6,8.53,8.8,12.89s5.87,8.95,8.4,13.64a126.65,126.65,0,0,1,6.55,14.14c1.86,4.74,3.19,9.7,4.76,14.57l1.5-.3a22.08,22.08,0,0,0,.38-3.94c-.32-4.2-.89-8.38-1.19-12.59-.6-8.53-1.45-17.07-1.53-25.61-.1-10.7,3.19-20.73,7.09-30.63,3.4-8.62,6.37-17.41,9.34-26.19.59-1.74.32-3.77.45-5.67l-1.45-.45a24.41,24.41,0,0,0-3.55,3.8c-3.89,6.34-7.59,12.79-11.4,19.19-.86,1.43-1.88,2.77-2.82,4.16l-1.13-.27c-2.11-5-4-10-4.58-15.51q-2.19-23.08-4.57-46.15c-.33-3.24-1.14-6.42-1.72-9.63l-1.25.13c-1.58,3.34-1.08,7-.76,10.49.87,9.66,1.9,19.31,2.79,29,.18,1.94,0,3.92,0,6.83-6.94-3.43-8.87-11.1-16-12.21a66.25,66.25,0,0,0,7.4,12.61c12.35,16.15,14.82,35.18,16.16,54.54.11,1.64-.6,3.34-1.14,6.07l-4.32-4.17c-5.34-5.19-10.63-10.42-16.06-15.51-1.05-1-2.63-1.41-4-2.09l-1,1.09C513,371.44,514.47,373.87,516.31,376.8Z" transform="translate(-151.48 -8.68)"/><path d="M364.06,418.05c.59-12.06,1.15-23.72,1.75-36.21,2.41.87,3.79,1.11,4.87,1.81,21.41,13.72,42.93,27.28,64.11,41.33,14.93,9.91,28.53,21.47,39.27,36,14.13,19.16,18.52,40.27,12.46,63.42-4,15.28-11.57,28.9-19.66,42.27-1.34,2.23-3.18,3.51-5.88,3.32-14-1-28-2.27-41.54-6.45-27.2-8.38-43.9-26.63-51.47-53.71-5.29-18.91-5.73-38.29-5.29-57.71C362.93,440.9,363.56,429.67,364.06,418.05Zm19.14,38.2c3.56,2.52,7,5.28,10.69,7.5,17.68,10.54,27.41,27.33,35.75,45.22.69,1.48.72,3.27,1.28,6-2.47-1.06-3.83-1.66-5.2-2.23-7.12-3-14.22-6-21.38-8.84-1.38-.55-3-.44-4.55-.64l-.57,1.32c4.27,4.32,9.87,6.91,14.77,10.42s10.05,6.74,14.79,10.47a144.25,144.25,0,0,1,13.88,12.24c4.17,4.27,7.73,9.13,11.56,13.73l1.19-.7a16.14,16.14,0,0,0-.82-3.44A123.85,123.85,0,0,0,448.83,536c-11-17.76-17.3-36.67-16.38-57.87.38-8.66-.67-17.38-1.24-26.07-.1-1.58-1-3.12-1.53-4.68l-1.4,0a24.21,24.21,0,0,0-1.93,4.77c-1.28,7.47-2.34,15-3.52,22.46-.26,1.64-.67,3.27-1,4.91l-2.17,1.26c-.6-1.31-.9-2.9-1.84-3.86-6.35-6.49-9.49-14.86-13.59-22.67q-8.62-16.43-17.46-32.72a35.22,35.22,0,0,0-3.48-4.58l-1.38.82c1.36,3.45,2.46,7,4.11,10.32,4.47,8.92,9.21,17.7,13.76,26.58a38.7,38.7,0,0,1,1.78,5.12l-1,.82L383,453l-.68,1.06A10.31,10.31,0,0,0,383.2,456.25Z" transform="translate(-151.48 -8.68)"/><path d="M510.11,987.7c8.87-13.22,21-21.72,35.4-27.28,14.61-5.64,30-7.2,45.44-8.47a6.25,6.25,0,0,1,6.37,3.19c7.29,12,14.35,24.14,18.77,37.65,8.8,26.9,3.64,51-13.94,72.73-12.62,15.61-28.45,27.55-45,38.59-17.76,11.87-35.76,23.39-53.69,35A28.14,28.14,0,0,1,499,1141a25.76,25.76,0,0,1-1.11-4.45c-1.24-24.43-2.65-48.85-3.54-73.29-.68-18.76.33-37.48,6.47-55.43C503.12,1001,506.86,994.57,510.11,987.7Zm32,68.67c-8.68,16.72-17.79,33.25-25,50.67l1.44.9c1.62-2.17,3.55-4.17,4.81-6.54,5.21-9.8,10.18-19.73,15.32-29.58.91-1.74,2.18-3.3,3.86-5.8,3.1,7.22,1.36,14.65,6.11,20.11a8,8,0,0,0,1.2-4c0-3.37,0-6.76-.3-10.11-1.92-21,6.19-39.06,16.25-56.56.75-1.31,2.11-2.26,3.89-4.12.58,2.83.9,4.57,1.3,6.29,1.71,7.38,3.37,14.77,5.22,22.12.34,1.35,1.5,2.49,2.28,3.73l1.16-.47c0-4.82,0-9.65,0-14.47s-.26-9.84-.24-14.76,0-9.85.45-14.74,1.65-9.69,2.28-14.56c.59-4.62,4-8.68,2.83-13.75a7.94,7.94,0,0,0-3,2.93c-2,3.71-4,7.41-5.7,11.28-8,18.62-19.25,34.44-36.43,45.83-7.47,5-14.28,10.9-21.29,16.53-1.34,1.08-2.2,2.77-3.29,4.19l.89,1.17c1.54-.31,3.23-.33,4.6-1,7.07-3.44,14.05-7.05,21.06-10.59,1.43-.72,2.88-1.4,5.21-2.54C546.41,1045.24,545.12,1050.7,542.14,1056.37Z" transform="translate(-151.48 -8.68)"/><path d="M1519.75,415c17,4.75,33.64,9.39,50.27,14.11a45.2,45.2,0,0,1,5.62,2.51c-1.22,1.82-1.78,3.12-2.73,4-20.86,20.07-41.53,40.36-62.81,60-7.17,6.6-15.67,11.9-24,17-12.66,7.74-26.51,12.3-41.52,12.39-17.29.1-32.54-6.21-46.16-16.22-8.46-6.22-16-13.65-24-20.55-2.29-2-3.52-4.38-2.6-7.49,5.13-17.31,11.12-34.22,22.41-48.73,14.51-18.68,34.11-26.81,57.17-27.81,20.77-.91,40.79,3.6,60.72,8.71C1514.54,413.53,1517,414.22,1519.75,415Zm-71.12,22.77a14.11,14.11,0,0,0-3.63,1.56c-2.51,2-4.85,4.28-7.2,6.5-13,12.28-26.25,24.27-43.12,31.25-.64.27-1,1.07-2.3,2.4a37.88,37.88,0,0,0,5.4-.32c4.1-.94,8.12-2.29,12.25-3.07,10.19-1.92,20.38-4.6,30.65-5.11,8.41-.41,17,1.68,25.42,3,8.6,1.33,17.12,3.16,25.71,4.56,1.69.28,3.53-.4,5.3-.63l.18-1.37a20.81,20.81,0,0,0-3.85-2.79c-6.45-2.79-13-5.37-19.45-8.08-1.55-.65-3-1.53-5.18-2.65a29.3,29.3,0,0,1,13.17-7.21c15.33-4.13,30.7-8.13,46-12.26,2.25-.6,4.4-1.59,6.6-2.41l-.43-1.6a57.7,57.7,0,0,0-7.24.85c-9.29,2.24-18.53,4.73-27.83,6.93-1.94.46-4.08.07-6.75.07,2.13-6.24,7.94-9.36,8.38-15.6a38.8,38.8,0,0,0-9.23,6.85c-13.89,14.76-32,20.91-51,25.25-2,.46-4.2.07-6.31.07l-.43-1.23c.88-1.34,1.73-2.69,2.65-4,3.68-5.3,7.47-10.53,11-15.92C1448.35,441.47,1448.51,439.69,1448.63,437.74Z" transform="translate(-151.48 -8.68)"/><path d="M1001.76,23.4c13.88,12.33,27.68,24.3,41.15,36.63a176.44,176.44,0,0,1,28.64,33.05c7.76,11.8,13.25,24.48,14.54,38.66,1.62,17.83-3.82,34-13.2,48.75-5.33,8.39-11.75,16.1-17.7,24.1-2.07,2.77-4.7,4.52-8.33,3.73-17.78-3.88-35.18-8.77-50.49-19.22-19.1-13-28.36-31.72-31.08-54.12-2.41-19.93.2-39.58,3.9-59.08,3.89-20.57,8.24-41.06,12.47-61.56.35-1.67,1.28-3.21,2.29-5.66C991.17,12.75,995.83,18.65,1001.76,23.4ZM1039,168.77c-2-7.6-4.46-15.11-6-22.8-2.21-10.76-.82-21.53.87-32.28,1.22-7.77,2-15.61,2.75-23.44.2-2.18.55-4.83-2.7-6.35a27.75,27.75,0,0,0-2.74,4.68c-2.16,6.08-4.08,12.25-6.16,18.36-.58,1.72-1.41,3.35-2.42,5.73a28.19,28.19,0,0,1-8-12.28c-5.18-14.86-10.29-29.75-15.48-44.61-.73-2.08-1.78-4.06-2.68-6.09l-1.57.52a47.34,47.34,0,0,0,1.11,5.86c2.88,9.12,5.95,18.17,8.79,27.3a35.78,35.78,0,0,1,.8,6.17l-1.24.8-13.35-7.47L990,84a20,20,0,0,0,2,3.2,72.5,72.5,0,0,0,6.28,6.24c14.88,12.57,21.65,29.77,27.22,47.63.56,1.82.24,3.92.33,5.88l-1.15.65c-1.64-.9-3.29-1.79-4.9-2.72-5.47-3.15-10.9-6.39-16.42-9.44-1.18-.65-2.72-.66-4.09-1l-.88,1.29c15.38,16.07,33.46,29.78,44.41,49.85C1043.83,179.49,1041.29,174.5,1039,168.77Z" transform="translate(-151.48 -8.68)"/><path d="M1200.1,753.23c-26.87-13.73-39.44-36.32-41.47-65.3-.69-9.78-.06-19.66,0-29.49,0-3.51,1.22-6.24,4.68-7.76,14.21-6.21,28.56-12,44.11-13.83,15.14-1.78,29.81-.1,43.34,7.44,12.49,7,22.52,16.68,31,28.14,10.76,14.56,18.94,30.58,26.64,46.86s15.24,32.6,22.78,49a34.8,34.8,0,0,1,1.43,5.53c-2.25.28-3.74.75-5.17.61-26.46-2.43-52.94-4.64-79.35-7.54A142.89,142.89,0,0,1,1200.1,753.23Zm96.91-8.87c-8.71-6.17-17.44-12.31-26.1-18.56a55.9,55.9,0,0,1-5.09-4.84c6.64-2.54,13.09,0,18.3-3.92a30.89,30.89,0,0,0-9.91-2.37c-20.69-.69-37.62-10.36-53.67-22.15-1.78-1.31-3.11-3.23-4.65-4.86l.57-1.19c1.72-.23,3.44-.5,5.17-.68,6.83-.72,13.68-1.35,20.5-2.19,1.43-.18,2.78-1.11,4.16-1.7l-.23-1.21c-7.46-2.34-15.37-2.08-23-3.34s-15.61-2.24-23.19-4.24c-7.41-2-14.53-5-21.77-7.63l-.57.86a25.19,25.19,0,0,0,3,3.17c3.14,2.37,6.44,4.51,9.59,6.86,6.73,5,13.65,9.87,20.05,15.3,8.38,7.1,13.95,16.4,19,26,4.12,7.81,8.69,15.4,13.2,23,.91,1.53,2.49,2.67,3.76,4l1.18-.54c0-1.82.43-3.78-.07-5.45-2-6.57-4.32-13.05-6.45-19.58-.56-1.72-.9-3.51-1.35-5.27l1.09-.84a39.62,39.62,0,0,1,13.25,5.62c13.28,9.19,26.54,18.42,39.86,27.55a50.72,50.72,0,0,0,5.86,3l.86-1.26C1299.41,746.89,1298.43,745.81,1297,744.36Z" transform="translate(-151.48 -8.68)"/><path d="M1266,367.4c12.47-14.22,28.27-22.42,45.74-27.85,17.81-5.52,36.18-8.15,54.6-10.47,15.35-1.92,30.69-3.86,46-5.72a62.44,62.44,0,0,1,6.79,0c-.36,2.43-.27,4.13-.87,5.54-10.59,24.83-20.76,49.84-32.12,74.31-5.1,11-12.08,21.25-19.14,31.17a75.29,75.29,0,0,1-31.35,25.57c-16,7-32.61,7.27-49.22,3.28-10.21-2.46-20.1-6.28-30.12-9.52-3.61-1.16-5.42-3.73-5.78-7.5-1.3-13.73-2.35-27.43-.27-41.21S1257.1,378.62,1266,367.4ZM1303,398.06c1.38-6.37,3.51-12.69,2.53-19.27l-1.74-.5c-5.74,9.68-9,20.66-14.79,30.31S1277,427.51,1270.88,437l.5.8c3.9-2.8,7.92-5.45,11.69-8.43,8.85-7,17.7-14.12,28.33-18,8.25-3,17-4.7,25.59-6.79,7.64-1.86,15.37-3.37,23-5.24,1.69-.41,3.16-1.67,4.74-2.54l-.27-1.4c-1.51-.45-3-1.26-4.52-1.29-6.59-.14-13.19,0-19.78-.06-1.94,0-3.87-.34-6.63-.59a30,30,0,0,1,9.53-11.82c12.62-9.87,25.29-19.67,37.9-29.54a48,48,0,0,0,3.94-3.88l-.9-1.23a56.6,56.6,0,0,0-5.45,3.18c-7.81,5.76-15.51,11.66-23.34,17.39a27.5,27.5,0,0,1-4.87,2.29l-1.3-.94q1.23-7.51,2.47-15l-1.33-.5a25.34,25.34,0,0,0-2.6,3.38,79.94,79.94,0,0,0-4,8.34c-7.12,18-21.32,29.66-36.31,40.57-1.42,1-3.37,1.35-5.08,2l-1.1-1C1301.66,404,1302.26,401.36,1303,398.06Z" transform="translate(-151.48 -8.68)"/><path d="M1258.86,221.92c9.08-12.51,21.37-20.17,35.14-25.68,15.68-6.27,32.19-9.09,48.9-10.32,24.24-1.79,48.52-3,72.78-4.4a32.69,32.69,0,0,1,5,.59c-.39,1.9-.4,3.47-1,4.71-11.32,22.29-22.48,44.68-34.19,66.77-8.45,16-18.63,30.79-32.13,43-18.27,16.58-39.55,22.81-63.91,18.48-14.7-2.61-28.18-8.53-41.57-14.78-2.48-1.16-4.15-2.9-4.29-5.75-.91-18.33-.85-36.63,5.77-54.08C1251.76,234.12,1255.53,228.26,1258.86,221.92Zm110-10.32c-5.42,3.52-10.81,7.09-16.29,10.52a43.62,43.62,0,0,1-5.72,2.44c0-7.24,5.1-12.3,3.73-18.76a9.77,9.77,0,0,0-3.26,3,86.31,86.31,0,0,0-4.69,8.47c-8.51,18.23-23.92,29.38-40.36,39.45-1.49.92-3.44,1.09-5.17,1.61-.26-.32-.52-.65-.77-1,.47-1.68.92-3.36,1.41-5,1.89-6.47,3.87-12.9,5.61-19.41.42-1.56.07-3.32.07-5l-1.48-.39c-4.49,6.51-7.5,13.91-11.56,20.68s-7.87,13.68-12.58,19.94-10.39,11.73-15.64,17.56l.6.84a17.59,17.59,0,0,0,3.34-1.17,117.27,117.27,0,0,0,10.33-6.51c16.54-12.43,34.63-20.55,55.66-21.71,8.37-.46,16.68-2.24,25-3.62,1.65-.28,3.14-1.47,4.71-2.24l-.33-1.45a25.71,25.71,0,0,0-5-1.41c-7-.53-14-.84-21-1.29-1.71-.11-3.4-.42-5.77-.73.92-1.71,1.23-2.85,2-3.55,2.92-2.81,5.7-5.89,9-8.14,13.25-9,26.71-17.67,40.05-26.53a66.45,66.45,0,0,0,5.25-4.26l-.85-1.19C1378.84,203.65,1374.54,208.39,1368.81,211.6Z" transform="translate(-151.48 -8.68)"/><path d="M1316.85,655.79c-2.79-6.27-1.32-10.78,3.61-15.2,9.54-8.55,19-17.12,30.17-23.56,22.67-13,45.83-13.86,69.52-3.13,16.21,7.34,30.24,18,43.07,30,17.7,16.67,34.91,33.87,52.28,50.9a30,30,0,0,1,3,4.39c-1.71,1.09-2.84,2.25-4.19,2.61-30.16,7.93-59.67,18.48-90.59,23.44-15.93,2.55-31.82,3.07-47.73-.86-18.83-4.65-32.61-15.83-43-31.72C1325.62,681.4,1321,668.89,1316.85,655.79Zm125.08,24,50.81,12.77c-.62-1.42-.66-1.77-.85-1.9-.92-.63-1.87-1.23-2.82-1.81-13.87-8.3-29.29-11.91-44.94-14.83-1.21-.23-2.38-.68-3.57-1,5.92-3.37,12-5.49,16.68-10.15a6.61,6.61,0,0,0-3.57-.44c-3.85.78-7.69,1.65-11.51,2.57-16.05,3.86-32.09,3.25-48-.36-4.64-1.05-9-3.21-13.52-4.86,0-.59,0-1.18,0-1.77,5-2.27,10.07-4.45,15-6.83a50.75,50.75,0,0,0,14.18-9.46,7.63,7.63,0,0,0-4.07-.21c-5.45,1.33-10.89,2.69-16.3,4.18-16.48,4.54-33,8.22-50.32,5.49a25,25,0,0,0-5.09.22c.5,1.3,1,2,1.73,2.18,5.35,1.67,10.64,3.63,16.09,4.79,16.75,3.56,32.29,9.62,45.63,20.64q14.63,12.07,29.31,24l4.27,3.54,1-.79c-.49-1.21-.91-2.44-1.46-3.62-3.83-8.26-9.36-15.31-15.69-21.78a46.1,46.1,0,0,1-3.16-4l.61-1.15C1422.33,674,1431.65,677.93,1441.93,679.79Z" transform="translate(-151.48 -8.68)"/><path d="M1069,743.31c-2-24.48-4-48.57-5.67-72.69-.47-7,.34-14,.62-21.06a39.69,39.69,0,0,0-5.17-22.25c-5.41-9.26-7.9-19.55-8.73-30.14a155.28,155.28,0,0,1,1.78-39.52,78.56,78.56,0,0,1,4-13.72,20.18,20.18,0,0,1,4.35-6.63c3.76-3.9,8.55-3.09,11.08,1.75a32.26,32.26,0,0,1,2.34,6.31c7.45,26.67,15.06,53.31,22.15,80.08a59,59,0,0,1-.4,32.83c-8.49,28.09-10.53,57.15-11.58,86.28-.31,8.44-1.51,16.26-8.42,22-.8.68-1.71,1.22-3.46,2.44C1070.91,760,1070,751.85,1069,743.31Z" transform="translate(-151.48 -8.68)"/><path d="M687.56,896.13c2.46,14.28,4.85,28.2,7.41,43.18-2.15-.87-3.28-1.2-4.3-1.75-7.4-4-11.14-10.74-13.81-18.4-5-14.33-9.54-28.87-15.52-42.79a422.06,422.06,0,0,0-21-41.77A55.53,55.53,0,0,1,633,806.89c-.19-27,0-54,0-80.95a45.39,45.39,0,0,1,.51-7.56c1.08-6.22,6-8.4,11.19-4.8a21.41,21.41,0,0,1,6.45,6.51,155.44,155.44,0,0,1,10.23,20.24c5.24,13.37,9.69,27.1,9.41,41.69a179.09,179.09,0,0,1-2.27,22.6c-.81,5.57-.71,11,1.21,16.22,8.19,22.13,12.82,45.1,16.47,68.32C686.58,891.38,687.07,893.57,687.56,896.13Z" transform="translate(-151.48 -8.68)"/><path d="M1004.48,589.76c2.72.84,5.58,1.24,7.44,2.8,13.32,11.24,26.45,22.69,39.6,34.12,3.86,3.36,6.49,7.65,6.6,12.77.19,8.26-.31,16.54-.33,24.81a183.9,183.9,0,0,0,.44,18.94c2.86,28.52,6,57,9,85.51.26,2.46.2,4.59-1.76,6.56-8.4,8.49-16.66,17.12-25,25.68a28.7,28.7,0,0,1-2.67,1.93c-.65-4.45-1.61-8.19-1.66-11.94-.16-14.47.39-29-.09-43.42a483.65,483.65,0,0,1,3.35-71.09c.89-7.81-.75-14.32-6.44-20s-11.06-12-16.68-17.87c-10.29-10.79-14.72-24.05-16.18-38.49C999.72,596.21,999.75,592.06,1004.48,589.76Z" transform="translate(-151.48 -8.68)"/><path d="M682.21,841.59c-2.52-7.52-4.86-14.73-7.42-21.87-3.31-9.27-2.26-17.8,3.35-26,8.89-13,17.49-26.17,26.24-39.26,1.94-2.89,3.69-6.45,8-5.59,4.13.81,5.29,4.5,5.93,7.94,2.61,14,2.11,27.71-4.46,40.7-4.13,8.15-8.23,16.31-12.57,24.34A20.77,20.77,0,0,0,700,839.35c5.33,15.4,11.12,30.67,15.81,46.26,6.81,22.6,12.85,45.43,19.12,68.18a53.18,53.18,0,0,1,1,7.27l-1,.54L699.6,941.78C695.41,908.28,690.13,874.88,682.21,841.59Z" transform="translate(-151.48 -8.68)"/><path d="M998.35,793.31l5.06-17.2a18,18,0,0,1,1.56,2.64c4.53,15.06,9,30.12,13.55,45.17a7.88,7.88,0,0,1-1.41,7.48c-8.28,11.32-16.44,22.73-24.67,34.1-.54.75-1.27,1.39-2.54,2.76-.5-1.92-.94-3.14-1.12-4.39-1.13-8.07-2.37-16.12-3.2-24.22a22.84,22.84,0,0,1,.91-8.65C990.26,818.5,994.31,806.08,998.35,793.31Z" transform="translate(-151.48 -8.68)"/><path d="M947.64,739.87l10,7.2a10.73,10.73,0,0,1,0,2.95c-3.26,8.94-6.37,18-10,26.73-1.53,3.68-4.59,4.32-7.58,1.86-13.34-11-24.06-23.73-24.86-42.09a27.08,27.08,0,0,1,1.75-10.65c2.6-6.78,8.35-7.53,13.52-2.4C936,729,941.72,734.29,947.64,739.87Z" transform="translate(-151.48 -8.68)"/><path d="M804.94,880c4.5-7.14,8.9-14,13.07-21,1.77-3,3.18-6.14,7.2-6.28,4.21-.14,6.68,2.58,8.63,5.83,3.93,6.56,4.52,13.87,4,21.22-.83,12.65-6.64,23.4-13.67,33.57-.8,1.16-2.32,1.84-4.21,3.28-8.79-8.35-15.3-18-21.81-28.15Z" transform="translate(-151.48 -8.68)"/><path d="M791.06,1005.28c-8.89-6.91-17.47-13.73-26.27-20.26-3.13-2.33-4.58-5-4.49-8.86.31-13.34.48-26.68.69-40,0-2.49,0-5,0-8.55a37.08,37.08,0,0,1,2.5,3c9.88,15.19,19.81,30.34,29.52,45.64a25.4,25.4,0,0,1,3.42,8.86c1.29,7,2.07,14.18,3,21.28.19,1.49.22,3,.32,4.5l-1,.8Z" transform="translate(-151.48 -8.68)"/><path d="M666.27,1510.57a15.27,15.27,0,0,1-6.53,10.36c-12.37,9.06-32.93,5.94-39.34-12.31-.89-2.52-1.71-5-2.66-7.55-1.58-4.18-4.57-6.21-9.12-5.91a57.73,57.73,0,0,1-6.31.14c-5.94-.23-10.06-3.8-9.94-9.74a33.23,33.23,0,0,1,2.67-13A172.73,172.73,0,0,1,629.42,1423a29.39,29.39,0,0,1,10.56-6.59c7.83-2.84,14.58,1.41,15.69,9.67a44.64,44.64,0,0,1-.46,11.29c-.84,6.67-2.25,13.28-3,20a46.73,46.73,0,0,0,7.72,31.67C664.18,1495.39,667.59,1502.11,666.27,1510.57Z" transform="translate(-151.48 -8.68)"/></svg>