<svg width="877" height="901" viewBox="0 0 877 901" fill="none" xmlns="http://www.w3.org/2000/svg">
<path d="M438.8 -5.39967e-05C546.6 1.59995 641.367 37.5666 723.1 107.9C726.4 110.8 729.9 113.6 732.4 117.1C739 126.2 737.7 137.3 729.6 144.4C721.5 151.5 709.8 151.1 701.6 143.4C652.9 98.0999 596 68.1999 531.6 52.0999C509.569 46.6028 487.07 43.1878 464.4 41.8999C355 35.8333 259.367 69.1333 177.5 141.8C110.4 201.5 68.5 276.3 49.6 364C44.7163 386.903 41.8719 410.194 41.1 433.6C37.3 538.2 67.6 631.8 133.4 713.1C192.3 785.9 268.4 831.9 360.1 851.3C379.631 855.351 399.467 857.76 419.4 858.5C484.917 861.912 550.202 848.304 608.9 819C680.7 783.7 736.6 730.9 777.6 662.2C818.307 593.374 838.402 514.31 835.5 434.4C833.1 372.9 818.6 314.5 790.3 259.8C782.8 245.2 774 231.3 765.3 217.4C759.1 207.5 759.7 196.2 767.8 189.1C775.9 182 787 182.3 795.8 189.9C796.958 190.959 797.967 192.17 798.8 193.5C832.6 244.6 856.1 300.1 867.9 360.4C872.1 382 875.3 403.9 875.7 425.9C876 443.9 876.6 461.9 875.5 479.8C871.7 536.2 858.2 590.3 834.3 641.6C793.5 729.2 731.3 797.5 647 845.1C605.937 868.162 561.331 884.248 515 892.7C487.7 897.7 460.2 900.6 432.5 900C338.1 898 252.6 869.2 177.4 811.9C90.6 745.7 35.9 658.4 11.2 552.3C4.73958 525.245 1.05386 497.602 0.200008 469.8C-3.49999 332.2 42.9 214.5 142.2 118.9C202.6 60.7999 274.9 24.3999 357.1 7.99995C383.986 2.53282 411.364 -0.148018 438.8 -5.39967e-05Z" fill="#71816D"/>
<path d="M319.6 653.4C338.3 651.7 356.5 655.1 374.9 657.7C408.793 662.364 441.916 671.51 473.4 684.9C483.7 689.3 493.4 688.1 503.1 683.5C533.4 668.9 565.4 660.1 597.9 652C630.4 643.9 662.5 645.4 694.8 650.7C701.9 651.8 708.7 654.2 715.6 656.2C717.611 656.812 719.458 657.872 721 659.3C724.4 662.3 723.6 666.3 719.3 667.9C717.625 668.618 715.823 668.992 714 669C685.5 669.9 658.1 676.7 630.6 683.4C592.322 692.553 554.595 703.872 517.6 717.3C508.822 720.308 500.21 723.779 491.8 727.7C480.5 733.1 468.9 734 456.8 732.8C442.8 731.5 428.8 729.7 414.8 729.4C399 729.1 383.1 730 367.2 731C325.3 733.5 283.3 735.6 241.4 739.2C222.1 740.9 202.9 745.6 183.8 749.3C180.3 750 178.5 748.6 176.5 746.5C152.9 722.5 130.8 697.2 112.5 668.9C107.6 661.3 103.1 653.5 98.3 645.9C96.7 643.4 96.9 641.6 99.2 639.4C130.3 609.6 166.1 587.3 206.1 571.7C236 560.1 266.9 558.2 298.3 561.8C323.9 564.6 349.5 567.8 374.8 572C410.1 577.9 444.3 574.3 478 563.3C482.749 561.55 487.68 560.343 492.7 559.7C501.1 558.9 505.3 564.8 502.3 572.7C501.2 575.8 499.4 579.1 496.9 581.1C478.4 596.1 459.2 610.3 435.2 615.1C418.4 618.5 401.4 621.2 384.4 623.4C357.314 626.729 330.576 632.451 304.5 640.5C299.809 641.98 295.202 643.716 290.7 645.7C288.9 646.5 287.7 648.6 286.2 650.1C288.1 651.1 289.9 652.7 291.8 653C295.282 653.433 298.795 653.566 302.3 653.4C308.1 653.5 313.8 653.4 319.6 653.4Z" fill="#71816D"/>
<path d="M360.5 234C399.9 280.4 428.5 331.5 436.5 392.7C448.8 369.7 465.1 350.2 483.9 332.6C502.7 315 523 300.4 548.7 295.3L549.4 296.5C547.9 297.5 546.5 298.6 544.9 299.5C511.6 318.1 485 343.7 466.4 377.1C452.4 402.4 447.5 430 448.9 458.8C449.1 462.6 450.3 466.3 451.2 469.9C452.6 475.9 455.5 480.2 461.4 483.3C472.7 489.3 479.4 499.1 481.4 512.6C483.2 512 484.9 511.5 486.5 510.8C506.4 503.1 526.2 503.6 546.1 511.4C573.1 521.9 597 537.5 619.4 555.7C624.3 559.6 628.9 564 631.1 570.7L622.7 575.3C611.407 581.458 601.608 590.028 594 600.4C587.711 608.94 578.669 615.05 568.4 617.7C561.79 619.613 555.467 622.405 549.6 626C523.4 641.9 497.5 658.1 471.5 674.4C470.382 675.157 469.094 675.626 467.75 675.766C466.407 675.905 465.05 675.711 463.8 675.2C449.8 670.5 435.9 665.5 421.8 661.5C400.5 655.5 378.6 652.6 356.6 650.6C343.2 649.4 329.7 648.9 316.2 648.3C309.7 648 303.1 648.2 296.3 647.7C297.9 647 299.6 646.2 301.3 645.6C326.8 636.9 353 631.7 379.7 628.6C400.11 626.354 420.376 622.948 440.4 618.4C458.988 614.245 476.328 605.746 491 593.6C495.197 590.07 499.017 586.116 502.4 581.8C504.604 579.057 506.297 575.941 507.4 572.6C511.5 561.6 507.2 555 495.5 555.3C489 555.5 482.5 557.2 476.2 558.9C465 561.9 454.1 566.3 442.8 568.5C428.724 571.217 414.297 571.588 400.1 569.6C385.8 567.7 371.3 566.7 357 564.8C338.9 562.4 320.9 559.3 302.8 556.9C282.9 554.2 263 555.6 243.1 557.3L239.8 557.6C239.114 557.427 238.445 557.192 237.8 556.9C243.4 541.4 251.7 528.1 265.8 519.2C279.9 510.3 295.2 506.7 311.5 515.8C317.2 501.6 328.3 493.8 342.8 490.4C357.3 487 370.4 488.4 381.5 496.7C388.7 491.8 395 486.1 402.3 482.8C409.6 479.5 412.1 475.8 414.7 469.7C421.1 454.9 421.4 439.2 422.1 423.4C424.1 376 411.8 331.8 391.4 289.7C382.7 271.9 371.7 255.1 361.8 237.9C361.2 236.9 360.6 236 360.1 235C359.6 234 360.2 234.6 360.5 234Z" fill="#71816D"/>
<path d="M239.8 123.3C240.934 123.22 242.073 123.254 243.2 123.4C262.8 127.9 282.4 132.2 301.8 137.3C317 141.4 330.7 148.8 341.6 160.6C354.1 174.3 356.7 190.6 354.6 208.2C354.101 212.946 353.299 217.656 352.2 222.3C351.7 224.1 350 226.7 348.4 227.1C338.7 229.2 328.9 232 319.1 232.4C296 233.4 278.6 223 268.1 202.5C263 192.6 259.5 181.9 255.8 171.3C250.5 156.4 245.6 141.3 240.6 126.3C240.279 125.315 240.012 124.314 239.8 123.3ZM343.1 220.1L344 218.8C343.3 217.5 342.9 216.1 341.9 215.1C339.015 212.048 335.978 209.145 332.8 206.4C317.9 194.3 306.7 179.8 302.3 160.7C301.612 157.836 300.709 155.028 299.6 152.3C298.2 149.2 296.5 146.3 294.9 143.3L293.3 143.8L298.5 172.6L297.5 173.3C295.2 171.5 292.7 169.8 290.4 167.8C279.2 158.4 268.2 148.9 257 139.4C255.881 138.653 254.711 137.985 253.5 137.4L252.3 138.9L279 166C273.1 166.8 267.5 164.4 261.7 167.7C271.6 171.1 280.9 173.7 289.7 177.5C298.5 181.3 306.3 187.2 313.2 196C302.385 194.271 291.309 195.303 281 199C304.6 197.2 325 205.2 343.1 220.1Z" fill="#71816D"/>
<path d="M709.4 312.3C708.777 312.927 708.07 313.466 707.3 313.9C688.3 322.1 669.5 330.5 650.3 338.3C639.577 342.627 628.052 344.604 616.5 344.1C598.7 343.3 583.6 336.9 573.3 321.7C568.6 314.7 564.7 307.3 560.4 300C559.713 298.928 559.426 297.648 559.591 296.386C559.755 295.123 560.361 293.959 561.3 293.1C567 286.9 572.1 280.1 578.3 274.4C593.6 260.5 611.6 256.2 631.5 262.5C638.323 264.628 644.818 267.69 650.8 271.6C669.4 283.9 687.5 296.7 705.8 309.3C707.065 310.219 708.268 311.221 709.4 312.3ZM631.7 276.9L631 276.1C626.4 279.3 621.9 282.7 617.1 285.5C604.6 292.9 590.9 296.1 576.4 296C574.1 296 571.8 296.4 569.4 296.6V298.1C570.752 298.854 572.198 299.426 573.7 299.8C578.7 300.5 583.7 301.1 588.8 301.4C606.2 302.5 622.2 307.4 635.9 318.6C638.559 320.866 641.402 322.906 644.4 324.7C647.388 326.327 650.459 327.795 653.6 329.1L654.6 327.6L633.8 307.8C636.685 306.946 639.698 306.608 642.7 306.8L684.8 309.8C686.578 309.787 688.351 309.62 690.1 309.3V307.8C678.6 303.7 666.1 303.9 653.3 301.3C657.7 297.2 663.4 295.7 665.1 289.7C647.1 297 629.1 302.9 608.4 297.7C618 291.6 625.8 285.2 631.7 276.9Z" fill="#71816D"/>
<path d="M543.4 135.9C544.052 136.445 544.655 137.048 545.2 137.7C555.9 155.2 566.9 172.5 577.3 190.2C582.957 199.97 586.563 210.79 587.9 222C590.5 243.333 583.433 260.7 566.7 274.1C562.1 277.8 557.2 281.2 552.5 284.8C550.2 286.6 548 286.5 545.6 284.9C539 280.4 531.9 276.4 525.7 271.4C508.4 257.7 501.5 239.8 505.7 218C506.792 211.774 508.709 205.72 511.4 200C520.9 179.9 530.8 160.1 540.7 140.2C541.486 138.698 542.389 137.261 543.4 135.9ZM547.8 276.4H549.5C550.055 274.849 550.425 273.238 550.6 271.6C550.683 266.961 550.516 262.321 550.1 257.7C548.3 239.4 551.4 222.2 561 206.3C563.5 202 565.1 197.1 567 192.4C567.401 191.208 567.604 189.958 567.6 188.7L566.2 188L549.1 211.9C548.6 208.8 548.1 207 547.9 205.1C546.8 190.4 545.7 175.6 544.5 160.9C544.3 159.1 543.6 157.3 543.2 155.4L541.5 155.7C539.1 167.4 541.2 179.6 540.3 192.5C535.6 188.7 533.5 183.5 527.6 183C528.548 186.253 529.963 189.352 531.8 192.2C539.318 203.691 543.443 217.07 543.7 230.8C543.7 232.5 543.5 234.3 543.2 237.3C535.8 229 528.7 222.2 519.3 218.3C519.803 219.62 520.588 220.815 521.6 221.8C524.4 224.9 527.5 227.8 530.1 231.1C538.783 242.118 544.313 255.286 546.1 269.2C546.538 271.629 547.106 274.032 547.8 276.4Z" fill="#71816D"/>
<path d="M329 234.9C335.5 235.7 343.1 236.5 350.8 237.7C352.4 238 354.7 239.5 355.1 240.9C358.7 254.6 363.1 268.3 360.4 282.8C357.7 297.3 350.4 310.4 337.1 318.2C327.959 323.404 318.391 327.82 308.5 331.4C292.1 337.7 275.5 343.3 258.9 349C253.3 350.9 252.9 350.3 254.2 344.6C257.6 328.8 260.9 313 264.5 297.3C267.2 285.2 271.3 273.5 278.1 263C286.8 249.3 298.4 239.4 314.7 236.1C319 235.3 323.4 235.3 329 234.9ZM348.4 246.9C347.886 246.52 347.417 246.084 347 245.6C345.532 246.254 344.154 247.094 342.9 248.1C339.9 251.2 336.9 254.4 334.2 257.8C322.4 272.7 307.8 283.2 289.1 288C284.6 289.1 280.3 291.5 275.9 293.4C274.813 294.045 273.806 294.818 272.9 295.7L273.5 297.4L301.9 292.2C300.85 294.041 299.681 295.812 298.4 297.5L270.1 331.6C268.915 333.203 267.877 334.91 267 336.7L268.6 337.9C278.2 330.9 285.3 321.1 295 312.2V317.1C294.882 319.333 294.915 321.572 295.1 323.8C295.3 325.2 296.4 326.3 297.1 327.6C297.9 326.5 299 325.6 299.4 324.4C300.3 321.6 301 318.7 301.6 315.9C304.4 303 310.6 292 319.4 282.4C320.5 281.2 321.8 280.3 324 278.4C323.8 289.2 323.9 298.7 327.9 307.8C328.614 306.661 328.995 305.345 329 304C329.2 299.8 329 295.5 329.4 291.3C330.8 277.6 335.9 265.3 343.9 254.1C345.6 251.8 346.9 249.3 348.4 246.9Z" fill="#71816D"/>
<path d="M474.6 127.4C474.682 128.234 474.648 129.075 474.5 129.9C468 149.5 461.8 169.2 454.9 188.6C451.042 199.383 444.902 209.207 436.9 217.4C424.4 230.2 409.4 236.8 391.3 234.3C383.249 233.153 375.27 231.551 367.4 229.5C365.6 229.1 363.4 226.6 363.1 224.7C361.8 216 360.3 207.2 360.3 198.4C360.3 177.4 369.6 161.4 388 151.1C393.088 148.126 398.531 145.808 404.2 144.2C426 138.5 447.8 133.2 469.6 127.8C471.25 127.506 472.924 127.372 474.6 127.4ZM431.3 159.7L430.2 159.2C430.4 157.9 430.5 156.5 430.6 155.2C430.929 153.117 431.063 151.008 431 148.9C430.9 147.7 429.9 146.6 429.2 145.5C428.4 146.3 427.2 147 426.8 148C425.5 151 424.5 154 423.5 157.1C419.4 169.5 412.1 179.6 402.6 188.3C401.4 189.3 400 190 398.2 191.2C398.5 185.5 399 180.8 399 176.1C399 171.4 399.1 166.6 396.6 162.3C395.586 164.822 394.978 167.488 394.8 170.2C393.8 183.1 389.2 194.8 382 205.5C379.2 209.6 375.7 213.4 372.6 217.4C371.9 218.4 371.8 219.9 371.4 221.1C372.7 220.9 374.5 221.2 375.4 220.5C379.277 217.441 382.951 214.134 386.4 210.6C399.4 197.4 414.7 188.6 433.2 185.7C438.1 184.9 442.9 182.9 447.6 181.3C448.636 180.748 449.58 180.04 450.4 179.2C450.2 178.7 450.1 178.1 449.9 177.6L421.4 179.9C422.62 178.177 423.957 176.54 425.4 175L456.9 143.8C458.046 142.381 459.083 140.877 460 139.3L458.6 138.1C448.3 143.7 440.6 152.8 431.3 159.7Z" fill="#71816D"/>
<path d="M476.1 677.7L480.7 674.3C502.6 660.8 524.4 647 546.5 634C556.3 628.2 566.8 623.8 577.2 619.1C583.9 616.2 589.9 612.5 594.2 606.5C610.8 583.7 634.8 572.9 660.8 565.7C665.032 564.549 669.45 564.243 673.8 564.8C676.728 565.228 679.378 566.768 681.2 569.1C683.1 572 680.8 575 678.5 577.2C669.6 585.5 660.8 593.7 651.8 601.8C639.933 612.533 627.9 623.133 615.7 633.6C606.76 641.373 595.869 646.559 584.2 648.6C555.2 653.5 528.2 664.6 501.5 676.5C495.1 679.3 488.7 681.9 481.6 679.7C480.1 679.3 478.8 678.7 476.1 677.7Z" fill="#71816D"/>
</svg>
