<svg width="156" height="171" viewBox="0 0 156 171" fill="none" xmlns="http://www.w3.org/2000/svg">
<g filter="url(#filter0_d_453_1996)">
<path d="M63.2619 128.89V83.6072H92.53V128.89H129.115V68.5129H151.066L77.8959 0.588379L4.72559 68.5129H26.6767V128.89H63.2619Z" fill="#0E230A"/>
<path d="M63.9096 147.568V148.088H59.0896V147.568L60.1896 147.448C60.403 147.422 60.5296 147.368 60.5696 147.288C60.6096 147.208 60.6296 146.935 60.6296 146.468V141.548H54.5896V146.468C54.5896 146.935 54.6096 147.208 54.6496 147.288C54.6896 147.368 54.8163 147.422 55.0296 147.448L56.1296 147.568V148.088H51.3096V147.568L52.4096 147.448C52.623 147.422 52.7496 147.368 52.7896 147.288C52.8296 147.208 52.8496 146.935 52.8496 146.468V136.108C52.8496 135.642 52.8296 135.368 52.7896 135.288C52.7496 135.208 52.623 135.155 52.4096 135.128L51.3096 135.028V134.488H56.1296V135.028L55.0296 135.128C54.8163 135.155 54.6896 135.208 54.6496 135.288C54.6096 135.368 54.5896 135.642 54.5896 136.108V140.908H60.6296V136.108C60.6296 135.642 60.6096 135.368 60.5696 135.288C60.5296 135.208 60.403 135.155 60.1896 135.128L59.0896 135.028V134.488H63.9096V135.028L62.8096 135.128C62.5963 135.155 62.4696 135.208 62.4296 135.288C62.3896 135.368 62.3696 135.642 62.3696 136.108V146.468C62.3696 146.935 62.3896 147.208 62.4296 147.288C62.4696 147.368 62.5963 147.422 62.8096 147.448L63.9096 147.568ZM74.7613 142.928V143.328C74.7613 144.835 74.3813 146.042 73.6213 146.948C72.8747 147.842 71.808 148.288 70.4213 148.288C69.048 148.288 67.9813 147.842 67.2213 146.948C66.4747 146.042 66.1013 144.835 66.1013 143.328V142.928C66.1013 141.435 66.4747 140.242 67.2213 139.348C67.968 138.442 69.0347 137.988 70.4213 137.988C71.808 137.988 72.8747 138.442 73.6213 139.348C74.3813 140.242 74.7613 141.435 74.7613 142.928ZM72.9613 142.528C72.9613 141.142 72.7413 140.148 72.3013 139.548C71.8747 138.935 71.248 138.628 70.4213 138.628C69.608 138.628 68.9813 138.935 68.5413 139.548C68.1147 140.148 67.9013 141.142 67.9013 142.528V143.728C67.9013 145.128 68.1147 146.135 68.5413 146.748C68.9813 147.348 69.608 147.648 70.4213 147.648C71.248 147.648 71.8747 147.348 72.3013 146.748C72.7413 146.135 72.9613 145.128 72.9613 143.728V142.528ZM87.6742 147.568V148.088H82.9542V147.568L84.0542 147.448C84.2675 147.422 84.3942 147.368 84.4342 147.288C84.4742 147.208 84.4942 146.935 84.4942 146.468V141.488C84.4942 140.502 84.3408 139.808 84.0342 139.408C83.7408 138.995 83.3075 138.788 82.7342 138.788C82.3208 138.788 81.8542 138.922 81.3342 139.188C80.8275 139.455 80.3408 139.968 79.8742 140.728V146.468C79.8742 146.935 79.8942 147.208 79.9342 147.288C79.9742 147.368 80.1008 147.422 80.3142 147.448L81.4142 147.568V148.088H76.6942V147.568L77.7942 147.448C78.0075 147.422 78.1342 147.368 78.1742 147.288C78.2142 147.208 78.2342 146.935 78.2342 146.468V139.808C78.2342 139.342 78.2142 139.068 78.1742 138.988C78.1342 138.908 78.0075 138.855 77.7942 138.828L76.6942 138.728V138.188H79.7742V139.808C80.2408 139.182 80.7675 138.722 81.3542 138.428C81.9542 138.135 82.5475 137.988 83.1342 137.988C84.5742 137.988 85.5008 138.648 85.9142 139.968C86.4075 139.275 86.9542 138.775 87.5542 138.468C88.1675 138.148 88.7808 137.988 89.3942 137.988C90.3408 137.988 91.0742 138.295 91.5942 138.908C92.1275 139.508 92.3942 140.362 92.3942 141.468V146.468C92.3942 146.935 92.4142 147.208 92.4542 147.288C92.4942 147.368 92.6208 147.422 92.8342 147.448L93.9342 147.568V148.088H89.2142V147.568L90.3142 147.448C90.5275 147.422 90.6542 147.368 90.6942 147.288C90.7342 147.208 90.7542 146.935 90.7542 146.468V141.488C90.7542 140.502 90.6008 139.808 90.2942 139.408C90.0008 138.995 89.5675 138.788 88.9942 138.788C88.5808 138.788 88.1075 138.928 87.5742 139.208C87.0542 139.475 86.5608 140.002 86.0942 140.788C86.1075 140.895 86.1142 141.008 86.1142 141.128C86.1275 141.235 86.1342 141.348 86.1342 141.468V146.468C86.1342 146.935 86.1542 147.208 86.1942 147.288C86.2342 147.368 86.3608 147.422 86.5742 147.448L87.6742 147.568ZM103.613 145.808C103.373 146.715 102.919 147.355 102.253 147.728C101.599 148.102 100.873 148.288 100.073 148.288C98.5926 148.288 97.4859 147.842 96.7526 146.948C96.0193 146.042 95.6526 144.835 95.6526 143.328V142.928C95.6526 141.435 96.0059 140.242 96.7126 139.348C97.4193 138.442 98.4459 137.988 99.7926 137.988C100.513 137.988 101.166 138.135 101.753 138.428C102.353 138.722 102.826 139.155 103.173 139.728C103.533 140.302 103.713 141.015 103.713 141.868C103.713 142.268 103.673 142.688 103.593 143.128H97.4526V143.728C97.4526 145.128 97.6659 146.135 98.0926 146.748C98.5326 147.348 99.2393 147.648 100.213 147.648C100.826 147.648 101.333 147.488 101.733 147.168C102.146 146.848 102.419 146.295 102.553 145.508L103.613 145.808ZM99.7926 138.628C99.0059 138.628 98.4193 138.928 98.0326 139.528C97.6459 140.128 97.4526 141.115 97.4526 142.488H101.953V142.428C101.979 142.255 101.999 142.088 102.013 141.928C102.026 141.755 102.033 141.602 102.033 141.468C102.033 140.468 101.826 139.748 101.413 139.308C100.999 138.855 100.459 138.628 99.7926 138.628Z" fill="#0E230A"/>
</g>
<defs>
<filter id="filter0_d_453_1996" x="0.725586" y="0.588379" width="154.341" height="155.7" filterUnits="userSpaceOnUse" color-interpolation-filters="sRGB">
<feFlood flood-opacity="0" result="BackgroundImageFix"/>
<feColorMatrix in="SourceAlpha" type="matrix" values="0 0 0 0 0 0 0 0 0 0 0 0 0 0 0 0 0 0 127 0" result="hardAlpha"/>
<feOffset dy="4"/>
<feGaussianBlur stdDeviation="2"/>
<feComposite in2="hardAlpha" operator="out"/>
<feColorMatrix type="matrix" values="0 0 0 0 0 0 0 0 0 0 0 0 0 0 0 0 0 0 0.25 0"/>
<feBlend mode="normal" in2="BackgroundImageFix" result="effect1_dropShadow_453_1996"/>
<feBlend mode="normal" in="SourceGraphic" in2="effect1_dropShadow_453_1996" result="shape"/>
</filter>
</defs>
</svg>
