<svg width="155" height="171" viewBox="0 0 155 171" fill="none" xmlns="http://www.w3.org/2000/svg">
<g filter="url(#filter0_d_453_2008)">
<path d="M63.1956 128.89V83.6072H92.4637V128.89H129.049V68.5129H151L77.8296 0.588379L4.6593 68.5129H26.6104V128.89H63.1956Z" fill="#0E230A" fill-opacity="0.6"/>
<path d="M63.8433 147.568V148.088H59.0233V147.568L60.1233 147.448C60.3367 147.422 60.4633 147.368 60.5033 147.288C60.5433 147.208 60.5633 146.935 60.5633 146.468V141.548H54.5233V146.468C54.5233 146.935 54.5433 147.208 54.5833 147.288C54.6233 147.368 54.75 147.422 54.9633 147.448L56.0633 147.568V148.088H51.2433V147.568L52.3433 147.448C52.5567 147.422 52.6833 147.368 52.7233 147.288C52.7633 147.208 52.7833 146.935 52.7833 146.468V136.108C52.7833 135.642 52.7633 135.368 52.7233 135.288C52.6833 135.208 52.5567 135.155 52.3433 135.128L51.2433 135.028V134.488H56.0633V135.028L54.9633 135.128C54.75 135.155 54.6233 135.208 54.5833 135.288C54.5433 135.368 54.5233 135.642 54.5233 136.108V140.908H60.5633V136.108C60.5633 135.642 60.5433 135.368 60.5033 135.288C60.4633 135.208 60.3367 135.155 60.1233 135.128L59.0233 135.028V134.488H63.8433V135.028L62.7433 135.128C62.53 135.155 62.4033 135.208 62.3633 135.288C62.3233 135.368 62.3033 135.642 62.3033 136.108V146.468C62.3033 146.935 62.3233 147.208 62.3633 147.288C62.4033 147.368 62.53 147.422 62.7433 147.448L63.8433 147.568ZM74.6951 142.928V143.328C74.6951 144.835 74.3151 146.042 73.5551 146.948C72.8084 147.842 71.7417 148.288 70.3551 148.288C68.9817 148.288 67.9151 147.842 67.1551 146.948C66.4084 146.042 66.0351 144.835 66.0351 143.328V142.928C66.0351 141.435 66.4084 140.242 67.1551 139.348C67.9017 138.442 68.9684 137.988 70.3551 137.988C71.7417 137.988 72.8084 138.442 73.5551 139.348C74.3151 140.242 74.6951 141.435 74.6951 142.928ZM72.8951 142.528C72.8951 141.142 72.6751 140.148 72.2351 139.548C71.8084 138.935 71.1817 138.628 70.3551 138.628C69.5417 138.628 68.9151 138.935 68.4751 139.548C68.0484 140.148 67.8351 141.142 67.8351 142.528V143.728C67.8351 145.128 68.0484 146.135 68.4751 146.748C68.9151 147.348 69.5417 147.648 70.3551 147.648C71.1817 147.648 71.8084 147.348 72.2351 146.748C72.6751 146.135 72.8951 145.128 72.8951 143.728V142.528ZM87.6079 147.568V148.088H82.8879V147.568L83.9879 147.448C84.2012 147.422 84.3279 147.368 84.3679 147.288C84.4079 147.208 84.4279 146.935 84.4279 146.468V141.488C84.4279 140.502 84.2745 139.808 83.9679 139.408C83.6745 138.995 83.2412 138.788 82.6679 138.788C82.2545 138.788 81.7879 138.922 81.2679 139.188C80.7612 139.455 80.2745 139.968 79.8079 140.728V146.468C79.8079 146.935 79.8279 147.208 79.8679 147.288C79.9079 147.368 80.0345 147.422 80.2479 147.448L81.3479 147.568V148.088H76.6279V147.568L77.7279 147.448C77.9412 147.422 78.0679 147.368 78.1079 147.288C78.1479 147.208 78.1679 146.935 78.1679 146.468V139.808C78.1679 139.342 78.1479 139.068 78.1079 138.988C78.0679 138.908 77.9412 138.855 77.7279 138.828L76.6279 138.728V138.188H79.7079V139.808C80.1745 139.182 80.7012 138.722 81.2879 138.428C81.8879 138.135 82.4812 137.988 83.0679 137.988C84.5079 137.988 85.4345 138.648 85.8479 139.968C86.3412 139.275 86.8879 138.775 87.4879 138.468C88.1012 138.148 88.7145 137.988 89.3279 137.988C90.2745 137.988 91.0079 138.295 91.5279 138.908C92.0612 139.508 92.3279 140.362 92.3279 141.468V146.468C92.3279 146.935 92.3479 147.208 92.3879 147.288C92.4279 147.368 92.5545 147.422 92.7679 147.448L93.8679 147.568V148.088H89.1479V147.568L90.2479 147.448C90.4612 147.422 90.5879 147.368 90.6279 147.288C90.6679 147.208 90.6879 146.935 90.6879 146.468V141.488C90.6879 140.502 90.5345 139.808 90.2279 139.408C89.9345 138.995 89.5012 138.788 88.9279 138.788C88.5145 138.788 88.0412 138.928 87.5079 139.208C86.9879 139.475 86.4945 140.002 86.0279 140.788C86.0412 140.895 86.0479 141.008 86.0479 141.128C86.0612 141.235 86.0679 141.348 86.0679 141.468V146.468C86.0679 146.935 86.0879 147.208 86.1279 147.288C86.1679 147.368 86.2945 147.422 86.5079 147.448L87.6079 147.568ZM103.546 145.808C103.306 146.715 102.853 147.355 102.186 147.728C101.533 148.102 100.806 148.288 100.006 148.288C98.5263 148.288 97.4196 147.842 96.6863 146.948C95.953 146.042 95.5863 144.835 95.5863 143.328V142.928C95.5863 141.435 95.9396 140.242 96.6463 139.348C97.353 138.442 98.3796 137.988 99.7263 137.988C100.446 137.988 101.1 138.135 101.686 138.428C102.286 138.722 102.76 139.155 103.106 139.728C103.466 140.302 103.646 141.015 103.646 141.868C103.646 142.268 103.606 142.688 103.526 143.128H97.3863V143.728C97.3863 145.128 97.5996 146.135 98.0263 146.748C98.4663 147.348 99.173 147.648 100.146 147.648C100.76 147.648 101.266 147.488 101.666 147.168C102.08 146.848 102.353 146.295 102.486 145.508L103.546 145.808ZM99.7263 138.628C98.9396 138.628 98.353 138.928 97.9663 139.528C97.5796 140.128 97.3863 141.115 97.3863 142.488H101.886V142.428C101.913 142.255 101.933 142.088 101.946 141.928C101.96 141.755 101.966 141.602 101.966 141.468C101.966 140.468 101.76 139.748 101.346 139.308C100.933 138.855 100.393 138.628 99.7263 138.628Z" fill="#0E230A" fill-opacity="0.6"/>
</g>
<defs>
<filter id="filter0_d_453_2008" x="0.659302" y="0.588379" width="154.341" height="155.7" filterUnits="userSpaceOnUse" color-interpolation-filters="sRGB">
<feFlood flood-opacity="0" result="BackgroundImageFix"/>
<feColorMatrix in="SourceAlpha" type="matrix" values="0 0 0 0 0 0 0 0 0 0 0 0 0 0 0 0 0 0 127 0" result="hardAlpha"/>
<feOffset dy="4"/>
<feGaussianBlur stdDeviation="2"/>
<feComposite in2="hardAlpha" operator="out"/>
<feColorMatrix type="matrix" values="0 0 0 0 0 0 0 0 0 0 0 0 0 0 0 0 0 0 0.25 0"/>
<feBlend mode="normal" in2="BackgroundImageFix" result="effect1_dropShadow_453_2008"/>
<feBlend mode="normal" in="SourceGraphic" in2="effect1_dropShadow_453_2008" result="shape"/>
</filter>
</defs>
</svg>
