<svg width="55" height="59" viewBox="0 0 55 59" fill="none" xmlns="http://www.w3.org/2000/svg">
<g filter="url(#filter0_d_262_298)">
<path d="M22.4684 39.2453V25.394H31.7026V39.2453H43.2453V20.7769H50.1709L27.0855 0L4 20.7769H10.9256V39.2453H22.4684Z" fill="#0E230A"/>
<path d="M19.4565 49.714V50H16.8055V49.714L17.4105 49.648C17.5279 49.6333 17.5975 49.604 17.6195 49.56C17.6415 49.516 17.6525 49.3657 17.6525 49.109V46.403H14.3305V49.109C14.3305 49.3657 14.3415 49.516 14.3635 49.56C14.3855 49.604 14.4552 49.6333 14.5725 49.648L15.1775 49.714V50H12.5265V49.714L13.1315 49.648C13.2489 49.6333 13.3185 49.604 13.3405 49.56C13.3625 49.516 13.3735 49.3657 13.3735 49.109V43.411C13.3735 43.1543 13.3625 43.004 13.3405 42.96C13.3185 42.916 13.2489 42.8867 13.1315 42.872L12.5265 42.817V42.52H15.1775V42.817L14.5725 42.872C14.4552 42.8867 14.3855 42.916 14.3635 42.96C14.3415 43.004 14.3305 43.1543 14.3305 43.411V46.051H17.6525V43.411C17.6525 43.1543 17.6415 43.004 17.6195 42.96C17.5975 42.916 17.5279 42.8867 17.4105 42.872L16.8055 42.817V42.52H19.4565V42.817L18.8515 42.872C18.7342 42.8867 18.6645 42.916 18.6425 42.96C18.6205 43.004 18.6095 43.1543 18.6095 43.411V49.109C18.6095 49.3657 18.6205 49.516 18.6425 49.56C18.6645 49.604 18.7342 49.6333 18.8515 49.648L19.4565 49.714ZM25.425 47.162V47.382C25.425 48.2107 25.216 48.8743 24.798 49.373C24.3873 49.8643 23.8006 50.11 23.038 50.11C22.2826 50.11 21.696 49.8643 21.278 49.373C20.8673 48.8743 20.662 48.2107 20.662 47.382V47.162C20.662 46.3407 20.8673 45.6843 21.278 45.193C21.6886 44.6943 22.2753 44.445 23.038 44.445C23.8006 44.445 24.3873 44.6943 24.798 45.193C25.216 45.6843 25.425 46.3407 25.425 47.162ZM24.435 46.942C24.435 46.1793 24.314 45.633 24.072 45.303C23.8373 44.9657 23.4926 44.797 23.038 44.797C22.5906 44.797 22.246 44.9657 22.004 45.303C21.7693 45.633 21.652 46.1793 21.652 46.942V47.602C21.652 48.372 21.7693 48.9257 22.004 49.263C22.246 49.593 22.5906 49.758 23.038 49.758C23.4926 49.758 23.8373 49.593 24.072 49.263C24.314 48.9257 24.435 48.372 24.435 47.602V46.942ZM32.527 49.714V50H29.931V49.714L30.536 49.648C30.6534 49.6333 30.723 49.604 30.745 49.56C30.767 49.516 30.778 49.3657 30.778 49.109V46.37C30.778 45.8273 30.6937 45.446 30.525 45.226C30.3637 44.9987 30.1254 44.885 29.81 44.885C29.5827 44.885 29.326 44.9583 29.04 45.105C28.7614 45.2517 28.4937 45.534 28.237 45.952V49.109C28.237 49.3657 28.248 49.516 28.27 49.56C28.292 49.604 28.3617 49.6333 28.479 49.648L29.084 49.714V50H26.488V49.714L27.093 49.648C27.2104 49.6333 27.28 49.604 27.302 49.56C27.324 49.516 27.335 49.3657 27.335 49.109V45.446C27.335 45.1893 27.324 45.039 27.302 44.995C27.28 44.951 27.2104 44.9217 27.093 44.907L26.488 44.852V44.555H28.182V45.446C28.4387 45.1013 28.7284 44.8483 29.051 44.687C29.381 44.5257 29.7074 44.445 30.03 44.445C30.822 44.445 31.3317 44.808 31.559 45.534C31.8304 45.1527 32.131 44.8777 32.461 44.709C32.7984 44.533 33.1357 44.445 33.473 44.445C33.9937 44.445 34.397 44.6137 34.683 44.951C34.9764 45.281 35.123 45.7503 35.123 46.359V49.109C35.123 49.3657 35.134 49.516 35.156 49.56C35.178 49.604 35.2477 49.6333 35.365 49.648L35.97 49.714V50H33.374V49.714L33.979 49.648C34.0964 49.6333 34.166 49.604 34.188 49.56C34.21 49.516 34.221 49.3657 34.221 49.109V46.37C34.221 45.8273 34.1367 45.446 33.968 45.226C33.8067 44.9987 33.5684 44.885 33.253 44.885C33.0257 44.885 32.7654 44.962 32.472 45.116C32.186 45.2627 31.9147 45.5523 31.658 45.985C31.6654 46.0437 31.669 46.106 31.669 46.172C31.6764 46.2307 31.68 46.293 31.68 46.359V49.109C31.68 49.3657 31.691 49.516 31.713 49.56C31.735 49.604 31.8047 49.6333 31.922 49.648L32.527 49.714ZM41.2932 48.746C41.1612 49.2447 40.9118 49.5967 40.5452 49.802C40.1858 50.0073 39.7862 50.11 39.3462 50.11C38.5322 50.11 37.9235 49.8643 37.5202 49.373C37.1168 48.8743 36.9152 48.2107 36.9152 47.382V47.162C36.9152 46.3407 37.1095 45.6843 37.4982 45.193C37.8868 44.6943 38.4515 44.445 39.1922 44.445C39.5882 44.445 39.9475 44.5257 40.2702 44.687C40.6002 44.8483 40.8605 45.0867 41.0512 45.402C41.2492 45.7173 41.3482 46.1097 41.3482 46.579C41.3482 46.799 41.3262 47.03 41.2822 47.272H37.9052V47.602C37.9052 48.372 38.0225 48.9257 38.2572 49.263C38.4992 49.593 38.8878 49.758 39.4232 49.758C39.7605 49.758 40.0392 49.67 40.2592 49.494C40.4865 49.318 40.6368 49.0137 40.7102 48.581L41.2932 48.746ZM39.1922 44.797C38.7595 44.797 38.4368 44.962 38.2242 45.292C38.0115 45.622 37.9052 46.1647 37.9052 46.92H40.3802V46.887C40.3948 46.7917 40.4058 46.7 40.4132 46.612C40.4205 46.5167 40.4242 46.4323 40.4242 46.359C40.4242 45.809 40.3105 45.413 40.0832 45.171C39.8558 44.9217 39.5588 44.797 39.1922 44.797Z" fill="#0E230A"/>
</g>
<defs>
<filter id="filter0_d_262_298" x="0" y="0" width="54.1709" height="58.11" filterUnits="userSpaceOnUse" color-interpolation-filters="sRGB">
<feFlood flood-opacity="0" result="BackgroundImageFix"/>
<feColorMatrix in="SourceAlpha" type="matrix" values="0 0 0 0 0 0 0 0 0 0 0 0 0 0 0 0 0 0 127 0" result="hardAlpha"/>
<feOffset dy="4"/>
<feGaussianBlur stdDeviation="2"/>
<feComposite in2="hardAlpha" operator="out"/>
<feColorMatrix type="matrix" values="0 0 0 0 0 0 0 0 0 0 0 0 0 0 0 0 0 0 0.25 0"/>
<feBlend mode="normal" in2="BackgroundImageFix" result="effect1_dropShadow_262_298"/>
<feBlend mode="normal" in="SourceGraphic" in2="effect1_dropShadow_262_298" result="shape"/>
</filter>
</defs>
</svg>
