<svg width="163" height="171" viewBox="0 0 163 171" fill="none" xmlns="http://www.w3.org/2000/svg">
<g filter="url(#filter0_d_453_1999)">
<path d="M44.4201 134.488H55.0601V137.748H54.5401L53.9601 135.648C53.9201 135.488 53.8734 135.375 53.8201 135.308C53.7801 135.228 53.6934 135.182 53.5601 135.168C53.4268 135.142 53.2001 135.128 52.8801 135.128H50.6201V146.468C50.6201 146.935 50.6401 147.208 50.6801 147.288C50.7201 147.368 50.8468 147.422 51.0601 147.448L52.1601 147.568V148.088H47.3401V147.568L48.4401 147.448C48.6534 147.422 48.7801 147.368 48.8201 147.288C48.8601 147.208 48.8801 146.935 48.8801 146.468V135.128H46.6001C46.2934 135.128 46.0668 135.142 45.9201 135.168C45.7868 135.182 45.6934 135.228 45.6401 135.308C45.6001 135.375 45.5601 135.488 45.5201 135.648L44.9401 137.748H44.4201V134.488ZM56.032 138.728V138.188H59.112V139.788C59.5786 139.162 60.0453 138.708 60.512 138.428C60.992 138.135 61.4786 137.988 61.972 137.988C62.3986 137.988 62.7986 138.115 63.172 138.368C63.5453 138.622 63.8586 139.028 64.112 139.588L62.812 140.368C62.612 139.888 62.3853 139.555 62.132 139.368C61.8786 139.182 61.5986 139.088 61.292 139.088C60.9586 139.088 60.6253 139.195 60.292 139.408C59.972 139.622 59.612 140.022 59.212 140.608V146.468C59.212 146.935 59.232 147.215 59.272 147.308C59.312 147.388 59.4386 147.435 59.652 147.448L61.152 147.568V148.088H56.032V147.568L57.132 147.448C57.3453 147.422 57.472 147.368 57.512 147.288C57.552 147.208 57.572 146.935 57.572 146.468V139.808C57.572 139.342 57.552 139.068 57.512 138.988C57.472 138.908 57.3453 138.855 57.132 138.828L56.032 138.728ZM73.2239 145.808C72.9839 146.715 72.5305 147.355 71.8639 147.728C71.2105 148.102 70.4839 148.288 69.6839 148.288C68.2039 148.288 67.0972 147.842 66.3639 146.948C65.6305 146.042 65.2639 144.835 65.2639 143.328V142.928C65.2639 141.435 65.6172 140.242 66.3239 139.348C67.0305 138.442 68.0572 137.988 69.4039 137.988C70.1239 137.988 70.7772 138.135 71.3639 138.428C71.9639 138.722 72.4372 139.155 72.7839 139.728C73.1439 140.302 73.3239 141.015 73.3239 141.868C73.3239 142.268 73.2839 142.688 73.2039 143.128H67.0639V143.728C67.0639 145.128 67.2772 146.135 67.7039 146.748C68.1439 147.348 68.8505 147.648 69.8239 147.648C70.4372 147.648 70.9439 147.488 71.3439 147.168C71.7572 146.848 72.0305 146.295 72.1639 145.508L73.2239 145.808ZM69.4039 138.628C68.6172 138.628 68.0305 138.928 67.6439 139.528C67.2572 140.128 67.0639 141.115 67.0639 142.488H71.5639V142.428C71.5905 142.255 71.6105 142.088 71.6239 141.928C71.6372 141.755 71.6439 141.602 71.6439 141.468C71.6439 140.468 71.4372 139.748 71.0239 139.308C70.6105 138.855 70.0705 138.628 69.4039 138.628ZM83.7317 145.808C83.4917 146.715 83.0383 147.355 82.3717 147.728C81.7183 148.102 80.9917 148.288 80.1917 148.288C78.7117 148.288 77.605 147.842 76.8717 146.948C76.1383 146.042 75.7717 144.835 75.7717 143.328V142.928C75.7717 141.435 76.125 140.242 76.8317 139.348C77.5383 138.442 78.565 137.988 79.9117 137.988C80.6317 137.988 81.285 138.135 81.8717 138.428C82.4717 138.722 82.945 139.155 83.2917 139.728C83.6517 140.302 83.8317 141.015 83.8317 141.868C83.8317 142.268 83.7917 142.688 83.7117 143.128H77.5717V143.728C77.5717 145.128 77.785 146.135 78.2117 146.748C78.6517 147.348 79.3583 147.648 80.3317 147.648C80.945 147.648 81.4517 147.488 81.8517 147.168C82.265 146.848 82.5383 146.295 82.6717 145.508L83.7317 145.808ZM79.9117 138.628C79.125 138.628 78.5383 138.928 78.1517 139.528C77.765 140.128 77.5717 141.115 77.5717 142.488H82.0717V142.428C82.0983 142.255 82.1183 142.088 82.1317 141.928C82.145 141.755 82.1517 141.602 82.1517 141.468C82.1517 140.468 81.945 139.748 81.5317 139.308C81.1183 138.855 80.5783 138.628 79.9117 138.628ZM90.1107 133.828V133.288H93.2907V146.468C93.2907 146.935 93.3107 147.208 93.3507 147.288C93.3907 147.368 93.5174 147.422 93.7307 147.448L94.8307 147.568V148.088H90.1107V147.568L91.2107 147.448C91.4241 147.422 91.5507 147.368 91.5907 147.288C91.6307 147.208 91.6507 146.935 91.6507 146.468V134.908C91.6507 134.442 91.6307 134.168 91.5907 134.088C91.5507 134.008 91.4241 133.955 91.2107 133.928L90.1107 133.828ZM98.4501 135.948C98.1301 135.948 97.8634 135.848 97.6501 135.648C97.4501 135.435 97.3501 135.162 97.3501 134.828C97.3501 134.508 97.4501 134.248 97.6501 134.048C97.8634 133.848 98.1301 133.748 98.4501 133.748C98.7701 133.748 99.0301 133.848 99.2301 134.048C99.4434 134.248 99.5501 134.508 99.5501 134.828C99.5501 135.162 99.4434 135.435 99.2301 135.648C99.0301 135.848 98.7701 135.948 98.4501 135.948ZM96.1101 138.728V138.188H99.2901V146.468C99.2901 146.935 99.3101 147.208 99.3501 147.288C99.3901 147.368 99.5168 147.422 99.7301 147.448L100.83 147.568V148.088H96.1101V147.568L97.2101 147.448C97.4234 147.422 97.5501 147.368 97.5901 147.288C97.6301 147.208 97.6501 146.935 97.6501 146.468V139.808C97.6501 139.342 97.6301 139.068 97.5901 138.988C97.5501 138.908 97.4234 138.855 97.2101 138.828L96.1101 138.728ZM106.307 144.048L105.087 143.748C103.42 143.322 102.587 142.362 102.587 140.868C102.587 140.375 102.7 139.908 102.927 139.468C103.153 139.028 103.513 138.675 104.007 138.408C104.513 138.128 105.16 137.988 105.947 137.988C106.827 137.988 107.533 138.135 108.067 138.428C108.6 138.722 108.973 139.102 109.187 139.568C109.4 140.035 109.467 140.542 109.387 141.088L107.827 141.368C107.987 140.502 107.893 139.828 107.547 139.348C107.213 138.868 106.66 138.628 105.887 138.628C105.287 138.628 104.807 138.782 104.447 139.088C104.087 139.382 103.907 139.815 103.907 140.388C103.907 140.815 104.04 141.195 104.307 141.528C104.573 141.848 105.02 142.088 105.647 142.248L106.907 142.548C107.787 142.762 108.467 143.102 108.947 143.568C109.44 144.035 109.687 144.648 109.687 145.408C109.687 146.262 109.373 146.955 108.747 147.488C108.133 148.022 107.253 148.288 106.107 148.288C105.56 148.288 105.027 148.208 104.507 148.048C104 147.875 103.553 147.608 103.167 147.248C102.793 146.875 102.52 146.395 102.347 145.808L103.467 145.408C103.613 146.248 103.933 146.835 104.427 147.168C104.92 147.502 105.487 147.668 106.127 147.668C106.5 147.668 106.853 147.608 107.187 147.488C107.533 147.368 107.813 147.182 108.027 146.928C108.24 146.662 108.347 146.322 108.347 145.908C108.347 145.482 108.2 145.115 107.907 144.808C107.613 144.502 107.08 144.248 106.307 144.048ZM118.159 146.048C117.959 146.822 117.646 147.388 117.219 147.748C116.793 148.108 116.246 148.288 115.579 148.288C114.939 148.288 114.419 148.148 114.019 147.868C113.619 147.575 113.326 147.195 113.139 146.728C112.953 146.262 112.859 145.775 112.859 145.268V139.808C112.859 139.342 112.839 139.068 112.799 138.988C112.773 138.908 112.646 138.855 112.419 138.828L111.319 138.728V138.188H112.859V135.568L114.499 135.228V138.188H117.759V138.828H114.499V145.428C114.499 146.268 114.613 146.848 114.839 147.168C115.079 147.488 115.393 147.648 115.779 147.648C116.166 147.648 116.459 147.502 116.659 147.208C116.873 146.915 117.026 146.435 117.119 145.768L118.159 146.048Z" fill="#0E230A" fill-opacity="0.6"/>
<path d="M90.5389 95.7799H158.355V107.836H90.5389V95.7799ZM99.777 84.2059L99.7318 84.2813C99.0453 85.521 98.2484 86.6962 97.3507 87.7926H158.37V77.8462H102.128C101.694 80.0772 100.905 82.2243 99.7921 84.2059H99.777ZM101.601 68.804H158.446V58.5562H106.634C106.137 59.8071 105.579 61.088 104.961 62.3841C104.162 64.087 103.092 66.1818 101.601 68.804V68.804ZM102.128 77.8462C102.188 77.4695 102.233 77.1229 102.279 76.8064C102.233 77.153 102.173 77.4996 102.113 77.8462H102.128ZM101.585 68.804L101.163 69.5425L101.601 68.804H101.585ZM106.935 57.8027H106.92C106.907 57.8651 106.887 57.9257 106.86 57.9835L106.935 57.8027ZM75.6494 107.836H87.7057V95.7799H75.6494V107.836ZM101.163 69.5576C102.294 71.7578 102.58 74.2595 102.279 76.8214C102.233 76.6707 90.5389 76.8064 90.5389 76.8064V88.8626C90.5389 88.8626 96.2807 89.0133 96.4163 88.8626C96.552 88.7119 97.0493 88.1543 97.3356 87.8077H97.3507C96.2895 89.1147 95.0695 90.2841 93.7187 91.289C87.4947 95.8251 74.7754 91.8164 69.1843 84.9444C66.6584 99.4672 66.5108 114.304 68.7472 128.874C68.8226 128.935 54.0989 128.889 54.0989 128.889C56.2818 116.83 57.2361 104.581 56.9472 92.3288C53.059 95.8854 46.5336 96.1868 42.8866 93.218C31.614 94.3633 19.9043 89.6011 12.6254 80.9055C5.3464 72.2099 2.72416 59.8372 5.84372 48.9414C8.96328 38.0455 17.7191 28.928 28.4793 25.4015C28.4793 25.4015 28.2834 26.5619 28.5698 26.1701C30.0617 12.9384 41.8316 1.62056 55.1086 0.656057C68.3855 -0.308443 81.6625 9.14065 84.8875 22.3121C95.1203 22.9451 103.575 26.8332 107.87 39.9594C109.859 45.9876 109.196 51.7294 106.92 57.8027C106.755 57.7123 90.5389 57.8027 90.5389 57.8027V69.859C90.5389 69.859 101.118 69.648 101.163 69.5576ZM87.7057 76.7913H75.6494V88.8476H87.7057V76.7913ZM87.7057 57.8027H75.6494V69.859H87.7057V57.8027ZM106.634 58.5562L106.86 57.9835C106.785 58.1644 106.709 58.3452 106.634 58.5562ZM99.777 84.2059H99.7921C100.892 82.1865 101.721 80.0164 102.113 77.8462H91.0814V87.7926H97.3356C98.2389 86.6971 99.041 85.5218 99.7318 84.2813L99.777 84.2059ZM106.634 58.5562H91.2321V68.804H101.585C102.836 66.5887 103.967 64.4638 104.961 62.3841C105.7 60.8168 106.227 59.5659 106.634 58.5562V58.5562ZM86.5905 77.7558H76.5537V87.7926H86.5905V77.7558ZM86.7412 58.7672H76.7044V68.804H86.7412V58.7672Z" fill="#0E230A" fill-opacity="0.6"/>
</g>
<defs>
<filter id="filter0_d_453_1999" x="0.549927" y="0.588379" width="161.896" height="155.7" filterUnits="userSpaceOnUse" color-interpolation-filters="sRGB">
<feFlood flood-opacity="0" result="BackgroundImageFix"/>
<feColorMatrix in="SourceAlpha" type="matrix" values="0 0 0 0 0 0 0 0 0 0 0 0 0 0 0 0 0 0 127 0" result="hardAlpha"/>
<feOffset dy="4"/>
<feGaussianBlur stdDeviation="2"/>
<feComposite in2="hardAlpha" operator="out"/>
<feColorMatrix type="matrix" values="0 0 0 0 0 0 0 0 0 0 0 0 0 0 0 0 0 0 0.25 0"/>
<feBlend mode="normal" in2="BackgroundImageFix" result="effect1_dropShadow_453_1999"/>
<feBlend mode="normal" in="SourceGraphic" in2="effect1_dropShadow_453_1999" result="shape"/>
</filter>
</defs>
</svg>
