<svg width="56" height="59" viewBox="0 0 56 59" fill="none" xmlns="http://www.w3.org/2000/svg">
<g filter="url(#filter0_d_262_405)">
<path d="M7.143 42.52H12.995V44.313H12.709L12.39 43.158C12.368 43.07 12.3423 43.0077 12.313 42.971C12.291 42.927 12.2433 42.9013 12.17 42.894C12.0967 42.8793 11.972 42.872 11.796 42.872H10.553V49.109C10.553 49.3657 10.564 49.516 10.586 49.56C10.608 49.604 10.6777 49.6333 10.795 49.648L11.4 49.714V50H8.749V49.714L9.354 49.648C9.47133 49.6333 9.541 49.604 9.563 49.56C9.585 49.516 9.596 49.3657 9.596 49.109V42.872H8.342C8.17333 42.872 8.04867 42.8793 7.968 42.894C7.89467 42.9013 7.84333 42.927 7.814 42.971C7.792 43.0077 7.77 43.07 7.748 43.158L7.429 44.313H7.143V42.52ZM13.5295 44.852V44.555H15.2235V45.435C15.4802 45.0903 15.7369 44.841 15.9935 44.687C16.2575 44.5257 16.5252 44.445 16.7965 44.445C17.0312 44.445 17.2512 44.5147 17.4565 44.654C17.6619 44.7933 17.8342 45.017 17.9735 45.325L17.2585 45.754C17.1485 45.49 17.0239 45.3067 16.8845 45.204C16.7452 45.1013 16.5912 45.05 16.4225 45.05C16.2392 45.05 16.0559 45.1087 15.8725 45.226C15.6965 45.3433 15.4985 45.5633 15.2785 45.886V49.109C15.2785 49.3657 15.2895 49.5197 15.3115 49.571C15.3335 49.615 15.4032 49.6407 15.5205 49.648L16.3455 49.714V50H13.5295V49.714L14.1345 49.648C14.2519 49.6333 14.3215 49.604 14.3435 49.56C14.3655 49.516 14.3765 49.3657 14.3765 49.109V45.446C14.3765 45.1893 14.3655 45.039 14.3435 44.995C14.3215 44.951 14.2519 44.9217 14.1345 44.907L13.5295 44.852ZM22.9851 48.746C22.8531 49.2447 22.6037 49.5967 22.2371 49.802C21.8777 50.0073 21.4781 50.11 21.0381 50.11C20.2241 50.11 19.6154 49.8643 19.2121 49.373C18.8087 48.8743 18.6071 48.2107 18.6071 47.382V47.162C18.6071 46.3407 18.8014 45.6843 19.1901 45.193C19.5787 44.6943 20.1434 44.445 20.8841 44.445C21.2801 44.445 21.6394 44.5257 21.9621 44.687C22.2921 44.8483 22.5524 45.0867 22.7431 45.402C22.9411 45.7173 23.0401 46.1097 23.0401 46.579C23.0401 46.799 23.0181 47.03 22.9741 47.272H19.5971V47.602C19.5971 48.372 19.7144 48.9257 19.9491 49.263C20.1911 49.593 20.5797 49.758 21.1151 49.758C21.4524 49.758 21.7311 49.67 21.9511 49.494C22.1784 49.318 22.3287 49.0137 22.4021 48.581L22.9851 48.746ZM20.8841 44.797C20.4514 44.797 20.1287 44.962 19.9161 45.292C19.7034 45.622 19.5971 46.1647 19.5971 46.92H22.0721V46.887C22.0867 46.7917 22.0977 46.7 22.1051 46.612C22.1124 46.5167 22.1161 46.4323 22.1161 46.359C22.1161 45.809 22.0024 45.413 21.7751 45.171C21.5477 44.9217 21.2507 44.797 20.8841 44.797ZM28.7644 48.746C28.6324 49.2447 28.383 49.5967 28.0164 49.802C27.657 50.0073 27.2574 50.11 26.8174 50.11C26.0034 50.11 25.3947 49.8643 24.9914 49.373C24.588 48.8743 24.3864 48.2107 24.3864 47.382V47.162C24.3864 46.3407 24.5807 45.6843 24.9694 45.193C25.358 44.6943 25.9227 44.445 26.6634 44.445C27.0594 44.445 27.4187 44.5257 27.7414 44.687C28.0714 44.8483 28.3317 45.0867 28.5224 45.402C28.7204 45.7173 28.8194 46.1097 28.8194 46.579C28.8194 46.799 28.7974 47.03 28.7534 47.272H25.3764V47.602C25.3764 48.372 25.4937 48.9257 25.7284 49.263C25.9704 49.593 26.359 49.758 26.8944 49.758C27.2317 49.758 27.5104 49.67 27.7304 49.494C27.9577 49.318 28.108 49.0137 28.1814 48.581L28.7644 48.746ZM26.6634 44.797C26.2307 44.797 25.908 44.962 25.6954 45.292C25.4827 45.622 25.3764 46.1647 25.3764 46.92H27.8514V46.887C27.866 46.7917 27.877 46.7 27.8844 46.612C27.8917 46.5167 27.8954 46.4323 27.8954 46.359C27.8954 45.809 27.7817 45.413 27.5544 45.171C27.327 44.9217 27.03 44.797 26.6634 44.797ZM32.2728 42.157V41.86H34.0218V49.109C34.0218 49.3657 34.0328 49.516 34.0548 49.56C34.0768 49.604 34.1465 49.6333 34.2638 49.648L34.8688 49.714V50H32.2728V49.714L32.8778 49.648C32.9952 49.6333 33.0648 49.604 33.0868 49.56C33.1088 49.516 33.1198 49.3657 33.1198 49.109V42.751C33.1198 42.4943 33.1088 42.344 33.0868 42.3C33.0648 42.256 32.9952 42.2267 32.8778 42.212L32.2728 42.157ZM36.8595 43.323C36.6835 43.323 36.5368 43.268 36.4195 43.158C36.3095 43.0407 36.2545 42.8903 36.2545 42.707C36.2545 42.531 36.3095 42.388 36.4195 42.278C36.5368 42.168 36.6835 42.113 36.8595 42.113C37.0355 42.113 37.1785 42.168 37.2885 42.278C37.4058 42.388 37.4645 42.531 37.4645 42.707C37.4645 42.8903 37.4058 43.0407 37.2885 43.158C37.1785 43.268 37.0355 43.323 36.8595 43.323ZM35.5725 44.852V44.555H37.3215V49.109C37.3215 49.3657 37.3325 49.516 37.3545 49.56C37.3765 49.604 37.4462 49.6333 37.5635 49.648L38.1685 49.714V50H35.5725V49.714L36.1775 49.648C36.2948 49.6333 36.3645 49.604 36.3865 49.56C36.4085 49.516 36.4195 49.3657 36.4195 49.109V45.446C36.4195 45.1893 36.4085 45.039 36.3865 44.995C36.3645 44.951 36.2948 44.9217 36.1775 44.907L35.5725 44.852ZM41.1806 47.778L40.5096 47.613C39.5929 47.3783 39.1346 46.8503 39.1346 46.029C39.1346 45.7577 39.1969 45.501 39.3216 45.259C39.4463 45.017 39.6443 44.8227 39.9156 44.676C40.1943 44.522 40.5499 44.445 40.9826 44.445C41.4666 44.445 41.8553 44.5257 42.1486 44.687C42.4419 44.8483 42.6473 45.0573 42.7646 45.314C42.8819 45.5707 42.9186 45.8493 42.8746 46.15L42.0166 46.304C42.1046 45.8273 42.0533 45.457 41.8626 45.193C41.6793 44.929 41.3749 44.797 40.9496 44.797C40.6196 44.797 40.3556 44.8813 40.1576 45.05C39.9596 45.2113 39.8606 45.4497 39.8606 45.765C39.8606 45.9997 39.9339 46.2087 40.0806 46.392C40.2273 46.568 40.4729 46.7 40.8176 46.788L41.5106 46.953C41.9946 47.0703 42.3686 47.2573 42.6326 47.514C42.9039 47.7707 43.0396 48.108 43.0396 48.526C43.0396 48.9953 42.8673 49.3767 42.5226 49.67C42.1853 49.9633 41.7013 50.11 41.0706 50.11C40.7699 50.11 40.4766 50.066 40.1906 49.978C39.9119 49.8827 39.6663 49.736 39.4536 49.538C39.2483 49.3327 39.0979 49.0687 39.0026 48.746L39.6186 48.526C39.6993 48.988 39.8753 49.3107 40.1466 49.494C40.4179 49.6773 40.7296 49.769 41.0816 49.769C41.2869 49.769 41.4813 49.736 41.6646 49.67C41.8553 49.604 42.0093 49.5013 42.1266 49.362C42.2439 49.2153 42.3026 49.0283 42.3026 48.801C42.3026 48.5663 42.2219 48.3647 42.0606 48.196C41.8993 48.0273 41.6059 47.888 41.1806 47.778ZM47.6996 48.878C47.5896 49.3033 47.4172 49.615 47.1826 49.813C46.9479 50.011 46.6472 50.11 46.2806 50.11C45.9286 50.11 45.6426 50.033 45.4226 49.879C45.2026 49.7177 45.0412 49.5087 44.9386 49.252C44.8359 48.9953 44.7846 48.7277 44.7846 48.449V45.446C44.7846 45.1893 44.7736 45.039 44.7516 44.995C44.7369 44.951 44.6672 44.9217 44.5426 44.907L43.9376 44.852V44.555H44.7846V43.114L45.6866 42.927V44.555H47.4796V44.907H45.6866V48.537C45.6866 48.999 45.7489 49.318 45.8736 49.494C46.0056 49.67 46.1779 49.758 46.3906 49.758C46.6032 49.758 46.7646 49.6773 46.8746 49.516C46.9919 49.3547 47.0762 49.0907 47.1276 48.724L47.6996 48.878Z" fill="#71816D"/>
<path d="M30.3025 29.1174H51.0464V32.8052H30.3025V29.1174ZM33.1283 25.5771L33.1145 25.6002C32.9045 25.9794 32.6607 26.3389 32.3861 26.6742H51.051V23.6318H33.8474C33.7146 24.3142 33.4734 24.971 33.1329 25.5771H33.1283ZM33.6861 20.866H51.074V17.7313H35.2257C35.0736 18.114 34.903 18.5058 34.714 18.9022C34.4697 19.4231 34.1424 20.0639 33.6861 20.866V20.866ZM33.8474 23.6318C33.8658 23.5166 33.8797 23.4105 33.8935 23.3137C33.8797 23.4198 33.8612 23.5258 33.8428 23.6318H33.8474ZM33.6815 20.866L33.5524 21.0918L33.6861 20.866H33.6815ZM35.3179 17.5009H35.3133C35.3093 17.5199 35.3031 17.5385 35.2949 17.5562L35.3179 17.5009ZM25.7481 32.8052H29.4359V29.1174H25.7481V32.8052ZM33.5524 21.0965C33.8981 21.7695 33.9857 22.5347 33.8935 23.3184C33.8797 23.2723 30.3025 23.3137 30.3025 23.3137V27.0015C30.3025 27.0015 32.0588 27.0476 32.1003 27.0015C32.1418 26.9554 32.2939 26.7849 32.3815 26.6789H32.3861C32.0615 27.0786 31.6883 27.4363 31.2752 27.7437C29.3713 29.1312 25.4807 27.905 23.7705 25.803C22.9979 30.2453 22.9527 34.7836 23.6368 39.2404C23.6599 39.2589 19.1562 39.245 19.1562 39.245C19.8239 35.5563 20.1158 31.8094 20.0274 28.0618C18.8381 29.1497 16.8421 29.2419 15.7265 28.3338C12.2784 28.6841 8.69664 27.2274 6.47013 24.5676C4.24363 21.9078 3.44153 18.1232 4.39575 14.7903C5.34997 11.4575 8.02823 8.66858 11.3196 7.5899C11.3196 7.5899 11.2597 7.94485 11.3472 7.825C11.8036 3.77764 15.4038 0.315725 19.465 0.0207016C23.5262 -0.274322 27.5874 2.61599 28.5739 6.64491C31.7039 6.83851 34.2899 8.02783 35.6037 12.0429C36.2122 13.8868 36.0094 15.6431 35.3133 17.5009C35.2626 17.4732 30.3025 17.5009 30.3025 17.5009V21.1887C30.3025 21.1887 33.5386 21.1241 33.5524 21.0965ZM29.4359 23.3091H25.7481V26.9969H29.4359V23.3091ZM29.4359 17.5009H25.7481V21.1887H29.4359V17.5009ZM35.2257 17.7313L35.2949 17.5562C35.2718 17.6115 35.2488 17.6668 35.2257 17.7313ZM33.1283 25.5771H33.1329C33.4694 24.9594 33.7229 24.2956 33.8428 23.6318H30.4685V26.6742H32.3815C32.6578 26.3391 32.9031 25.9796 33.1145 25.6002L33.1283 25.5771ZM35.2257 17.7313H30.5146V20.866H33.6815C34.0641 20.1883 34.4098 19.5384 34.714 18.9022C34.9399 18.4228 35.1013 18.0402 35.2257 17.7313V17.7313ZM29.0948 23.6042H26.0247V26.6742H29.0948V23.6042ZM29.1409 17.7959H26.0708V20.866H29.1409V17.7959Z" fill="#71816D"/>
</g>
<defs>
<filter id="filter0_d_262_405" x="0" y="0" width="55.0742" height="58.11" filterUnits="userSpaceOnUse" color-interpolation-filters="sRGB">
<feFlood flood-opacity="0" result="BackgroundImageFix"/>
<feColorMatrix in="SourceAlpha" type="matrix" values="0 0 0 0 0 0 0 0 0 0 0 0 0 0 0 0 0 0 127 0" result="hardAlpha"/>
<feOffset dy="4"/>
<feGaussianBlur stdDeviation="2"/>
<feComposite in2="hardAlpha" operator="out"/>
<feColorMatrix type="matrix" values="0 0 0 0 0 0 0 0 0 0 0 0 0 0 0 0 0 0 0.25 0"/>
<feBlend mode="normal" in2="BackgroundImageFix" result="effect1_dropShadow_262_405"/>
<feBlend mode="normal" in="SourceGraphic" in2="effect1_dropShadow_262_405" result="shape"/>
</filter>
</defs>
</svg>
