<svg width="163" height="171" viewBox="0 0 163 171" fill="none" xmlns="http://www.w3.org/2000/svg">
<g filter="url(#filter0_d_453_2011)">
<path d="M44.0419 134.488H54.6819V137.748H54.1619L53.5819 135.648C53.5419 135.488 53.4953 135.375 53.4419 135.308C53.4019 135.228 53.3153 135.182 53.1819 135.168C53.0486 135.142 52.8219 135.128 52.5019 135.128H50.2419V146.468C50.2419 146.935 50.2619 147.208 50.3019 147.288C50.3419 147.368 50.4686 147.422 50.6819 147.448L51.7819 147.568V148.088H46.9619V147.568L48.0619 147.448C48.2753 147.422 48.4019 147.368 48.4419 147.288C48.4819 147.208 48.5019 146.935 48.5019 146.468V135.128H46.2219C45.9153 135.128 45.6886 135.142 45.5419 135.168C45.4086 135.182 45.3153 135.228 45.2619 135.308C45.2219 135.375 45.1819 135.488 45.1419 135.648L44.5619 137.748H44.0419V134.488ZM55.6538 138.728V138.188H58.7338V139.788C59.2005 139.162 59.6671 138.708 60.1338 138.428C60.6138 138.135 61.1005 137.988 61.5938 137.988C62.0205 137.988 62.4205 138.115 62.7938 138.368C63.1671 138.622 63.4805 139.028 63.7338 139.588L62.4338 140.368C62.2338 139.888 62.0071 139.555 61.7538 139.368C61.5005 139.182 61.2205 139.088 60.9138 139.088C60.5805 139.088 60.2471 139.195 59.9138 139.408C59.5938 139.622 59.2338 140.022 58.8338 140.608V146.468C58.8338 146.935 58.8538 147.215 58.8938 147.308C58.9338 147.388 59.0605 147.435 59.2738 147.448L60.7738 147.568V148.088H55.6538V147.568L56.7538 147.448C56.9671 147.422 57.0938 147.368 57.1338 147.288C57.1738 147.208 57.1938 146.935 57.1938 146.468V139.808C57.1938 139.342 57.1738 139.068 57.1338 138.988C57.0938 138.908 56.9671 138.855 56.7538 138.828L55.6538 138.728ZM72.8457 145.808C72.6057 146.715 72.1523 147.355 71.4857 147.728C70.8323 148.102 70.1057 148.288 69.3057 148.288C67.8257 148.288 66.719 147.842 65.9857 146.948C65.2523 146.042 64.8857 144.835 64.8857 143.328V142.928C64.8857 141.435 65.239 140.242 65.9457 139.348C66.6523 138.442 67.679 137.988 69.0257 137.988C69.7457 137.988 70.399 138.135 70.9857 138.428C71.5857 138.722 72.059 139.155 72.4057 139.728C72.7657 140.302 72.9457 141.015 72.9457 141.868C72.9457 142.268 72.9057 142.688 72.8257 143.128H66.6857V143.728C66.6857 145.128 66.899 146.135 67.3257 146.748C67.7657 147.348 68.4723 147.648 69.4457 147.648C70.059 147.648 70.5657 147.488 70.9657 147.168C71.379 146.848 71.6523 146.295 71.7857 145.508L72.8457 145.808ZM69.0257 138.628C68.239 138.628 67.6523 138.928 67.2657 139.528C66.879 140.128 66.6857 141.115 66.6857 142.488H71.1857V142.428C71.2123 142.255 71.2323 142.088 71.2457 141.928C71.259 141.755 71.2657 141.602 71.2657 141.468C71.2657 140.468 71.059 139.748 70.6457 139.308C70.2323 138.855 69.6923 138.628 69.0257 138.628ZM83.3535 145.808C83.1135 146.715 82.6602 147.355 81.9935 147.728C81.3402 148.102 80.6135 148.288 79.8135 148.288C78.3335 148.288 77.2268 147.842 76.4935 146.948C75.7602 146.042 75.3935 144.835 75.3935 143.328V142.928C75.3935 141.435 75.7468 140.242 76.4535 139.348C77.1602 138.442 78.1868 137.988 79.5335 137.988C80.2535 137.988 80.9068 138.135 81.4935 138.428C82.0935 138.722 82.5668 139.155 82.9135 139.728C83.2735 140.302 83.4535 141.015 83.4535 141.868C83.4535 142.268 83.4135 142.688 83.3335 143.128H77.1935V143.728C77.1935 145.128 77.4068 146.135 77.8335 146.748C78.2735 147.348 78.9802 147.648 79.9535 147.648C80.5668 147.648 81.0735 147.488 81.4735 147.168C81.8868 146.848 82.1602 146.295 82.2935 145.508L83.3535 145.808ZM79.5335 138.628C78.7468 138.628 78.1602 138.928 77.7735 139.528C77.3868 140.128 77.1935 141.115 77.1935 142.488H81.6935V142.428C81.7202 142.255 81.7402 142.088 81.7535 141.928C81.7668 141.755 81.7735 141.602 81.7735 141.468C81.7735 140.468 81.5668 139.748 81.1535 139.308C80.7402 138.855 80.2002 138.628 79.5335 138.628ZM89.7326 133.828V133.288H92.9126V146.468C92.9126 146.935 92.9326 147.208 92.9726 147.288C93.0126 147.368 93.1392 147.422 93.3526 147.448L94.4526 147.568V148.088H89.7326V147.568L90.8326 147.448C91.0459 147.422 91.1726 147.368 91.2126 147.288C91.2526 147.208 91.2726 146.935 91.2726 146.468V134.908C91.2726 134.442 91.2526 134.168 91.2126 134.088C91.1726 134.008 91.0459 133.955 90.8326 133.928L89.7326 133.828ZM98.0719 135.948C97.7519 135.948 97.4853 135.848 97.2719 135.648C97.0719 135.435 96.9719 135.162 96.9719 134.828C96.9719 134.508 97.0719 134.248 97.2719 134.048C97.4853 133.848 97.7519 133.748 98.0719 133.748C98.3919 133.748 98.6519 133.848 98.8519 134.048C99.0653 134.248 99.1719 134.508 99.1719 134.828C99.1719 135.162 99.0653 135.435 98.8519 135.648C98.6519 135.848 98.3919 135.948 98.0719 135.948ZM95.7319 138.728V138.188H98.9119V146.468C98.9119 146.935 98.9319 147.208 98.9719 147.288C99.0119 147.368 99.1386 147.422 99.3519 147.448L100.452 147.568V148.088H95.7319V147.568L96.8319 147.448C97.0453 147.422 97.1719 147.368 97.2119 147.288C97.2519 147.208 97.2719 146.935 97.2719 146.468V139.808C97.2719 139.342 97.2519 139.068 97.2119 138.988C97.1719 138.908 97.0453 138.855 96.8319 138.828L95.7319 138.728ZM105.928 144.048L104.708 143.748C103.042 143.322 102.208 142.362 102.208 140.868C102.208 140.375 102.322 139.908 102.548 139.468C102.775 139.028 103.135 138.675 103.628 138.408C104.135 138.128 104.782 137.988 105.568 137.988C106.448 137.988 107.155 138.135 107.688 138.428C108.222 138.722 108.595 139.102 108.808 139.568C109.022 140.035 109.088 140.542 109.008 141.088L107.448 141.368C107.608 140.502 107.515 139.828 107.168 139.348C106.835 138.868 106.282 138.628 105.508 138.628C104.908 138.628 104.428 138.782 104.068 139.088C103.708 139.382 103.528 139.815 103.528 140.388C103.528 140.815 103.662 141.195 103.928 141.528C104.195 141.848 104.642 142.088 105.268 142.248L106.528 142.548C107.408 142.762 108.088 143.102 108.568 143.568C109.062 144.035 109.308 144.648 109.308 145.408C109.308 146.262 108.995 146.955 108.368 147.488C107.755 148.022 106.875 148.288 105.728 148.288C105.182 148.288 104.648 148.208 104.128 148.048C103.622 147.875 103.175 147.608 102.788 147.248C102.415 146.875 102.142 146.395 101.968 145.808L103.088 145.408C103.235 146.248 103.555 146.835 104.048 147.168C104.542 147.502 105.108 147.668 105.748 147.668C106.122 147.668 106.475 147.608 106.808 147.488C107.155 147.368 107.435 147.182 107.648 146.928C107.862 146.662 107.968 146.322 107.968 145.908C107.968 145.482 107.822 145.115 107.528 144.808C107.235 144.502 106.702 144.248 105.928 144.048ZM117.781 146.048C117.581 146.822 117.268 147.388 116.841 147.748C116.414 148.108 115.868 148.288 115.201 148.288C114.561 148.288 114.041 148.148 113.641 147.868C113.241 147.575 112.948 147.195 112.761 146.728C112.574 146.262 112.481 145.775 112.481 145.268V139.808C112.481 139.342 112.461 139.068 112.421 138.988C112.394 138.908 112.268 138.855 112.041 138.828L110.941 138.728V138.188H112.481V135.568L114.121 135.228V138.188H117.381V138.828H114.121V145.428C114.121 146.268 114.234 146.848 114.461 147.168C114.701 147.488 115.014 147.648 115.401 147.648C115.788 147.648 116.081 147.502 116.281 147.208C116.494 146.915 116.648 146.435 116.741 145.768L117.781 146.048Z" fill="#0E230A"/>
<path d="M90.1609 95.7799H157.977V107.836H90.1609V95.7799ZM99.399 84.2059L99.3537 84.2813C98.6673 85.521 97.8703 86.6962 96.9726 87.7926H157.992V77.8462H101.75C101.316 80.0772 100.527 82.2243 99.414 84.2059H99.399ZM101.222 68.804H158.068V58.5562H106.256C105.759 59.8071 105.201 61.088 104.583 62.3841C103.784 64.087 102.714 66.1818 101.222 68.804V68.804ZM101.75 77.8462C101.81 77.4695 101.855 77.1229 101.901 76.8064C101.855 77.153 101.795 77.4996 101.735 77.8462H101.75ZM101.207 68.804L100.785 69.5425L101.222 68.804H101.207ZM106.557 57.8027H106.542C106.529 57.8651 106.509 57.9257 106.482 57.9835L106.557 57.8027ZM75.2714 107.836H87.3276V95.7799H75.2714V107.836ZM100.785 69.5576C101.916 71.7578 102.202 74.2595 101.901 76.8214C101.855 76.6707 90.1609 76.8064 90.1609 76.8064V88.8626C90.1609 88.8626 95.9026 89.0133 96.0383 88.8626C96.1739 88.7119 96.6712 88.1543 96.9576 87.8077H96.9726C95.9115 89.1147 94.6914 90.2841 93.3407 91.289C87.1166 95.8251 74.3973 91.8164 68.8062 84.9444C66.2804 99.4672 66.1328 114.304 68.3692 128.874C68.4445 128.935 53.7208 128.889 53.7208 128.889C55.9037 116.83 56.858 104.581 56.5691 92.3288C52.681 95.8854 46.1555 96.1868 42.5085 93.218C31.2359 94.3633 19.5263 89.6011 12.2473 80.9055C4.96835 72.2099 2.34611 59.8372 5.46567 48.9414C8.58522 38.0455 17.3411 28.928 28.1013 25.4015C28.1013 25.4015 27.9054 26.5619 28.1917 26.1701C29.6837 12.9384 41.4536 1.62056 54.7305 0.656057C68.0075 -0.308443 81.2844 9.14065 84.5095 22.3121C94.7422 22.9451 103.197 26.8332 107.492 39.9594C109.481 45.9876 108.818 51.7294 106.542 57.8027C106.377 57.7123 90.1609 57.8027 90.1609 57.8027V69.859C90.1609 69.859 100.74 69.648 100.785 69.5576ZM87.3276 76.7913H75.2714V88.8476H87.3276V76.7913ZM87.3276 57.8027H75.2714V69.859H87.3276V57.8027ZM106.256 58.5562L106.482 57.9835C106.407 58.1644 106.331 58.3452 106.256 58.5562ZM99.399 84.2059H99.414C100.514 82.1865 101.343 80.0164 101.735 77.8462H90.7034V87.7926H96.9576C97.8609 86.6971 98.6629 85.5218 99.3537 84.2813L99.399 84.2059ZM106.256 58.5562H90.8541V68.804H101.207C102.458 66.5887 103.589 64.4638 104.583 62.3841C105.322 60.8168 105.849 59.5659 106.256 58.5562V58.5562ZM86.2124 77.7558H76.1756V87.7926H86.2124V77.7558ZM86.3631 58.7672H76.3263V68.804H86.3631V58.7672Z" fill="#0E230A"/>
</g>
<defs>
<filter id="filter0_d_453_2011" x="0.171875" y="0.588379" width="161.896" height="155.7" filterUnits="userSpaceOnUse" color-interpolation-filters="sRGB">
<feFlood flood-opacity="0" result="BackgroundImageFix"/>
<feColorMatrix in="SourceAlpha" type="matrix" values="0 0 0 0 0 0 0 0 0 0 0 0 0 0 0 0 0 0 127 0" result="hardAlpha"/>
<feOffset dy="4"/>
<feGaussianBlur stdDeviation="2"/>
<feComposite in2="hardAlpha" operator="out"/>
<feColorMatrix type="matrix" values="0 0 0 0 0 0 0 0 0 0 0 0 0 0 0 0 0 0 0.25 0"/>
<feBlend mode="normal" in2="BackgroundImageFix" result="effect1_dropShadow_453_2011"/>
<feBlend mode="normal" in="SourceGraphic" in2="effect1_dropShadow_453_2011" result="shape"/>
</filter>
</defs>
</svg>
