<svg width="38" height="39" viewBox="0 0 38 39" fill="none" xmlns="http://www.w3.org/2000/svg">
<path d="M26 5.33333L24.12 7.21333L27.56 10.6667H14V13.3333H27.56L24.12 16.7733L26 18.6667L32.6667 12L26 5.33333ZM8.66667 2.66667H19.3333V0H8.66667C7.2 0 6 1.2 6 2.66667V21.3333C6 22.8 7.2 24 8.66667 24H19.3333V21.3333H8.66667V2.66667Z" fill="#71816D"/>
<path d="M5.616 34.068H5.916V36H0.624V35.7L1.284 35.64C1.412 35.624 1.488 35.592 1.512 35.544C1.536 35.496 1.548 35.332 1.548 35.052V28.788C1.548 28.508 1.536 28.344 1.512 28.296C1.488 28.24 1.412 28.208 1.284 28.2L0.624 28.14V27.84H3.252V28.14L2.592 28.2C2.464 28.208 2.388 28.24 2.364 28.296C2.34 28.344 2.328 28.508 2.328 28.788V35.64H4.644C4.924 35.64 5.092 35.624 5.148 35.592C5.212 35.552 5.26 35.464 5.292 35.328L5.616 34.068ZM11.8669 32.952V33.192C11.8669 34.08 11.6469 34.792 11.2069 35.328C10.7749 35.856 10.1629 36.12 9.37088 36.12C8.57088 36.12 7.95488 35.856 7.52288 35.328C7.09088 34.792 6.87488 34.08 6.87488 33.192V32.952C6.87488 32.072 7.09088 31.368 7.52288 30.84C7.95488 30.304 8.57088 30.036 9.37088 30.036C10.1709 30.036 10.7869 30.304 11.2189 30.84C11.6509 31.368 11.8669 32.072 11.8669 32.952ZM11.0509 32.712C11.0509 31.88 10.9069 31.288 10.6189 30.936C10.3309 30.576 9.91488 30.396 9.37088 30.396C8.83488 30.396 8.41888 30.576 8.12288 30.936C7.83488 31.288 7.69088 31.88 7.69088 32.712V33.432C7.69088 34.256 7.83488 34.852 8.12288 35.22C8.41888 35.58 8.83488 35.76 9.37088 35.76C9.91488 35.76 10.3309 35.58 10.6189 35.22C10.9069 34.852 11.0509 34.256 11.0509 33.432V32.712ZM18.6314 36.756C18.6314 37.388 18.4034 37.864 17.9474 38.184C17.4914 38.512 16.8594 38.676 16.0514 38.676C15.1554 38.676 14.5074 38.516 14.1074 38.196C13.7154 37.876 13.5234 37.472 13.5314 36.984L14.1554 36.804C14.1314 37.26 14.2594 37.624 14.5394 37.896C14.8274 38.176 15.3314 38.316 16.0514 38.316C16.6754 38.316 17.1794 38.2 17.5634 37.968C17.9474 37.744 18.1394 37.408 18.1394 36.96C18.1394 36.632 18.0274 36.38 17.8034 36.204C17.5874 36.036 17.2314 35.952 16.7354 35.952H15.2714C14.8074 35.952 14.4714 35.844 14.2634 35.628C14.0554 35.412 13.9514 35.164 13.9514 34.884C13.9514 34.444 14.1674 34.048 14.5994 33.696C14.2954 33.536 14.0474 33.316 13.8554 33.036C13.6714 32.756 13.5794 32.412 13.5794 32.004C13.5794 31.564 13.6794 31.2 13.8794 30.912C14.0794 30.616 14.3434 30.396 14.6714 30.252C15.0074 30.108 15.3794 30.036 15.7874 30.036H15.9914C16.4394 30.036 16.8314 30.12 17.1674 30.288L18.9074 29.844L19.0274 30.552H17.5754C17.7674 30.712 17.9154 30.916 18.0194 31.164C18.1314 31.404 18.1874 31.684 18.1874 32.004C18.1874 32.42 18.0874 32.776 17.8874 33.072C17.6954 33.36 17.4314 33.58 17.0954 33.732C16.7674 33.876 16.3994 33.948 15.9914 33.948H15.7874C15.4914 33.948 15.2234 33.912 14.9834 33.84C14.6634 34.064 14.5034 34.328 14.5034 34.632C14.5034 34.808 14.5594 34.956 14.6714 35.076C14.7914 35.188 14.9794 35.244 15.2354 35.244H16.7954C17.3874 35.244 17.8394 35.372 18.1514 35.628C18.4714 35.876 18.6314 36.252 18.6314 36.756ZM15.9914 33.588C16.2394 33.588 16.4674 33.544 16.6754 33.456C16.8834 33.36 17.0514 33.2 17.1794 32.976C17.3074 32.744 17.3714 32.42 17.3714 32.004C17.3714 31.58 17.3074 31.252 17.1794 31.02C17.0514 30.788 16.8834 30.628 16.6754 30.54C16.4674 30.444 16.2394 30.396 15.9914 30.396H15.7874C15.5394 30.396 15.3074 30.444 15.0914 30.54C14.8834 30.628 14.7154 30.788 14.5874 31.02C14.4594 31.252 14.3954 31.58 14.3954 32.004C14.3954 32.42 14.4594 32.744 14.5874 32.976C14.7154 33.2 14.8834 33.36 15.0914 33.456C15.3074 33.544 15.5394 33.588 15.7874 33.588H15.9914ZM25.0622 32.952V33.192C25.0622 34.08 24.8422 34.792 24.4022 35.328C23.9702 35.856 23.3582 36.12 22.5662 36.12C21.7662 36.12 21.1502 35.856 20.7182 35.328C20.2862 34.792 20.0702 34.08 20.0702 33.192V32.952C20.0702 32.072 20.2862 31.368 20.7182 30.84C21.1502 30.304 21.7662 30.036 22.5662 30.036C23.3662 30.036 23.9822 30.304 24.4142 30.84C24.8462 31.368 25.0622 32.072 25.0622 32.952ZM24.2462 32.712C24.2462 31.88 24.1022 31.288 23.8142 30.936C23.5262 30.576 23.1102 30.396 22.5662 30.396C22.0302 30.396 21.6142 30.576 21.3182 30.936C21.0302 31.288 20.8862 31.88 20.8862 32.712V33.432C20.8862 34.256 21.0302 34.852 21.3182 35.22C21.6142 35.58 22.0302 35.76 22.5662 35.76C23.1102 35.76 23.5262 35.58 23.8142 35.22C24.1022 34.852 24.2462 34.256 24.2462 33.432V32.712ZM32.5827 35.7V36H30.9867V35.064C30.6667 35.432 30.3267 35.7 29.9667 35.868C29.6147 36.036 29.2627 36.12 28.9107 36.12C28.3427 36.12 27.9067 35.944 27.6027 35.592C27.3067 35.232 27.1587 34.728 27.1587 34.08V31.104C27.1587 30.824 27.1467 30.66 27.1227 30.612C27.0987 30.556 27.0227 30.524 26.8947 30.516L26.2347 30.456V30.156H27.8787V34.068C27.8787 34.684 27.9747 35.112 28.1667 35.352C28.3667 35.592 28.6507 35.712 29.0187 35.712C29.3147 35.712 29.6227 35.636 29.9427 35.484C30.2707 35.324 30.6027 35.036 30.9387 34.62V31.104C30.9387 30.824 30.9267 30.66 30.9027 30.612C30.8787 30.556 30.8027 30.524 30.6747 30.516L29.7747 30.456V30.156H31.6587V35.052C31.6587 35.332 31.6707 35.496 31.6947 35.544C31.7187 35.592 31.7947 35.624 31.9227 35.64L32.5827 35.7ZM37.2954 34.776C37.1674 35.232 36.9874 35.572 36.7554 35.796C36.5314 36.012 36.2234 36.12 35.8314 36.12C35.4714 36.12 35.1794 36.04 34.9554 35.88C34.7394 35.712 34.5794 35.5 34.4754 35.244C34.3794 34.988 34.3314 34.724 34.3314 34.452V31.104C34.3314 30.824 34.3194 30.66 34.2954 30.612C34.2794 30.556 34.2034 30.524 34.0674 30.516L33.4074 30.456V30.156H34.3314V28.452L35.0514 28.308V30.156H37.0314V30.516H35.0514V34.452C35.0514 34.948 35.1234 35.292 35.2674 35.484C35.4114 35.668 35.6114 35.76 35.8674 35.76C36.1234 35.76 36.3154 35.668 36.4434 35.484C36.5714 35.3 36.6674 35.016 36.7314 34.632L37.2954 34.776Z" fill="#71816D"/>
</svg>
