<svg width="47" height="59" viewBox="0 0 47 59" fill="none" xmlns="http://www.w3.org/2000/svg">
<g filter="url(#filter0_d_262_459)">
<path d="M23.2593 0C12.6281 0 4 8.62815 4 19.2593C4 29.8904 12.6281 38.5185 23.2593 38.5185C33.8904 38.5185 42.5185 29.8904 42.5185 19.2593C42.5185 8.62815 33.8904 0 23.2593 0ZM23.2593 5.77778C26.4563 5.77778 29.037 8.35852 29.037 11.5556C29.037 14.7526 26.4563 17.3333 23.2593 17.3333C20.0622 17.3333 17.4815 14.7526 17.4815 11.5556C17.4815 8.35852 20.0622 5.77778 23.2593 5.77778ZM23.2593 33.1259C18.4444 33.1259 14.1881 30.6607 11.7037 26.9244C11.7615 23.0919 19.4074 20.9926 23.2593 20.9926C27.0919 20.9926 34.757 23.0919 34.8148 26.9244C32.3304 30.6607 28.0741 33.1259 23.2593 33.1259Z" fill="#71816D"/>
<path d="M6.53874 42.817V42.52H9.66274C10.3887 42.52 10.9424 42.7033 11.3237 43.07C11.7051 43.4293 11.8957 43.9097 11.8957 44.511V44.83C11.8957 45.4313 11.7051 45.9153 11.3237 46.282C10.9424 46.6487 10.3887 46.832 9.66274 46.832H8.34274V49.109C8.34274 49.3657 8.35374 49.5197 8.37574 49.571C8.39774 49.615 8.46741 49.6407 8.58474 49.648L9.40974 49.714V50H6.53874V49.714L7.14374 49.648C7.26108 49.6333 7.33074 49.604 7.35274 49.56C7.37474 49.516 7.38574 49.3657 7.38574 49.109V43.411C7.38574 43.1543 7.37474 43.004 7.35274 42.96C7.33074 42.916 7.26108 42.8867 7.14374 42.872L6.53874 42.817ZM9.66274 42.872H8.34274V46.48H9.66274C10.4767 46.48 10.8837 45.9813 10.8837 44.984V44.357C10.8837 43.367 10.4767 42.872 9.66274 42.872ZM12.7121 44.852V44.555H14.4061V45.435C14.6628 45.0903 14.9195 44.841 15.1761 44.687C15.4401 44.5257 15.7078 44.445 15.9791 44.445C16.2138 44.445 16.4338 44.5147 16.6391 44.654C16.8445 44.7933 17.0168 45.017 17.1561 45.325L16.4411 45.754C16.3311 45.49 16.2065 45.3067 16.0671 45.204C15.9278 45.1013 15.7738 45.05 15.6051 45.05C15.4218 45.05 15.2385 45.1087 15.0551 45.226C14.8791 45.3433 14.6811 45.5633 14.4611 45.886V49.109C14.4611 49.3657 14.4721 49.5197 14.4941 49.571C14.5161 49.615 14.5858 49.6407 14.7031 49.648L15.5281 49.714V50H12.7121V49.714L13.3171 49.648C13.4345 49.6333 13.5041 49.604 13.5261 49.56C13.5481 49.516 13.5591 49.3657 13.5591 49.109V45.446C13.5591 45.1893 13.5481 45.039 13.5261 44.995C13.5041 44.951 13.4345 44.9217 13.3171 44.907L12.7121 44.852ZM22.5417 47.162V47.382C22.5417 48.2107 22.3327 48.8743 21.9147 49.373C21.504 49.8643 20.9173 50.11 20.1547 50.11C19.3993 50.11 18.8127 49.8643 18.3947 49.373C17.984 48.8743 17.7787 48.2107 17.7787 47.382V47.162C17.7787 46.3407 17.984 45.6843 18.3947 45.193C18.8053 44.6943 19.392 44.445 20.1547 44.445C20.9173 44.445 21.504 44.6943 21.9147 45.193C22.3327 45.6843 22.5417 46.3407 22.5417 47.162ZM21.5517 46.942C21.5517 46.1793 21.4307 45.633 21.1887 45.303C20.954 44.9657 20.6093 44.797 20.1547 44.797C19.7073 44.797 19.3627 44.9657 19.1207 45.303C18.886 45.633 18.7687 46.1793 18.7687 46.942V47.602C18.7687 48.372 18.886 48.9257 19.1207 49.263C19.3627 49.593 19.7073 49.758 20.1547 49.758C20.6093 49.758 20.954 49.593 21.1887 49.263C21.4307 48.9257 21.5517 48.372 21.5517 47.602V46.942ZM29.6657 49.714V50H27.0697V49.714L27.6747 49.648C27.7921 49.6333 27.8617 49.604 27.8837 49.56C27.9057 49.516 27.9167 49.3657 27.9167 49.109V44.907H25.3537V49.109C25.3537 49.3657 25.3647 49.516 25.3867 49.56C25.4087 49.604 25.4784 49.6333 25.5957 49.648L26.2007 49.714V50H23.6047V49.714L24.2097 49.648C24.3271 49.6333 24.3967 49.604 24.4187 49.56C24.4407 49.516 24.4517 49.3657 24.4517 49.109V45.446C24.4517 45.1893 24.4407 45.039 24.4187 44.995C24.4041 44.951 24.3344 44.9217 24.2097 44.907L23.6047 44.852V44.555H24.4517V44.115C24.4517 43.7043 24.5214 43.3193 24.6607 42.96C24.8074 42.6007 25.0457 42.311 25.3757 42.091C25.7131 41.8637 26.1641 41.75 26.7287 41.75C27.1981 41.75 27.5904 41.8307 27.9057 41.992C28.2284 42.146 28.4631 42.3587 28.6097 42.63C28.7564 42.894 28.8004 43.191 28.7417 43.521L27.8837 43.642C28.0231 42.6153 27.6381 42.102 26.7287 42.102C26.4574 42.102 26.2191 42.157 26.0137 42.267C25.8084 42.3697 25.6471 42.5567 25.5297 42.828C25.4124 43.092 25.3537 43.4697 25.3537 43.961V44.555H28.8187V49.109C28.8187 49.3657 28.8297 49.516 28.8517 49.56C28.8737 49.604 28.9434 49.6333 29.0607 49.648L29.6657 49.714ZM30.2953 42.157V41.86H32.0443V49.109C32.0443 49.3657 32.0553 49.516 32.0773 49.56C32.0993 49.604 32.169 49.6333 32.2863 49.648L32.8913 49.714V50H30.2953V49.714L30.9003 49.648C31.0176 49.6333 31.0873 49.604 31.1093 49.56C31.1313 49.516 31.1423 49.3657 31.1423 49.109V42.751C31.1423 42.4943 31.1313 42.344 31.1093 42.3C31.0873 42.256 31.0176 42.2267 30.9003 42.212L30.2953 42.157ZM38.281 48.746C38.149 49.2447 37.8996 49.5967 37.533 49.802C37.1736 50.0073 36.774 50.11 36.334 50.11C35.52 50.11 34.9113 49.8643 34.508 49.373C34.1046 48.8743 33.903 48.2107 33.903 47.382V47.162C33.903 46.3407 34.0973 45.6843 34.486 45.193C34.8746 44.6943 35.4393 44.445 36.18 44.445C36.576 44.445 36.9353 44.5257 37.258 44.687C37.588 44.8483 37.8483 45.0867 38.039 45.402C38.237 45.7173 38.336 46.1097 38.336 46.579C38.336 46.799 38.314 47.03 38.27 47.272H34.893V47.602C34.893 48.372 35.0103 48.9257 35.245 49.263C35.487 49.593 35.8756 49.758 36.411 49.758C36.7483 49.758 37.027 49.67 37.247 49.494C37.4743 49.318 37.6246 49.0137 37.698 48.581L38.281 48.746ZM36.18 44.797C35.7473 44.797 35.4246 44.962 35.212 45.292C34.9993 45.622 34.893 46.1647 34.893 46.92H37.368V46.887C37.3826 46.7917 37.3936 46.7 37.401 46.612C37.4083 46.5167 37.412 46.4323 37.412 46.359C37.412 45.809 37.2983 45.413 37.071 45.171C36.8436 44.9217 36.5466 44.797 36.18 44.797Z" fill="#71816D"/>
</g>
<defs>
<filter id="filter0_d_262_459" x="0" y="0" width="46.5186" height="58.11" filterUnits="userSpaceOnUse" color-interpolation-filters="sRGB">
<feFlood flood-opacity="0" result="BackgroundImageFix"/>
<feColorMatrix in="SourceAlpha" type="matrix" values="0 0 0 0 0 0 0 0 0 0 0 0 0 0 0 0 0 0 127 0" result="hardAlpha"/>
<feOffset dy="4"/>
<feGaussianBlur stdDeviation="2"/>
<feComposite in2="hardAlpha" operator="out"/>
<feColorMatrix type="matrix" values="0 0 0 0 0 0 0 0 0 0 0 0 0 0 0 0 0 0 0.25 0"/>
<feBlend mode="normal" in2="BackgroundImageFix" result="effect1_dropShadow_262_459"/>
<feBlend mode="normal" in="SourceGraphic" in2="effect1_dropShadow_262_459" result="shape"/>
</filter>
</defs>
</svg>
