<svg width="135" height="171" viewBox="0 0 135 171" fill="none" xmlns="http://www.w3.org/2000/svg">
<g filter="url(#filter0_d_453_2017)">
<path d="M67.8111 0.588379C33.0556 0.588379 4.84814 28.7958 4.84814 63.5513C4.84814 98.3069 33.0556 126.514 67.8111 126.514C102.567 126.514 130.774 98.3069 130.774 63.5513C130.774 28.7958 102.567 0.588379 67.8111 0.588379ZM67.8111 19.4773C78.263 19.4773 86.7 27.9143 86.7 38.3662C86.7 48.818 78.263 57.255 67.8111 57.255C57.3593 57.255 48.9222 48.818 48.9222 38.3662C48.9222 27.9143 57.3593 19.4773 67.8111 19.4773ZM67.8111 108.885C52.0704 108.885 38.1556 100.825 30.0333 88.6106C30.2222 76.081 55.2185 69.218 67.8111 69.218C80.3407 69.218 105.4 76.081 105.589 88.6106C97.4667 100.825 83.5519 108.885 67.8111 108.885Z" fill="#0E230A" fill-opacity="0.6"/>
<path d="M36.3086 135.028V134.488H41.9886C43.3086 134.488 44.3152 134.822 45.0086 135.488C45.7019 136.142 46.0486 137.015 46.0486 138.108V138.688C46.0486 139.782 45.7019 140.662 45.0086 141.328C44.3152 141.995 43.3086 142.328 41.9886 142.328H39.5886V146.468C39.5886 146.935 39.6086 147.215 39.6486 147.308C39.6886 147.388 39.8152 147.435 40.0286 147.448L41.5286 147.568V148.088H36.3086V147.568L37.4086 147.448C37.6219 147.422 37.7486 147.368 37.7886 147.288C37.8286 147.208 37.8486 146.935 37.8486 146.468V136.108C37.8486 135.642 37.8286 135.368 37.7886 135.288C37.7486 135.208 37.6219 135.155 37.4086 135.128L36.3086 135.028ZM41.9886 135.128H39.5886V141.688H41.9886C43.4686 141.688 44.2086 140.782 44.2086 138.968V137.828C44.2086 136.028 43.4686 135.128 41.9886 135.128ZM47.5329 138.728V138.188H50.6129V139.788C51.0796 139.162 51.5463 138.708 52.0129 138.428C52.4929 138.135 52.9796 137.988 53.4729 137.988C53.8996 137.988 54.2996 138.115 54.6729 138.368C55.0463 138.622 55.3596 139.028 55.6129 139.588L54.3129 140.368C54.1129 139.888 53.8863 139.555 53.6329 139.368C53.3796 139.182 53.0996 139.088 52.7929 139.088C52.4596 139.088 52.1263 139.195 51.7929 139.408C51.4729 139.622 51.1129 140.022 50.7129 140.608V146.468C50.7129 146.935 50.7329 147.215 50.7729 147.308C50.8129 147.388 50.9396 147.435 51.1529 147.448L52.6529 147.568V148.088H47.5329V147.568L48.6329 147.448C48.8463 147.422 48.9729 147.368 49.0129 147.288C49.0529 147.208 49.0729 146.935 49.0729 146.468V139.808C49.0729 139.342 49.0529 139.068 49.0129 138.988C48.9729 138.908 48.8463 138.855 48.6329 138.828L47.5329 138.728ZM65.4048 142.928V143.328C65.4048 144.835 65.0248 146.042 64.2648 146.948C63.5181 147.842 62.4515 148.288 61.0648 148.288C59.6915 148.288 58.6248 147.842 57.8648 146.948C57.1181 146.042 56.7448 144.835 56.7448 143.328V142.928C56.7448 141.435 57.1181 140.242 57.8648 139.348C58.6115 138.442 59.6781 137.988 61.0648 137.988C62.4515 137.988 63.5181 138.442 64.2648 139.348C65.0248 140.242 65.4048 141.435 65.4048 142.928ZM63.6048 142.528C63.6048 141.142 63.3848 140.148 62.9448 139.548C62.5181 138.935 61.8915 138.628 61.0648 138.628C60.2515 138.628 59.6248 138.935 59.1848 139.548C58.7581 140.148 58.5448 141.142 58.5448 142.528V143.728C58.5448 145.128 58.7581 146.135 59.1848 146.748C59.6248 147.348 60.2515 147.648 61.0648 147.648C61.8915 147.648 62.5181 147.348 62.9448 146.748C63.3848 146.135 63.6048 145.128 63.6048 143.728V142.528ZM78.3576 147.568V148.088H73.6376V147.568L74.7376 147.448C74.951 147.422 75.0776 147.368 75.1176 147.288C75.1576 147.208 75.1776 146.935 75.1776 146.468V138.828H70.5176V146.468C70.5176 146.935 70.5376 147.208 70.5776 147.288C70.6176 147.368 70.7443 147.422 70.9576 147.448L72.0576 147.568V148.088H67.3376V147.568L68.4376 147.448C68.651 147.422 68.7776 147.368 68.8176 147.288C68.8576 147.208 68.8776 146.935 68.8776 146.468V139.808C68.8776 139.342 68.8576 139.068 68.8176 138.988C68.791 138.908 68.6643 138.855 68.4376 138.828L67.3376 138.728V138.188H68.8776V137.388C68.8776 136.642 69.0043 135.942 69.2576 135.288C69.5243 134.635 69.9576 134.108 70.5576 133.708C71.171 133.295 71.991 133.088 73.0176 133.088C73.871 133.088 74.5843 133.235 75.1576 133.528C75.7443 133.808 76.171 134.195 76.4376 134.688C76.7043 135.168 76.7843 135.708 76.6776 136.308L75.1176 136.528C75.371 134.662 74.671 133.728 73.0176 133.728C72.5243 133.728 72.091 133.828 71.7176 134.028C71.3443 134.215 71.051 134.555 70.8376 135.048C70.6243 135.528 70.5176 136.215 70.5176 137.108V138.188H76.8176V146.468C76.8176 146.935 76.8376 147.208 76.8776 147.288C76.9176 147.368 77.0443 147.422 77.2576 147.448L78.3576 147.568ZM79.5023 133.828V133.288H82.6823V146.468C82.6823 146.935 82.7023 147.208 82.7423 147.288C82.7823 147.368 82.909 147.422 83.1223 147.448L84.2223 147.568V148.088H79.5023V147.568L80.6023 147.448C80.8156 147.422 80.9423 147.368 80.9823 147.288C81.0223 147.208 81.0423 146.935 81.0423 146.468V134.908C81.0423 134.442 81.0223 134.168 80.9823 134.088C80.9423 134.008 80.8156 133.955 80.6023 133.928L79.5023 133.828ZM94.0217 145.808C93.7817 146.715 93.3283 147.355 92.6617 147.728C92.0083 148.102 91.2817 148.288 90.4817 148.288C89.0017 148.288 87.895 147.842 87.1617 146.948C86.4283 146.042 86.0617 144.835 86.0617 143.328V142.928C86.0617 141.435 86.415 140.242 87.1217 139.348C87.8283 138.442 88.855 137.988 90.2017 137.988C90.9217 137.988 91.575 138.135 92.1617 138.428C92.7617 138.722 93.235 139.155 93.5817 139.728C93.9417 140.302 94.1217 141.015 94.1217 141.868C94.1217 142.268 94.0817 142.688 94.0017 143.128H87.8617V143.728C87.8617 145.128 88.075 146.135 88.5017 146.748C88.9417 147.348 89.6483 147.648 90.6217 147.648C91.235 147.648 91.7417 147.488 92.1417 147.168C92.555 146.848 92.8283 146.295 92.9617 145.508L94.0217 145.808ZM90.2017 138.628C89.415 138.628 88.8283 138.928 88.4417 139.528C88.055 140.128 87.8617 141.115 87.8617 142.488H92.3617V142.428C92.3883 142.255 92.4083 142.088 92.4217 141.928C92.435 141.755 92.4417 141.602 92.4417 141.468C92.4417 140.468 92.235 139.748 91.8217 139.308C91.4083 138.855 90.8683 138.628 90.2017 138.628Z" fill="#0E230A" fill-opacity="0.6"/>
</g>
<defs>
<filter id="filter0_d_453_2017" x="0.848145" y="0.588379" width="133.926" height="155.7" filterUnits="userSpaceOnUse" color-interpolation-filters="sRGB">
<feFlood flood-opacity="0" result="BackgroundImageFix"/>
<feColorMatrix in="SourceAlpha" type="matrix" values="0 0 0 0 0 0 0 0 0 0 0 0 0 0 0 0 0 0 127 0" result="hardAlpha"/>
<feOffset dy="4"/>
<feGaussianBlur stdDeviation="2"/>
<feComposite in2="hardAlpha" operator="out"/>
<feColorMatrix type="matrix" values="0 0 0 0 0 0 0 0 0 0 0 0 0 0 0 0 0 0 0.25 0"/>
<feBlend mode="normal" in2="BackgroundImageFix" result="effect1_dropShadow_453_2017"/>
<feBlend mode="normal" in="SourceGraphic" in2="effect1_dropShadow_453_2017" result="shape"/>
</filter>
</defs>
</svg>
