<svg width="134" height="171" viewBox="0 0 134 171" fill="none" xmlns="http://www.w3.org/2000/svg">
<g filter="url(#filter0_d_453_2002)">
<path d="M67.0369 0.588379C32.2814 0.588379 4.07397 28.7958 4.07397 63.5513C4.07397 98.3069 32.2814 126.514 67.0369 126.514C101.792 126.514 130 98.3069 130 63.5513C130 28.7958 101.792 0.588379 67.0369 0.588379ZM67.0369 19.4773C77.4888 19.4773 85.9258 27.9143 85.9258 38.3662C85.9258 48.818 77.4888 57.255 67.0369 57.255C56.5851 57.255 48.1481 48.818 48.1481 38.3662C48.1481 27.9143 56.5851 19.4773 67.0369 19.4773ZM67.0369 108.885C51.2962 108.885 37.3814 100.825 29.2592 88.6106C29.448 76.081 54.4443 69.218 67.0369 69.218C79.5666 69.218 104.626 76.081 104.815 88.6106C96.6925 100.825 82.7777 108.885 67.0369 108.885Z" fill="#0E230A"/>
<path d="M35.5344 135.028V134.488H41.2144C42.5344 134.488 43.5411 134.822 44.2344 135.488C44.9277 136.142 45.2744 137.015 45.2744 138.108V138.688C45.2744 139.782 44.9277 140.662 44.2344 141.328C43.5411 141.995 42.5344 142.328 41.2144 142.328H38.8144V146.468C38.8144 146.935 38.8344 147.215 38.8744 147.308C38.9144 147.388 39.0411 147.435 39.2544 147.448L40.7544 147.568V148.088H35.5344V147.568L36.6344 147.448C36.8477 147.422 36.9744 147.368 37.0144 147.288C37.0544 147.208 37.0744 146.935 37.0744 146.468V136.108C37.0744 135.642 37.0544 135.368 37.0144 135.288C36.9744 135.208 36.8477 135.155 36.6344 135.128L35.5344 135.028ZM41.2144 135.128H38.8144V141.688H41.2144C42.6944 141.688 43.4344 140.782 43.4344 138.968V137.828C43.4344 136.028 42.6944 135.128 41.2144 135.128ZM46.7588 138.728V138.188H49.8388V139.788C50.3054 139.162 50.7721 138.708 51.2388 138.428C51.7188 138.135 52.2054 137.988 52.6988 137.988C53.1254 137.988 53.5254 138.115 53.8988 138.368C54.2721 138.622 54.5854 139.028 54.8388 139.588L53.5388 140.368C53.3388 139.888 53.1121 139.555 52.8588 139.368C52.6054 139.182 52.3254 139.088 52.0188 139.088C51.6854 139.088 51.3521 139.195 51.0188 139.408C50.6988 139.622 50.3388 140.022 49.9388 140.608V146.468C49.9388 146.935 49.9588 147.215 49.9988 147.308C50.0388 147.388 50.1654 147.435 50.3788 147.448L51.8788 147.568V148.088H46.7588V147.568L47.8588 147.448C48.0721 147.422 48.1988 147.368 48.2388 147.288C48.2788 147.208 48.2988 146.935 48.2988 146.468V139.808C48.2988 139.342 48.2788 139.068 48.2388 138.988C48.1988 138.908 48.0721 138.855 47.8588 138.828L46.7588 138.728ZM64.6306 142.928V143.328C64.6306 144.835 64.2506 146.042 63.4906 146.948C62.744 147.842 61.6773 148.288 60.2906 148.288C58.9173 148.288 57.8506 147.842 57.0906 146.948C56.344 146.042 55.9706 144.835 55.9706 143.328V142.928C55.9706 141.435 56.344 140.242 57.0906 139.348C57.8373 138.442 58.904 137.988 60.2906 137.988C61.6773 137.988 62.744 138.442 63.4906 139.348C64.2506 140.242 64.6306 141.435 64.6306 142.928ZM62.8306 142.528C62.8306 141.142 62.6106 140.148 62.1706 139.548C61.744 138.935 61.1173 138.628 60.2906 138.628C59.4773 138.628 58.8506 138.935 58.4106 139.548C57.984 140.148 57.7706 141.142 57.7706 142.528V143.728C57.7706 145.128 57.984 146.135 58.4106 146.748C58.8506 147.348 59.4773 147.648 60.2906 147.648C61.1173 147.648 61.744 147.348 62.1706 146.748C62.6106 146.135 62.8306 145.128 62.8306 143.728V142.528ZM77.5834 147.568V148.088H72.8634V147.568L73.9634 147.448C74.1768 147.422 74.3034 147.368 74.3434 147.288C74.3834 147.208 74.4034 146.935 74.4034 146.468V138.828H69.7434V146.468C69.7434 146.935 69.7634 147.208 69.8034 147.288C69.8434 147.368 69.9701 147.422 70.1834 147.448L71.2834 147.568V148.088H66.5634V147.568L67.6634 147.448C67.8768 147.422 68.0034 147.368 68.0434 147.288C68.0834 147.208 68.1034 146.935 68.1034 146.468V139.808C68.1034 139.342 68.0834 139.068 68.0434 138.988C68.0168 138.908 67.8901 138.855 67.6634 138.828L66.5634 138.728V138.188H68.1034V137.388C68.1034 136.642 68.2301 135.942 68.4834 135.288C68.7501 134.635 69.1834 134.108 69.7834 133.708C70.3968 133.295 71.2168 133.088 72.2434 133.088C73.0968 133.088 73.8101 133.235 74.3834 133.528C74.9701 133.808 75.3968 134.195 75.6634 134.688C75.9301 135.168 76.0101 135.708 75.9034 136.308L74.3434 136.528C74.5968 134.662 73.8968 133.728 72.2434 133.728C71.7501 133.728 71.3168 133.828 70.9434 134.028C70.5701 134.215 70.2768 134.555 70.0634 135.048C69.8501 135.528 69.7434 136.215 69.7434 137.108V138.188H76.0434V146.468C76.0434 146.935 76.0634 147.208 76.1034 147.288C76.1434 147.368 76.2701 147.422 76.4834 147.448L77.5834 147.568ZM78.7281 133.828V133.288H81.9081V146.468C81.9081 146.935 81.9281 147.208 81.9681 147.288C82.0081 147.368 82.1348 147.422 82.3481 147.448L83.4481 147.568V148.088H78.7281V147.568L79.8281 147.448C80.0415 147.422 80.1681 147.368 80.2081 147.288C80.2481 147.208 80.2681 146.935 80.2681 146.468V134.908C80.2681 134.442 80.2481 134.168 80.2081 134.088C80.1681 134.008 80.0415 133.955 79.8281 133.928L78.7281 133.828ZM93.2475 145.808C93.0075 146.715 92.5542 147.355 91.8875 147.728C91.2342 148.102 90.5075 148.288 89.7075 148.288C88.2275 148.288 87.1208 147.842 86.3875 146.948C85.6542 146.042 85.2875 144.835 85.2875 143.328V142.928C85.2875 141.435 85.6408 140.242 86.3475 139.348C87.0542 138.442 88.0808 137.988 89.4275 137.988C90.1475 137.988 90.8008 138.135 91.3875 138.428C91.9875 138.722 92.4608 139.155 92.8075 139.728C93.1675 140.302 93.3475 141.015 93.3475 141.868C93.3475 142.268 93.3075 142.688 93.2275 143.128H87.0875V143.728C87.0875 145.128 87.3008 146.135 87.7275 146.748C88.1675 147.348 88.8742 147.648 89.8475 147.648C90.4608 147.648 90.9675 147.488 91.3675 147.168C91.7808 146.848 92.0542 146.295 92.1875 145.508L93.2475 145.808ZM89.4275 138.628C88.6408 138.628 88.0542 138.928 87.6675 139.528C87.2808 140.128 87.0875 141.115 87.0875 142.488H91.5875V142.428C91.6142 142.255 91.6342 142.088 91.6475 141.928C91.6608 141.755 91.6675 141.602 91.6675 141.468C91.6675 140.468 91.4608 139.748 91.0475 139.308C90.6342 138.855 90.0942 138.628 89.4275 138.628Z" fill="#0E230A"/>
</g>
<defs>
<filter id="filter0_d_453_2002" x="0.0739746" y="0.588379" width="133.926" height="155.7" filterUnits="userSpaceOnUse" color-interpolation-filters="sRGB">
<feFlood flood-opacity="0" result="BackgroundImageFix"/>
<feColorMatrix in="SourceAlpha" type="matrix" values="0 0 0 0 0 0 0 0 0 0 0 0 0 0 0 0 0 0 127 0" result="hardAlpha"/>
<feOffset dy="4"/>
<feGaussianBlur stdDeviation="2"/>
<feComposite in2="hardAlpha" operator="out"/>
<feColorMatrix type="matrix" values="0 0 0 0 0 0 0 0 0 0 0 0 0 0 0 0 0 0 0.25 0"/>
<feBlend mode="normal" in2="BackgroundImageFix" result="effect1_dropShadow_453_2002"/>
<feBlend mode="normal" in="SourceGraphic" in2="effect1_dropShadow_453_2002" result="shape"/>
</filter>
</defs>
</svg>
