<svg width="256" height="171" viewBox="0 0 256 171" fill="none" xmlns="http://www.w3.org/2000/svg">
<g filter="url(#filter0_d_453_2005)">
<path d="M64.6907 135.028V134.488H70.2507C71.5574 134.488 72.5574 134.802 73.2507 135.428C73.9574 136.042 74.3107 136.862 74.3107 137.888V138.508C74.3107 139.322 74.084 140.015 73.6307 140.588C73.1907 141.148 72.5574 141.535 71.7307 141.748L74.2907 146.468C74.464 146.788 74.5907 147.015 74.6707 147.148C74.7507 147.268 74.824 147.348 74.8907 147.388C74.9707 147.415 75.0774 147.435 75.2107 147.448L76.1107 147.568V148.088H73.0907L69.9307 141.928H67.9707V146.468C67.9707 146.935 67.9907 147.208 68.0307 147.288C68.0707 147.368 68.1974 147.422 68.4107 147.448L69.5107 147.568V148.088H64.6907V147.568L65.7907 147.448C66.004 147.422 66.1307 147.368 66.1707 147.288C66.2107 147.208 66.2307 146.935 66.2307 146.468V136.108C66.2307 135.642 66.2107 135.368 66.1707 135.288C66.1307 135.208 66.004 135.155 65.7907 135.128L64.6907 135.028ZM70.2507 135.128H67.9707V141.288H70.2507C70.944 141.288 71.484 141.068 71.8707 140.628C72.2707 140.175 72.4707 139.495 72.4707 138.588V137.808C72.4707 136.902 72.2707 136.228 71.8707 135.788C71.484 135.348 70.944 135.128 70.2507 135.128ZM85.3726 145.808C85.1326 146.715 84.6793 147.355 84.0126 147.728C83.3593 148.102 82.6326 148.288 81.8326 148.288C80.3526 148.288 79.2459 147.842 78.5126 146.948C77.7793 146.042 77.4126 144.835 77.4126 143.328V142.928C77.4126 141.435 77.7659 140.242 78.4726 139.348C79.1793 138.442 80.2059 137.988 81.5526 137.988C82.2726 137.988 82.9259 138.135 83.5126 138.428C84.1126 138.722 84.5859 139.155 84.9326 139.728C85.2926 140.302 85.4726 141.015 85.4726 141.868C85.4726 142.268 85.4326 142.688 85.3526 143.128H79.2126V143.728C79.2126 145.128 79.4259 146.135 79.8526 146.748C80.2926 147.348 80.9993 147.648 81.9726 147.648C82.5859 147.648 83.0926 147.488 83.4926 147.168C83.9059 146.848 84.1793 146.295 84.3126 145.508L85.3726 145.808ZM81.5526 138.628C80.7659 138.628 80.1793 138.928 79.7926 139.528C79.4059 140.128 79.2126 141.115 79.2126 142.488H83.7126V142.428C83.7393 142.255 83.7593 142.088 83.7726 141.928C83.7859 141.755 83.7926 141.602 83.7926 141.468C83.7926 140.468 83.5859 139.748 83.1726 139.308C82.7593 138.855 82.2193 138.628 81.5526 138.628ZM96.6804 149.248C96.6804 150.315 96.2871 151.128 95.5004 151.688C94.7271 152.262 93.6471 152.548 92.2604 152.548C90.7404 152.548 89.6271 152.282 88.9204 151.748C88.2137 151.228 87.8471 150.568 87.8204 149.768L89.3004 149.468C89.2471 150.202 89.4404 150.788 89.8804 151.228C90.3337 151.682 91.1271 151.908 92.2604 151.908C93.2737 151.908 94.0871 151.722 94.7004 151.348C95.3271 150.975 95.6404 150.428 95.6404 149.708C95.6404 149.175 95.4604 148.775 95.1004 148.508C94.7404 148.242 94.1471 148.108 93.3204 148.108H90.9404C90.0471 148.108 89.4204 147.922 89.0604 147.548C88.7004 147.162 88.5204 146.735 88.5204 146.268C88.5204 145.882 88.6137 145.522 88.8004 145.188C89.0004 144.842 89.3137 144.502 89.7404 144.168C89.2071 143.915 88.7737 143.548 88.4404 143.068C88.1071 142.575 87.9404 141.982 87.9404 141.288C87.9404 140.555 88.1071 139.948 88.4404 139.468C88.7871 138.975 89.2404 138.608 89.8004 138.368C90.3737 138.115 91.0071 137.988 91.7004 137.988H92.0404C92.7737 137.988 93.4271 138.122 94.0004 138.388L96.9004 137.388L97.1204 138.888H94.7804C95.0871 139.155 95.3271 139.488 95.5004 139.888C95.6871 140.288 95.7804 140.755 95.7804 141.288C95.7804 141.995 95.6071 142.595 95.2604 143.088C94.9271 143.582 94.4804 143.955 93.9204 144.208C93.3604 144.448 92.7337 144.568 92.0404 144.568H91.7004C91.4737 144.568 91.2537 144.555 91.0404 144.528C90.8271 144.502 90.6204 144.462 90.4204 144.408C90.1271 144.608 89.9137 144.815 89.7804 145.028C89.6604 145.242 89.6004 145.462 89.6004 145.688C89.6004 145.955 89.6937 146.168 89.8804 146.328C90.0804 146.488 90.3937 146.568 90.8204 146.568H93.4204C94.4737 146.568 95.2804 146.795 95.8404 147.248C96.4004 147.702 96.6804 148.368 96.6804 149.248ZM92.0404 143.928C92.4004 143.928 92.7271 143.848 93.0204 143.688C93.3271 143.528 93.5737 143.262 93.7604 142.888C93.9471 142.502 94.0404 141.968 94.0404 141.288C94.0404 140.595 93.9471 140.062 93.7604 139.688C93.5737 139.302 93.3271 139.028 93.0204 138.868C92.7271 138.708 92.4004 138.628 92.0404 138.628H91.7004C91.3404 138.628 91.0071 138.708 90.7004 138.868C90.3937 139.028 90.1471 139.302 89.9604 139.688C89.7737 140.062 89.6804 140.595 89.6804 141.288C89.6804 141.968 89.7737 142.502 89.9604 142.888C90.1471 143.262 90.3937 143.528 90.7004 143.688C91.0071 143.848 91.3404 143.928 91.7004 143.928H92.0404ZM100.501 135.948C100.181 135.948 99.9145 135.848 99.7012 135.648C99.5012 135.435 99.4012 135.162 99.4012 134.828C99.4012 134.508 99.5012 134.248 99.7012 134.048C99.9145 133.848 100.181 133.748 100.501 133.748C100.821 133.748 101.081 133.848 101.281 134.048C101.495 134.248 101.601 134.508 101.601 134.828C101.601 135.162 101.495 135.435 101.281 135.648C101.081 135.848 100.821 135.948 100.501 135.948ZM98.1612 138.728V138.188H101.341V146.468C101.341 146.935 101.361 147.208 101.401 147.288C101.441 147.368 101.568 147.422 101.781 147.448L102.881 147.568V148.088H98.1612V147.568L99.2612 147.448C99.4745 147.422 99.6012 147.368 99.6412 147.288C99.6812 147.208 99.7012 146.935 99.7012 146.468V139.808C99.7012 139.342 99.6812 139.068 99.6412 138.988C99.6012 138.908 99.4745 138.855 99.2612 138.828L98.1612 138.728ZM108.358 144.048L107.138 143.748C105.471 143.322 104.638 142.362 104.638 140.868C104.638 140.375 104.751 139.908 104.978 139.468C105.204 139.028 105.564 138.675 106.058 138.408C106.564 138.128 107.211 137.988 107.998 137.988C108.878 137.988 109.584 138.135 110.118 138.428C110.651 138.722 111.024 139.102 111.238 139.568C111.451 140.035 111.518 140.542 111.438 141.088L109.878 141.368C110.038 140.502 109.944 139.828 109.598 139.348C109.264 138.868 108.711 138.628 107.938 138.628C107.338 138.628 106.858 138.782 106.498 139.088C106.138 139.382 105.958 139.815 105.958 140.388C105.958 140.815 106.091 141.195 106.358 141.528C106.624 141.848 107.071 142.088 107.698 142.248L108.958 142.548C109.838 142.762 110.518 143.102 110.998 143.568C111.491 144.035 111.738 144.648 111.738 145.408C111.738 146.262 111.424 146.955 110.798 147.488C110.184 148.022 109.304 148.288 108.158 148.288C107.611 148.288 107.078 148.208 106.558 148.048C106.051 147.875 105.604 147.608 105.218 147.248C104.844 146.875 104.571 146.395 104.398 145.808L105.518 145.408C105.664 146.248 105.984 146.835 106.478 147.168C106.971 147.502 107.538 147.668 108.178 147.668C108.551 147.668 108.904 147.608 109.238 147.488C109.584 147.368 109.864 147.182 110.078 146.928C110.291 146.662 110.398 146.322 110.398 145.908C110.398 145.482 110.251 145.115 109.958 144.808C109.664 144.502 109.131 144.248 108.358 144.048ZM120.21 146.048C120.01 146.822 119.697 147.388 119.27 147.748C118.844 148.108 118.297 148.288 117.63 148.288C116.99 148.288 116.47 148.148 116.07 147.868C115.67 147.575 115.377 147.195 115.19 146.728C115.004 146.262 114.91 145.775 114.91 145.268V139.808C114.91 139.342 114.89 139.068 114.85 138.988C114.824 138.908 114.697 138.855 114.47 138.828L113.37 138.728V138.188H114.91V135.568L116.55 135.228V138.188H119.81V138.828H116.55V145.428C116.55 146.268 116.664 146.848 116.89 147.168C117.13 147.488 117.444 147.648 117.83 147.648C118.217 147.648 118.51 147.502 118.71 147.208C118.924 146.915 119.077 146.435 119.17 145.768L120.21 146.048ZM129.865 145.808C129.625 146.715 129.171 147.355 128.505 147.728C127.851 148.102 127.125 148.288 126.325 148.288C124.845 148.288 123.738 147.842 123.005 146.948C122.271 146.042 121.905 144.835 121.905 143.328V142.928C121.905 141.435 122.258 140.242 122.965 139.348C123.671 138.442 124.698 137.988 126.045 137.988C126.765 137.988 127.418 138.135 128.005 138.428C128.605 138.722 129.078 139.155 129.425 139.728C129.785 140.302 129.965 141.015 129.965 141.868C129.965 142.268 129.925 142.688 129.845 143.128H123.705V143.728C123.705 145.128 123.918 146.135 124.345 146.748C124.785 147.348 125.491 147.648 126.465 147.648C127.078 147.648 127.585 147.488 127.985 147.168C128.398 146.848 128.671 146.295 128.805 145.508L129.865 145.808ZM126.045 138.628C125.258 138.628 124.671 138.928 124.285 139.528C123.898 140.128 123.705 141.115 123.705 142.488H128.205V142.428C128.231 142.255 128.251 142.088 128.265 141.928C128.278 141.755 128.285 141.602 128.285 141.468C128.285 140.468 128.078 139.748 127.665 139.308C127.251 138.855 126.711 138.628 126.045 138.628ZM131.853 138.728V138.188H134.933V139.788C135.399 139.162 135.866 138.708 136.333 138.428C136.813 138.135 137.299 137.988 137.793 137.988C138.219 137.988 138.619 138.115 138.993 138.368C139.366 138.622 139.679 139.028 139.933 139.588L138.633 140.368C138.433 139.888 138.206 139.555 137.953 139.368C137.699 139.182 137.419 139.088 137.113 139.088C136.779 139.088 136.446 139.195 136.113 139.408C135.793 139.622 135.433 140.022 135.033 140.608V146.468C135.033 146.935 135.053 147.215 135.093 147.308C135.133 147.388 135.259 147.435 135.473 147.448L136.973 147.568V148.088H131.853V147.568L132.953 147.448C133.166 147.422 133.293 147.368 133.333 147.288C133.373 147.208 133.393 146.935 133.393 146.468V139.808C133.393 139.342 133.373 139.068 133.333 138.988C133.293 138.908 133.166 138.855 132.953 138.828L131.853 138.728ZM151.773 146.048C151.573 146.822 151.26 147.388 150.833 147.748C150.406 148.108 149.86 148.288 149.193 148.288C148.553 148.288 148.033 148.148 147.633 147.868C147.233 147.575 146.94 147.195 146.753 146.728C146.566 146.262 146.473 145.775 146.473 145.268V139.808C146.473 139.342 146.453 139.068 146.413 138.988C146.386 138.908 146.26 138.855 146.033 138.828L144.933 138.728V138.188H146.473V135.568L148.113 135.228V138.188H151.373V138.828H148.113V145.428C148.113 146.268 148.226 146.848 148.453 147.168C148.693 147.488 149.006 147.648 149.393 147.648C149.78 147.648 150.073 147.502 150.273 147.208C150.486 146.915 150.64 146.435 150.733 145.768L151.773 146.048ZM152.907 138.728V138.188H155.987V139.788C156.454 139.162 156.921 138.708 157.387 138.428C157.867 138.135 158.354 137.988 158.847 137.988C159.274 137.988 159.674 138.115 160.047 138.368C160.421 138.622 160.734 139.028 160.987 139.588L159.687 140.368C159.487 139.888 159.261 139.555 159.007 139.368C158.754 139.182 158.474 139.088 158.167 139.088C157.834 139.088 157.501 139.195 157.167 139.408C156.847 139.622 156.487 140.022 156.087 140.608V146.468C156.087 146.935 156.107 147.215 156.147 147.308C156.187 147.388 156.314 147.435 156.527 147.448L158.027 147.568V148.088H152.907V147.568L154.007 147.448C154.221 147.422 154.347 147.368 154.387 147.288C154.427 147.208 154.447 146.935 154.447 146.468V139.808C154.447 139.342 154.427 139.068 154.387 138.988C154.347 138.908 154.221 138.855 154.007 138.828L152.907 138.728ZM170.099 145.808C169.859 146.715 169.406 147.355 168.739 147.728C168.086 148.102 167.359 148.288 166.559 148.288C165.079 148.288 163.972 147.842 163.239 146.948C162.506 146.042 162.139 144.835 162.139 143.328V142.928C162.139 141.435 162.492 140.242 163.199 139.348C163.906 138.442 164.932 137.988 166.279 137.988C166.999 137.988 167.652 138.135 168.239 138.428C168.839 138.722 169.312 139.155 169.659 139.728C170.019 140.302 170.199 141.015 170.199 141.868C170.199 142.268 170.159 142.688 170.079 143.128H163.939V143.728C163.939 145.128 164.152 146.135 164.579 146.748C165.019 147.348 165.726 147.648 166.699 147.648C167.312 147.648 167.819 147.488 168.219 147.168C168.632 146.848 168.906 146.295 169.039 145.508L170.099 145.808ZM166.279 138.628C165.492 138.628 164.906 138.928 164.519 139.528C164.132 140.128 163.939 141.115 163.939 142.488H168.439V142.428C168.466 142.255 168.486 142.088 168.499 141.928C168.512 141.755 168.519 141.602 168.519 141.468C168.519 140.468 168.312 139.748 167.899 139.308C167.486 138.855 166.946 138.628 166.279 138.628ZM180.607 145.808C180.367 146.715 179.914 147.355 179.247 147.728C178.594 148.102 177.867 148.288 177.067 148.288C175.587 148.288 174.48 147.842 173.747 146.948C173.014 146.042 172.647 144.835 172.647 143.328V142.928C172.647 141.435 173 140.242 173.707 139.348C174.414 138.442 175.44 137.988 176.787 137.988C177.507 137.988 178.16 138.135 178.747 138.428C179.347 138.722 179.82 139.155 180.167 139.728C180.527 140.302 180.707 141.015 180.707 141.868C180.707 142.268 180.667 142.688 180.587 143.128H174.447V143.728C174.447 145.128 174.66 146.135 175.087 146.748C175.527 147.348 176.234 147.648 177.207 147.648C177.82 147.648 178.327 147.488 178.727 147.168C179.14 146.848 179.414 146.295 179.547 145.508L180.607 145.808ZM176.787 138.628C176 138.628 175.414 138.928 175.027 139.528C174.64 140.128 174.447 141.115 174.447 142.488H178.947V142.428C178.974 142.255 178.994 142.088 179.007 141.928C179.02 141.755 179.027 141.602 179.027 141.468C179.027 140.468 178.82 139.748 178.407 139.308C177.994 138.855 177.454 138.628 176.787 138.628ZM186.815 144.048L185.595 143.748C183.928 143.322 183.095 142.362 183.095 140.868C183.095 140.375 183.208 139.908 183.435 139.468C183.661 139.028 184.021 138.675 184.515 138.408C185.021 138.128 185.668 137.988 186.455 137.988C187.335 137.988 188.041 138.135 188.575 138.428C189.108 138.722 189.481 139.102 189.695 139.568C189.908 140.035 189.975 140.542 189.895 141.088L188.335 141.368C188.495 140.502 188.401 139.828 188.055 139.348C187.721 138.868 187.168 138.628 186.395 138.628C185.795 138.628 185.315 138.782 184.955 139.088C184.595 139.382 184.415 139.815 184.415 140.388C184.415 140.815 184.548 141.195 184.815 141.528C185.081 141.848 185.528 142.088 186.155 142.248L187.415 142.548C188.295 142.762 188.975 143.102 189.455 143.568C189.948 144.035 190.195 144.648 190.195 145.408C190.195 146.262 189.881 146.955 189.255 147.488C188.641 148.022 187.761 148.288 186.615 148.288C186.068 148.288 185.535 148.208 185.015 148.048C184.508 147.875 184.061 147.608 183.675 147.248C183.301 146.875 183.028 146.395 182.855 145.808L183.975 145.408C184.121 146.248 184.441 146.835 184.935 147.168C185.428 147.502 185.995 147.668 186.635 147.668C187.008 147.668 187.361 147.608 187.695 147.488C188.041 147.368 188.321 147.182 188.535 146.928C188.748 146.662 188.855 146.322 188.855 145.908C188.855 145.482 188.708 145.115 188.415 144.808C188.121 144.502 187.588 144.248 186.815 144.048Z" fill="#0E230A"/>
<path d="M193.231 71.5906V84.0086H173.585V103.895H161.324V84.0086H141.678V71.5906H161.324V51.7038H173.585V71.5906H193.231ZM140.39 70.5181H156.409C156.475 69.549 156.475 69.3422 156.501 68.4765C158.262 66.3702 158.919 64.2381 160.128 61.8346V50.5279L164.268 50.3728C164.688 45.7209 163.979 41.0174 161.915 36.5851C156.987 25.9762 150.325 21.9575 139.772 22.2805C136.474 9.59121 123.437 0.0677405 110.125 0.610462C96.8127 1.15318 84.6437 11.7233 82.0549 25.5886C66.2194 31.5585 56.1531 49.5975 59.5567 65.9438C62.9604 82.29 79.4135 94.9923 97.0756 93.0927C101.964 94.876 107.457 94.3203 112.017 92.0202C112.282 104.303 111.252 116.58 108.942 128.654C109.376 129.145 123.713 128.719 123.713 128.719C121.509 114.077 121.66 99.1856 124.16 84.5901C129.154 90.5213 137.564 93.7001 145.278 92.059C149.405 91.1932 152.072 88.9319 153.728 85.0812H140.39V70.5181Z" fill="#0E230A"/>
</g>
<defs>
<filter id="filter0_d_453_2005" x="54.8953" y="0.588379" width="142.336" height="159.96" filterUnits="userSpaceOnUse" color-interpolation-filters="sRGB">
<feFlood flood-opacity="0" result="BackgroundImageFix"/>
<feColorMatrix in="SourceAlpha" type="matrix" values="0 0 0 0 0 0 0 0 0 0 0 0 0 0 0 0 0 0 127 0" result="hardAlpha"/>
<feOffset dy="4"/>
<feGaussianBlur stdDeviation="2"/>
<feComposite in2="hardAlpha" operator="out"/>
<feColorMatrix type="matrix" values="0 0 0 0 0 0 0 0 0 0 0 0 0 0 0 0 0 0 0.25 0"/>
<feBlend mode="normal" in2="BackgroundImageFix" result="effect1_dropShadow_453_2005"/>
<feBlend mode="normal" in="SourceGraphic" in2="effect1_dropShadow_453_2005" result="shape"/>
</filter>
</defs>
</svg>
