<svg width="256" height="171" viewBox="0 0 256 171" fill="none" xmlns="http://www.w3.org/2000/svg">
<g filter="url(#filter0_d_453_2014)">
<path d="M65.5083 135.028V134.488H71.0683C72.375 134.488 73.375 134.802 74.0683 135.428C74.775 136.042 75.1283 136.862 75.1283 137.888V138.508C75.1283 139.322 74.9017 140.015 74.4483 140.588C74.0083 141.148 73.375 141.535 72.5483 141.748L75.1083 146.468C75.2817 146.788 75.4083 147.015 75.4883 147.148C75.5683 147.268 75.6417 147.348 75.7083 147.388C75.7883 147.415 75.895 147.435 76.0283 147.448L76.9283 147.568V148.088H73.9083L70.7483 141.928H68.7883V146.468C68.7883 146.935 68.8083 147.208 68.8483 147.288C68.8883 147.368 69.015 147.422 69.2283 147.448L70.3283 147.568V148.088H65.5083V147.568L66.6083 147.448C66.8217 147.422 66.9483 147.368 66.9883 147.288C67.0283 147.208 67.0483 146.935 67.0483 146.468V136.108C67.0483 135.642 67.0283 135.368 66.9883 135.288C66.9483 135.208 66.8217 135.155 66.6083 135.128L65.5083 135.028ZM71.0683 135.128H68.7883V141.288H71.0683C71.7617 141.288 72.3017 141.068 72.6883 140.628C73.0883 140.175 73.2883 139.495 73.2883 138.588V137.808C73.2883 136.902 73.0883 136.228 72.6883 135.788C72.3017 135.348 71.7617 135.128 71.0683 135.128ZM86.1902 145.808C85.9502 146.715 85.4969 147.355 84.8302 147.728C84.1769 148.102 83.4502 148.288 82.6502 148.288C81.1702 148.288 80.0635 147.842 79.3302 146.948C78.5969 146.042 78.2302 144.835 78.2302 143.328V142.928C78.2302 141.435 78.5835 140.242 79.2902 139.348C79.9969 138.442 81.0235 137.988 82.3702 137.988C83.0902 137.988 83.7435 138.135 84.3302 138.428C84.9302 138.722 85.4035 139.155 85.7502 139.728C86.1102 140.302 86.2902 141.015 86.2902 141.868C86.2902 142.268 86.2502 142.688 86.1702 143.128H80.0302V143.728C80.0302 145.128 80.2435 146.135 80.6702 146.748C81.1102 147.348 81.8169 147.648 82.7902 147.648C83.4035 147.648 83.9102 147.488 84.3102 147.168C84.7235 146.848 84.9969 146.295 85.1302 145.508L86.1902 145.808ZM82.3702 138.628C81.5835 138.628 80.9969 138.928 80.6102 139.528C80.2235 140.128 80.0302 141.115 80.0302 142.488H84.5302V142.428C84.5569 142.255 84.5769 142.088 84.5902 141.928C84.6035 141.755 84.6102 141.602 84.6102 141.468C84.6102 140.468 84.4035 139.748 83.9902 139.308C83.5769 138.855 83.0369 138.628 82.3702 138.628ZM97.498 149.248C97.498 150.315 97.1047 151.128 96.318 151.688C95.5447 152.262 94.4647 152.548 93.078 152.548C91.558 152.548 90.4447 152.282 89.738 151.748C89.0314 151.228 88.6647 150.568 88.638 149.768L90.118 149.468C90.0647 150.202 90.258 150.788 90.698 151.228C91.1514 151.682 91.9447 151.908 93.078 151.908C94.0914 151.908 94.9047 151.722 95.518 151.348C96.1447 150.975 96.458 150.428 96.458 149.708C96.458 149.175 96.278 148.775 95.918 148.508C95.558 148.242 94.9647 148.108 94.138 148.108H91.758C90.8647 148.108 90.238 147.922 89.878 147.548C89.518 147.162 89.338 146.735 89.338 146.268C89.338 145.882 89.4314 145.522 89.618 145.188C89.818 144.842 90.1314 144.502 90.558 144.168C90.0247 143.915 89.5914 143.548 89.258 143.068C88.9247 142.575 88.758 141.982 88.758 141.288C88.758 140.555 88.9247 139.948 89.258 139.468C89.6047 138.975 90.058 138.608 90.618 138.368C91.1914 138.115 91.8247 137.988 92.518 137.988H92.858C93.5914 137.988 94.2447 138.122 94.818 138.388L97.718 137.388L97.938 138.888H95.598C95.9047 139.155 96.1447 139.488 96.318 139.888C96.5047 140.288 96.598 140.755 96.598 141.288C96.598 141.995 96.4247 142.595 96.078 143.088C95.7447 143.582 95.298 143.955 94.738 144.208C94.178 144.448 93.5514 144.568 92.858 144.568H92.518C92.2914 144.568 92.0714 144.555 91.858 144.528C91.6447 144.502 91.438 144.462 91.238 144.408C90.9447 144.608 90.7314 144.815 90.598 145.028C90.478 145.242 90.418 145.462 90.418 145.688C90.418 145.955 90.5114 146.168 90.698 146.328C90.898 146.488 91.2114 146.568 91.638 146.568H94.238C95.2914 146.568 96.098 146.795 96.658 147.248C97.218 147.702 97.498 148.368 97.498 149.248ZM92.858 143.928C93.218 143.928 93.5447 143.848 93.838 143.688C94.1447 143.528 94.3914 143.262 94.578 142.888C94.7647 142.502 94.858 141.968 94.858 141.288C94.858 140.595 94.7647 140.062 94.578 139.688C94.3914 139.302 94.1447 139.028 93.838 138.868C93.5447 138.708 93.218 138.628 92.858 138.628H92.518C92.158 138.628 91.8247 138.708 91.518 138.868C91.2114 139.028 90.9647 139.302 90.778 139.688C90.5914 140.062 90.498 140.595 90.498 141.288C90.498 141.968 90.5914 142.502 90.778 142.888C90.9647 143.262 91.2114 143.528 91.518 143.688C91.8247 143.848 92.158 143.928 92.518 143.928H92.858ZM101.319 135.948C100.999 135.948 100.732 135.848 100.519 135.648C100.319 135.435 100.219 135.162 100.219 134.828C100.219 134.508 100.319 134.248 100.519 134.048C100.732 133.848 100.999 133.748 101.319 133.748C101.639 133.748 101.899 133.848 102.099 134.048C102.312 134.248 102.419 134.508 102.419 134.828C102.419 135.162 102.312 135.435 102.099 135.648C101.899 135.848 101.639 135.948 101.319 135.948ZM98.9788 138.728V138.188H102.159V146.468C102.159 146.935 102.179 147.208 102.219 147.288C102.259 147.368 102.385 147.422 102.599 147.448L103.699 147.568V148.088H98.9788V147.568L100.079 147.448C100.292 147.422 100.419 147.368 100.459 147.288C100.499 147.208 100.519 146.935 100.519 146.468V139.808C100.519 139.342 100.499 139.068 100.459 138.988C100.419 138.908 100.292 138.855 100.079 138.828L98.9788 138.728ZM109.175 144.048L107.955 143.748C106.289 143.322 105.455 142.362 105.455 140.868C105.455 140.375 105.569 139.908 105.795 139.468C106.022 139.028 106.382 138.675 106.875 138.408C107.382 138.128 108.029 137.988 108.815 137.988C109.695 137.988 110.402 138.135 110.935 138.428C111.469 138.722 111.842 139.102 112.055 139.568C112.269 140.035 112.335 140.542 112.255 141.088L110.695 141.368C110.855 140.502 110.762 139.828 110.415 139.348C110.082 138.868 109.529 138.628 108.755 138.628C108.155 138.628 107.675 138.782 107.315 139.088C106.955 139.382 106.775 139.815 106.775 140.388C106.775 140.815 106.909 141.195 107.175 141.528C107.442 141.848 107.889 142.088 108.515 142.248L109.775 142.548C110.655 142.762 111.335 143.102 111.815 143.568C112.309 144.035 112.555 144.648 112.555 145.408C112.555 146.262 112.242 146.955 111.615 147.488C111.002 148.022 110.122 148.288 108.975 148.288C108.429 148.288 107.895 148.208 107.375 148.048C106.869 147.875 106.422 147.608 106.035 147.248C105.662 146.875 105.389 146.395 105.215 145.808L106.335 145.408C106.482 146.248 106.802 146.835 107.295 147.168C107.789 147.502 108.355 147.668 108.995 147.668C109.369 147.668 109.722 147.608 110.055 147.488C110.402 147.368 110.682 147.182 110.895 146.928C111.109 146.662 111.215 146.322 111.215 145.908C111.215 145.482 111.069 145.115 110.775 144.808C110.482 144.502 109.949 144.248 109.175 144.048ZM121.028 146.048C120.828 146.822 120.515 147.388 120.088 147.748C119.661 148.108 119.115 148.288 118.448 148.288C117.808 148.288 117.288 148.148 116.888 147.868C116.488 147.575 116.195 147.195 116.008 146.728C115.821 146.262 115.728 145.775 115.728 145.268V139.808C115.728 139.342 115.708 139.068 115.668 138.988C115.641 138.908 115.515 138.855 115.288 138.828L114.188 138.728V138.188H115.728V135.568L117.368 135.228V138.188H120.628V138.828H117.368V145.428C117.368 146.268 117.481 146.848 117.708 147.168C117.948 147.488 118.261 147.648 118.648 147.648C119.035 147.648 119.328 147.502 119.528 147.208C119.741 146.915 119.895 146.435 119.988 145.768L121.028 146.048ZM130.682 145.808C130.442 146.715 129.989 147.355 129.322 147.728C128.669 148.102 127.942 148.288 127.142 148.288C125.662 148.288 124.556 147.842 123.822 146.948C123.089 146.042 122.722 144.835 122.722 143.328V142.928C122.722 141.435 123.076 140.242 123.782 139.348C124.489 138.442 125.516 137.988 126.862 137.988C127.582 137.988 128.236 138.135 128.822 138.428C129.422 138.722 129.896 139.155 130.242 139.728C130.602 140.302 130.782 141.015 130.782 141.868C130.782 142.268 130.742 142.688 130.662 143.128H124.522V143.728C124.522 145.128 124.736 146.135 125.162 146.748C125.602 147.348 126.309 147.648 127.282 147.648C127.896 147.648 128.402 147.488 128.802 147.168C129.216 146.848 129.489 146.295 129.622 145.508L130.682 145.808ZM126.862 138.628C126.076 138.628 125.489 138.928 125.102 139.528C124.716 140.128 124.522 141.115 124.522 142.488H129.022V142.428C129.049 142.255 129.069 142.088 129.082 141.928C129.096 141.755 129.102 141.602 129.102 141.468C129.102 140.468 128.896 139.748 128.482 139.308C128.069 138.855 127.529 138.628 126.862 138.628ZM132.67 138.728V138.188H135.75V139.788C136.217 139.162 136.684 138.708 137.15 138.428C137.63 138.135 138.117 137.988 138.61 137.988C139.037 137.988 139.437 138.115 139.81 138.368C140.184 138.622 140.497 139.028 140.75 139.588L139.45 140.368C139.25 139.888 139.024 139.555 138.77 139.368C138.517 139.182 138.237 139.088 137.93 139.088C137.597 139.088 137.264 139.195 136.93 139.408C136.61 139.622 136.25 140.022 135.85 140.608V146.468C135.85 146.935 135.87 147.215 135.91 147.308C135.95 147.388 136.077 147.435 136.29 147.448L137.79 147.568V148.088H132.67V147.568L133.77 147.448C133.984 147.422 134.11 147.368 134.15 147.288C134.19 147.208 134.21 146.935 134.21 146.468V139.808C134.21 139.342 134.19 139.068 134.15 138.988C134.11 138.908 133.984 138.855 133.77 138.828L132.67 138.728ZM152.591 146.048C152.391 146.822 152.077 147.388 151.651 147.748C151.224 148.108 150.677 148.288 150.011 148.288C149.371 148.288 148.851 148.148 148.451 147.868C148.051 147.575 147.757 147.195 147.571 146.728C147.384 146.262 147.291 145.775 147.291 145.268V139.808C147.291 139.342 147.271 139.068 147.231 138.988C147.204 138.908 147.077 138.855 146.851 138.828L145.751 138.728V138.188H147.291V135.568L148.931 135.228V138.188H152.191V138.828H148.931V145.428C148.931 146.268 149.044 146.848 149.271 147.168C149.511 147.488 149.824 147.648 150.211 147.648C150.597 147.648 150.891 147.502 151.091 147.208C151.304 146.915 151.457 146.435 151.551 145.768L152.591 146.048ZM153.725 138.728V138.188H156.805V139.788C157.272 139.162 157.738 138.708 158.205 138.428C158.685 138.135 159.172 137.988 159.665 137.988C160.092 137.988 160.492 138.115 160.865 138.368C161.238 138.622 161.552 139.028 161.805 139.588L160.505 140.368C160.305 139.888 160.078 139.555 159.825 139.368C159.572 139.182 159.292 139.088 158.985 139.088C158.652 139.088 158.318 139.195 157.985 139.408C157.665 139.622 157.305 140.022 156.905 140.608V146.468C156.905 146.935 156.925 147.215 156.965 147.308C157.005 147.388 157.132 147.435 157.345 147.448L158.845 147.568V148.088H153.725V147.568L154.825 147.448C155.038 147.422 155.165 147.368 155.205 147.288C155.245 147.208 155.265 146.935 155.265 146.468V139.808C155.265 139.342 155.245 139.068 155.205 138.988C155.165 138.908 155.038 138.855 154.825 138.828L153.725 138.728ZM170.917 145.808C170.677 146.715 170.223 147.355 169.557 147.728C168.903 148.102 168.177 148.288 167.377 148.288C165.897 148.288 164.79 147.842 164.057 146.948C163.323 146.042 162.957 144.835 162.957 143.328V142.928C162.957 141.435 163.31 140.242 164.017 139.348C164.723 138.442 165.75 137.988 167.097 137.988C167.817 137.988 168.47 138.135 169.057 138.428C169.657 138.722 170.13 139.155 170.477 139.728C170.837 140.302 171.017 141.015 171.017 141.868C171.017 142.268 170.977 142.688 170.897 143.128H164.757V143.728C164.757 145.128 164.97 146.135 165.397 146.748C165.837 147.348 166.543 147.648 167.517 147.648C168.13 147.648 168.637 147.488 169.037 147.168C169.45 146.848 169.723 146.295 169.857 145.508L170.917 145.808ZM167.097 138.628C166.31 138.628 165.723 138.928 165.337 139.528C164.95 140.128 164.757 141.115 164.757 142.488H169.257V142.428C169.283 142.255 169.303 142.088 169.317 141.928C169.33 141.755 169.337 141.602 169.337 141.468C169.337 140.468 169.13 139.748 168.717 139.308C168.303 138.855 167.763 138.628 167.097 138.628ZM181.425 145.808C181.185 146.715 180.731 147.355 180.065 147.728C179.411 148.102 178.685 148.288 177.885 148.288C176.405 148.288 175.298 147.842 174.565 146.948C173.831 146.042 173.465 144.835 173.465 143.328V142.928C173.465 141.435 173.818 140.242 174.525 139.348C175.231 138.442 176.258 137.988 177.605 137.988C178.325 137.988 178.978 138.135 179.565 138.428C180.165 138.722 180.638 139.155 180.985 139.728C181.345 140.302 181.525 141.015 181.525 141.868C181.525 142.268 181.485 142.688 181.405 143.128H175.265V143.728C175.265 145.128 175.478 146.135 175.905 146.748C176.345 147.348 177.051 147.648 178.025 147.648C178.638 147.648 179.145 147.488 179.545 147.168C179.958 146.848 180.231 146.295 180.365 145.508L181.425 145.808ZM177.605 138.628C176.818 138.628 176.231 138.928 175.845 139.528C175.458 140.128 175.265 141.115 175.265 142.488H179.765V142.428C179.791 142.255 179.811 142.088 179.825 141.928C179.838 141.755 179.845 141.602 179.845 141.468C179.845 140.468 179.638 139.748 179.225 139.308C178.811 138.855 178.271 138.628 177.605 138.628ZM187.632 144.048L186.412 143.748C184.746 143.322 183.912 142.362 183.912 140.868C183.912 140.375 184.026 139.908 184.252 139.468C184.479 139.028 184.839 138.675 185.332 138.408C185.839 138.128 186.486 137.988 187.272 137.988C188.152 137.988 188.859 138.135 189.392 138.428C189.926 138.722 190.299 139.102 190.512 139.568C190.726 140.035 190.792 140.542 190.712 141.088L189.152 141.368C189.312 140.502 189.219 139.828 188.872 139.348C188.539 138.868 187.986 138.628 187.212 138.628C186.612 138.628 186.132 138.782 185.772 139.088C185.412 139.382 185.232 139.815 185.232 140.388C185.232 140.815 185.366 141.195 185.632 141.528C185.899 141.848 186.346 142.088 186.972 142.248L188.232 142.548C189.112 142.762 189.792 143.102 190.272 143.568C190.766 144.035 191.012 144.648 191.012 145.408C191.012 146.262 190.699 146.955 190.072 147.488C189.459 148.022 188.579 148.288 187.432 148.288C186.886 148.288 186.352 148.208 185.832 148.048C185.326 147.875 184.879 147.608 184.492 147.248C184.119 146.875 183.846 146.395 183.672 145.808L184.792 145.408C184.939 146.248 185.259 146.835 185.752 147.168C186.246 147.502 186.812 147.668 187.452 147.668C187.826 147.668 188.179 147.608 188.512 147.488C188.859 147.368 189.139 147.182 189.352 146.928C189.566 146.662 189.672 146.322 189.672 145.908C189.672 145.482 189.526 145.115 189.232 144.808C188.939 144.502 188.406 144.248 187.632 144.048Z" fill="#0E230A" fill-opacity="0.6"/>
<path d="M194.049 71.5906V84.0086H174.403V103.895H162.142V84.0086H142.495V71.5906H162.142V51.7038H174.403V71.5906H194.049ZM141.207 70.5181H157.227C157.293 69.549 157.292 69.3422 157.319 68.4765C159.08 66.3702 159.737 64.2381 160.946 61.8346V50.5279L165.085 50.3728C165.506 45.7209 164.796 41.0174 162.733 36.5851C157.805 25.9762 151.142 21.9575 140.59 22.2805C137.291 9.59121 124.255 0.0677405 110.943 0.610462C97.6303 1.15318 85.4614 11.7233 82.8725 25.5886C67.0371 31.5585 56.9707 49.5975 60.3744 65.9438C63.778 82.29 80.2311 94.9923 97.8932 93.0927C102.782 94.876 108.275 94.3203 112.835 92.0202C113.1 104.303 112.069 116.58 109.76 128.654C110.194 129.145 124.531 128.719 124.531 128.719C122.327 114.077 122.477 99.1856 124.978 84.5901C129.971 90.5213 138.382 93.7001 146.096 92.059C150.222 91.1932 152.89 88.9319 154.546 85.0812H141.207V70.5181Z" fill="#0E230A" fill-opacity="0.6"/>
</g>
<defs>
<filter id="filter0_d_453_2014" x="55.7129" y="0.588379" width="142.336" height="159.96" filterUnits="userSpaceOnUse" color-interpolation-filters="sRGB">
<feFlood flood-opacity="0" result="BackgroundImageFix"/>
<feColorMatrix in="SourceAlpha" type="matrix" values="0 0 0 0 0 0 0 0 0 0 0 0 0 0 0 0 0 0 127 0" result="hardAlpha"/>
<feOffset dy="4"/>
<feGaussianBlur stdDeviation="2"/>
<feComposite in2="hardAlpha" operator="out"/>
<feColorMatrix type="matrix" values="0 0 0 0 0 0 0 0 0 0 0 0 0 0 0 0 0 0 0.25 0"/>
<feBlend mode="normal" in2="BackgroundImageFix" result="effect1_dropShadow_453_2014"/>
<feBlend mode="normal" in="SourceGraphic" in2="effect1_dropShadow_453_2014" result="shape"/>
</filter>
</defs>
</svg>
