<svg width="78" height="61" viewBox="0 0 78 61" fill="none" xmlns="http://www.w3.org/2000/svg">
<g filter="url(#filter0_d_262_378)">
<path d="M4.4279 42.817V42.52H7.4859C8.20457 42.52 8.75457 42.6923 9.1359 43.037C9.52457 43.3743 9.7189 43.8253 9.7189 44.39V44.731C9.7189 45.1783 9.59424 45.5597 9.3449 45.875C9.1029 46.183 8.75457 46.3957 8.2999 46.513L9.7079 49.109C9.80324 49.285 9.8729 49.4097 9.9169 49.483C9.9609 49.549 10.0012 49.593 10.0379 49.615C10.0819 49.6297 10.1406 49.6407 10.2139 49.648L10.7089 49.714V50H9.0479L7.3099 46.612H6.2319V49.109C6.2319 49.3657 6.2429 49.516 6.2649 49.56C6.2869 49.604 6.35657 49.6333 6.4739 49.648L7.0789 49.714V50H4.4279V49.714L5.0329 49.648C5.15024 49.6333 5.2199 49.604 5.2419 49.56C5.2639 49.516 5.2749 49.3657 5.2749 49.109V43.411C5.2749 43.1543 5.2639 43.004 5.2419 42.96C5.2199 42.916 5.15024 42.8867 5.0329 42.872L4.4279 42.817ZM7.4859 42.872H6.2319V46.26H7.4859C7.86724 46.26 8.16424 46.139 8.3769 45.897C8.5969 45.6477 8.7069 45.2737 8.7069 44.775V44.346C8.7069 43.8473 8.5969 43.477 8.3769 43.235C8.16424 42.993 7.86724 42.872 7.4859 42.872ZM15.8029 48.746C15.6709 49.2447 15.4216 49.5967 15.0549 49.802C14.6956 50.0073 14.2959 50.11 13.8559 50.11C13.0419 50.11 12.4333 49.8643 12.0299 49.373C11.6266 48.8743 11.4249 48.2107 11.4249 47.382V47.162C11.4249 46.3407 11.6193 45.6843 12.0079 45.193C12.3966 44.6943 12.9613 44.445 13.7019 44.445C14.0979 44.445 14.4573 44.5257 14.7799 44.687C15.1099 44.8483 15.3703 45.0867 15.5609 45.402C15.7589 45.7173 15.8579 46.1097 15.8579 46.579C15.8579 46.799 15.8359 47.03 15.7919 47.272H12.4149V47.602C12.4149 48.372 12.5323 48.9257 12.7669 49.263C13.0089 49.593 13.3976 49.758 13.9329 49.758C14.2703 49.758 14.5489 49.67 14.7689 49.494C14.9963 49.318 15.1466 49.0137 15.2199 48.581L15.8029 48.746ZM13.7019 44.797C13.2693 44.797 12.9466 44.962 12.7339 45.292C12.5213 45.622 12.4149 46.1647 12.4149 46.92H14.8899V46.887C14.9046 46.7917 14.9156 46.7 14.9229 46.612C14.9303 46.5167 14.9339 46.4323 14.9339 46.359C14.9339 45.809 14.8203 45.413 14.5929 45.171C14.3656 44.9217 14.0686 44.797 13.7019 44.797ZM22.0222 50.638C22.0222 51.2247 21.8059 51.672 21.3732 51.98C20.9479 52.2953 20.3539 52.453 19.5912 52.453C18.7552 52.453 18.1429 52.3063 17.7542 52.013C17.3656 51.727 17.1639 51.364 17.1492 50.924L17.9632 50.759C17.9339 51.1623 18.0402 51.485 18.2822 51.727C18.5316 51.9763 18.9679 52.101 19.5912 52.101C20.1486 52.101 20.5959 51.9983 20.9332 51.793C21.2779 51.5877 21.4502 51.287 21.4502 50.891C21.4502 50.5977 21.3512 50.3777 21.1532 50.231C20.9552 50.0843 20.6289 50.011 20.1742 50.011H18.8652C18.3739 50.011 18.0292 49.9083 17.8312 49.703C17.6332 49.4903 17.5342 49.2557 17.5342 48.999C17.5342 48.7863 17.5856 48.5883 17.6882 48.405C17.7982 48.2143 17.9706 48.0273 18.2052 47.844C17.9119 47.7047 17.6736 47.503 17.4902 47.239C17.3069 46.9677 17.2152 46.6413 17.2152 46.26C17.2152 45.8567 17.3069 45.523 17.4902 45.259C17.6809 44.9877 17.9302 44.786 18.2382 44.654C18.5536 44.5147 18.9019 44.445 19.2832 44.445H19.4702C19.8736 44.445 20.2329 44.5183 20.5482 44.665L22.1432 44.115L22.2642 44.94H20.9772C21.1459 45.0867 21.2779 45.27 21.3732 45.49C21.4759 45.71 21.5272 45.9667 21.5272 46.26C21.5272 46.6487 21.4319 46.9787 21.2412 47.25C21.0579 47.5213 20.8122 47.7267 20.5042 47.866C20.1962 47.998 19.8516 48.064 19.4702 48.064H19.2832C19.1586 48.064 19.0376 48.0567 18.9202 48.042C18.8029 48.0273 18.6892 48.0053 18.5792 47.976C18.4179 48.086 18.3006 48.1997 18.2272 48.317C18.1612 48.4343 18.1282 48.5553 18.1282 48.68C18.1282 48.8267 18.1796 48.944 18.2822 49.032C18.3922 49.12 18.5646 49.164 18.7992 49.164H20.2292C20.8086 49.164 21.2522 49.2887 21.5602 49.538C21.8682 49.7873 22.0222 50.154 22.0222 50.638ZM19.4702 47.712C19.6682 47.712 19.8479 47.668 20.0092 47.58C20.1779 47.492 20.3136 47.3453 20.4162 47.14C20.5189 46.9273 20.5702 46.634 20.5702 46.26C20.5702 45.8787 20.5189 45.5853 20.4162 45.38C20.3136 45.1673 20.1779 45.017 20.0092 44.929C19.8479 44.841 19.6682 44.797 19.4702 44.797H19.2832C19.0852 44.797 18.9019 44.841 18.7332 44.929C18.5646 45.017 18.4289 45.1673 18.3262 45.38C18.2236 45.5853 18.1722 45.8787 18.1722 46.26C18.1722 46.634 18.2236 46.9273 18.3262 47.14C18.4289 47.3453 18.5646 47.492 18.7332 47.58C18.9019 47.668 19.0852 47.712 19.2832 47.712H19.4702ZM24.1237 43.323C23.9477 43.323 23.801 43.268 23.6837 43.158C23.5737 43.0407 23.5187 42.8903 23.5187 42.707C23.5187 42.531 23.5737 42.388 23.6837 42.278C23.801 42.168 23.9477 42.113 24.1237 42.113C24.2997 42.113 24.4427 42.168 24.5527 42.278C24.67 42.388 24.7287 42.531 24.7287 42.707C24.7287 42.8903 24.67 43.0407 24.5527 43.158C24.4427 43.268 24.2997 43.323 24.1237 43.323ZM22.8367 44.852V44.555H24.5857V49.109C24.5857 49.3657 24.5967 49.516 24.6187 49.56C24.6407 49.604 24.7103 49.6333 24.8277 49.648L25.4327 49.714V50H22.8367V49.714L23.4417 49.648C23.559 49.6333 23.6287 49.604 23.6507 49.56C23.6727 49.516 23.6837 49.3657 23.6837 49.109V45.446C23.6837 45.1893 23.6727 45.039 23.6507 44.995C23.6287 44.951 23.559 44.9217 23.4417 44.907L22.8367 44.852ZM28.4448 47.778L27.7738 47.613C26.8571 47.3783 26.3988 46.8503 26.3988 46.029C26.3988 45.7577 26.4611 45.501 26.5858 45.259C26.7104 45.017 26.9084 44.8227 27.1798 44.676C27.4584 44.522 27.8141 44.445 28.2468 44.445C28.7308 44.445 29.1194 44.5257 29.4128 44.687C29.7061 44.8483 29.9114 45.0573 30.0288 45.314C30.1461 45.5707 30.1828 45.8493 30.1388 46.15L29.2808 46.304C29.3688 45.8273 29.3174 45.457 29.1268 45.193C28.9434 44.929 28.6391 44.797 28.2138 44.797C27.8838 44.797 27.6198 44.8813 27.4218 45.05C27.2238 45.2113 27.1248 45.4497 27.1248 45.765C27.1248 45.9997 27.1981 46.2087 27.3448 46.392C27.4914 46.568 27.7371 46.7 28.0818 46.788L28.7748 46.953C29.2588 47.0703 29.6328 47.2573 29.8968 47.514C30.1681 47.7707 30.3038 48.108 30.3038 48.526C30.3038 48.9953 30.1314 49.3767 29.7868 49.67C29.4494 49.9633 28.9654 50.11 28.3348 50.11C28.0341 50.11 27.7408 50.066 27.4548 49.978C27.1761 49.8827 26.9304 49.736 26.7178 49.538C26.5124 49.3327 26.3621 49.0687 26.2668 48.746L26.8828 48.526C26.9634 48.988 27.1394 49.3107 27.4108 49.494C27.6821 49.6773 27.9938 49.769 28.3458 49.769C28.5511 49.769 28.7454 49.736 28.9288 49.67C29.1194 49.604 29.2734 49.5013 29.3908 49.362C29.5081 49.2153 29.5668 49.0283 29.5668 48.801C29.5668 48.5663 29.4861 48.3647 29.3248 48.196C29.1634 48.0273 28.8701 47.888 28.4448 47.778ZM34.9637 48.878C34.8537 49.3033 34.6814 49.615 34.4467 49.813C34.2121 50.011 33.9114 50.11 33.5447 50.11C33.1927 50.11 32.9067 50.033 32.6867 49.879C32.4667 49.7177 32.3054 49.5087 32.2027 49.252C32.1001 48.9953 32.0487 48.7277 32.0487 48.449V45.446C32.0487 45.1893 32.0377 45.039 32.0157 44.995C32.0011 44.951 31.9314 44.9217 31.8067 44.907L31.2017 44.852V44.555H32.0487V43.114L32.9507 42.927V44.555H34.7437V44.907H32.9507V48.537C32.9507 48.999 33.0131 49.318 33.1377 49.494C33.2697 49.67 33.4421 49.758 33.6547 49.758C33.8674 49.758 34.0287 49.6773 34.1387 49.516C34.2561 49.3547 34.3404 49.0907 34.3917 48.724L34.9637 48.878ZM40.2736 48.746C40.1416 49.2447 39.8923 49.5967 39.5256 49.802C39.1663 50.0073 38.7666 50.11 38.3266 50.11C37.5126 50.11 36.904 49.8643 36.5006 49.373C36.0973 48.8743 35.8956 48.2107 35.8956 47.382V47.162C35.8956 46.3407 36.09 45.6843 36.4786 45.193C36.8673 44.6943 37.432 44.445 38.1726 44.445C38.5686 44.445 38.928 44.5257 39.2506 44.687C39.5806 44.8483 39.841 45.0867 40.0316 45.402C40.2296 45.7173 40.3286 46.1097 40.3286 46.579C40.3286 46.799 40.3066 47.03 40.2626 47.272H36.8856V47.602C36.8856 48.372 37.003 48.9257 37.2376 49.263C37.4796 49.593 37.8683 49.758 38.4036 49.758C38.741 49.758 39.0196 49.67 39.2396 49.494C39.467 49.318 39.6173 49.0137 39.6906 48.581L40.2736 48.746ZM38.1726 44.797C37.74 44.797 37.4173 44.962 37.2046 45.292C36.992 45.622 36.8856 46.1647 36.8856 46.92H39.3606V46.887C39.3753 46.7917 39.3863 46.7 39.3936 46.612C39.401 46.5167 39.4046 46.4323 39.4046 46.359C39.4046 45.809 39.291 45.413 39.0636 45.171C38.8363 44.9217 38.5393 44.797 38.1726 44.797ZM41.3669 44.852V44.555H43.0609V45.435C43.3176 45.0903 43.5743 44.841 43.8309 44.687C44.0949 44.5257 44.3626 44.445 44.6339 44.445C44.8686 44.445 45.0886 44.5147 45.2939 44.654C45.4993 44.7933 45.6716 45.017 45.8109 45.325L45.0959 45.754C44.9859 45.49 44.8613 45.3067 44.7219 45.204C44.5826 45.1013 44.4286 45.05 44.2599 45.05C44.0766 45.05 43.8933 45.1087 43.7099 45.226C43.5339 45.3433 43.3359 45.5633 43.1159 45.886V49.109C43.1159 49.3657 43.1269 49.5197 43.1489 49.571C43.1709 49.615 43.2406 49.6407 43.3579 49.648L44.1829 49.714V50H41.3669V49.714L41.9719 49.648C42.0893 49.6333 42.1589 49.604 42.1809 49.56C42.2029 49.516 42.2139 49.3657 42.2139 49.109V45.446C42.2139 45.1893 42.2029 45.039 42.1809 44.995C42.1589 44.951 42.0893 44.9217 41.9719 44.907L41.3669 44.852ZM52.3231 48.878C52.2131 49.3033 52.0408 49.615 51.8061 49.813C51.5714 50.011 51.2708 50.11 50.9041 50.11C50.5521 50.11 50.2661 50.033 50.0461 49.879C49.8261 49.7177 49.6648 49.5087 49.5621 49.252C49.4594 48.9953 49.4081 48.7277 49.4081 48.449V45.446C49.4081 45.1893 49.3971 45.039 49.3751 44.995C49.3604 44.951 49.2908 44.9217 49.1661 44.907L48.5611 44.852V44.555H49.4081V43.114L50.3101 42.927V44.555H52.1031V44.907H50.3101V48.537C50.3101 48.999 50.3724 49.318 50.4971 49.494C50.6291 49.67 50.8014 49.758 51.0141 49.758C51.2268 49.758 51.3881 49.6773 51.4981 49.516C51.6154 49.3547 51.6998 49.0907 51.7511 48.724L52.3231 48.878ZM52.947 44.852V44.555H54.641V45.435C54.8977 45.0903 55.1543 44.841 55.411 44.687C55.675 44.5257 55.9427 44.445 56.214 44.445C56.4487 44.445 56.6687 44.5147 56.874 44.654C57.0793 44.7933 57.2517 45.017 57.391 45.325L56.676 45.754C56.566 45.49 56.4413 45.3067 56.302 45.204C56.1627 45.1013 56.0087 45.05 55.84 45.05C55.6567 45.05 55.4733 45.1087 55.29 45.226C55.114 45.3433 54.916 45.5633 54.696 45.886V49.109C54.696 49.3657 54.707 49.5197 54.729 49.571C54.751 49.615 54.8207 49.6407 54.938 49.648L55.763 49.714V50H52.947V49.714L53.552 49.648C53.6693 49.6333 53.739 49.604 53.761 49.56C53.783 49.516 53.794 49.3657 53.794 49.109V45.446C53.794 45.1893 53.783 45.039 53.761 44.995C53.739 44.951 53.6693 44.9217 53.552 44.907L52.947 44.852ZM62.4025 48.746C62.2705 49.2447 62.0212 49.5967 61.6545 49.802C61.2952 50.0073 60.8955 50.11 60.4555 50.11C59.6415 50.11 59.0329 49.8643 58.6295 49.373C58.2262 48.8743 58.0245 48.2107 58.0245 47.382V47.162C58.0245 46.3407 58.2189 45.6843 58.6075 45.193C58.9962 44.6943 59.5609 44.445 60.3015 44.445C60.6975 44.445 61.0569 44.5257 61.3795 44.687C61.7095 44.8483 61.9699 45.0867 62.1605 45.402C62.3585 45.7173 62.4575 46.1097 62.4575 46.579C62.4575 46.799 62.4355 47.03 62.3915 47.272H59.0145V47.602C59.0145 48.372 59.1319 48.9257 59.3665 49.263C59.6085 49.593 59.9972 49.758 60.5325 49.758C60.8699 49.758 61.1485 49.67 61.3685 49.494C61.5959 49.318 61.7462 49.0137 61.8195 48.581L62.4025 48.746ZM60.3015 44.797C59.8689 44.797 59.5462 44.962 59.3335 45.292C59.1209 45.622 59.0145 46.1647 59.0145 46.92H61.4895V46.887C61.5042 46.7917 61.5152 46.7 61.5225 46.612C61.5299 46.5167 61.5335 46.4323 61.5335 46.359C61.5335 45.809 61.4199 45.413 61.1925 45.171C60.9652 44.9217 60.6682 44.797 60.3015 44.797ZM68.1818 48.746C68.0498 49.2447 67.8005 49.5967 67.4338 49.802C67.0745 50.0073 66.6748 50.11 66.2348 50.11C65.4208 50.11 64.8122 49.8643 64.4088 49.373C64.0055 48.8743 63.8038 48.2107 63.8038 47.382V47.162C63.8038 46.3407 63.9982 45.6843 64.3868 45.193C64.7755 44.6943 65.3402 44.445 66.0808 44.445C66.4768 44.445 66.8362 44.5257 67.1588 44.687C67.4888 44.8483 67.7492 45.0867 67.9398 45.402C68.1378 45.7173 68.2368 46.1097 68.2368 46.579C68.2368 46.799 68.2148 47.03 68.1708 47.272H64.7938V47.602C64.7938 48.372 64.9112 48.9257 65.1458 49.263C65.3878 49.593 65.7765 49.758 66.3118 49.758C66.6492 49.758 66.9278 49.67 67.1478 49.494C67.3752 49.318 67.5255 49.0137 67.5988 48.581L68.1818 48.746ZM66.0808 44.797C65.6482 44.797 65.3255 44.962 65.1128 45.292C64.9002 45.622 64.7938 46.1647 64.7938 46.92H67.2688V46.887C67.2835 46.7917 67.2945 46.7 67.3018 46.612C67.3092 46.5167 67.3128 46.4323 67.3128 46.359C67.3128 45.809 67.1992 45.413 66.9718 45.171C66.7445 44.9217 66.4475 44.797 66.0808 44.797ZM71.5961 47.778L70.9251 47.613C70.0085 47.3783 69.5501 46.8503 69.5501 46.029C69.5501 45.7577 69.6125 45.501 69.7371 45.259C69.8618 45.017 70.0598 44.8227 70.3311 44.676C70.6098 44.522 70.9655 44.445 71.3981 44.445C71.8821 44.445 72.2708 44.5257 72.5641 44.687C72.8575 44.8483 73.0628 45.0573 73.1801 45.314C73.2975 45.5707 73.3341 45.8493 73.2901 46.15L72.4321 46.304C72.5201 45.8273 72.4688 45.457 72.2781 45.193C72.0948 44.929 71.7905 44.797 71.3651 44.797C71.0351 44.797 70.7711 44.8813 70.5731 45.05C70.3751 45.2113 70.2761 45.4497 70.2761 45.765C70.2761 45.9997 70.3495 46.2087 70.4961 46.392C70.6428 46.568 70.8885 46.7 71.2331 46.788L71.9261 46.953C72.4101 47.0703 72.7841 47.2573 73.0481 47.514C73.3195 47.7707 73.4551 48.108 73.4551 48.526C73.4551 48.9953 73.2828 49.3767 72.9381 49.67C72.6008 49.9633 72.1168 50.11 71.4861 50.11C71.1855 50.11 70.8921 50.066 70.6061 49.978C70.3275 49.8827 70.0818 49.736 69.8691 49.538C69.6638 49.3327 69.5135 49.0687 69.4181 48.746L70.0341 48.526C70.1148 48.988 70.2908 49.3107 70.5621 49.494C70.8335 49.6773 71.1451 49.769 71.4971 49.769C71.7025 49.769 71.8968 49.736 72.0801 49.67C72.2708 49.604 72.4248 49.5013 72.5421 49.362C72.6595 49.2153 72.7181 49.0283 72.7181 48.801C72.7181 48.5663 72.6375 48.3647 72.4761 48.196C72.3148 48.0273 72.0215 47.888 71.5961 47.778Z" fill="#71816D"/>
<path d="M59.0911 21.7183V25.5168H53.0816V31.5998H49.3312V25.5168H43.3217V21.7183H49.3312V15.6353H53.0816V21.7183H59.0911ZM42.9277 21.3903H47.8278C47.8479 21.0938 47.8479 21.0306 47.8559 20.7658C48.3946 20.1215 48.5956 19.4693 48.9654 18.7341V15.2756L50.2316 15.2282C50.3602 13.8053 50.1432 12.3665 49.5121 11.0108C48.0047 7.76569 45.9666 6.53644 42.7388 6.63525C41.7298 2.75381 37.7423 -0.159254 33.6703 0.00675474C29.5983 0.172764 25.876 3.40598 25.0841 7.64712C20.2403 9.47321 17.1612 14.991 18.2023 19.9911C19.2434 24.9911 24.2762 28.8765 29.6787 28.2955C31.174 28.8409 32.8543 28.671 34.2491 27.9674C34.3302 31.7245 34.0149 35.4798 33.3085 39.173C33.4411 39.3232 37.8267 39.1928 37.8267 39.1928C37.1524 34.7142 37.1985 30.1592 37.9634 25.6947C39.4908 27.5089 42.0635 28.4812 44.4231 27.9792C45.6853 27.7144 46.5013 27.0227 47.0078 25.8448H42.9277V21.3903Z" fill="#71816D"/>
</g>
<defs>
<filter id="filter0_d_262_378" x="0.427734" y="0" width="77.0273" height="60.453" filterUnits="userSpaceOnUse" color-interpolation-filters="sRGB">
<feFlood flood-opacity="0" result="BackgroundImageFix"/>
<feColorMatrix in="SourceAlpha" type="matrix" values="0 0 0 0 0 0 0 0 0 0 0 0 0 0 0 0 0 0 127 0" result="hardAlpha"/>
<feOffset dy="4"/>
<feGaussianBlur stdDeviation="2"/>
<feComposite in2="hardAlpha" operator="out"/>
<feColorMatrix type="matrix" values="0 0 0 0 0 0 0 0 0 0 0 0 0 0 0 0 0 0 0.25 0"/>
<feBlend mode="normal" in2="BackgroundImageFix" result="effect1_dropShadow_262_378"/>
<feBlend mode="normal" in="SourceGraphic" in2="effect1_dropShadow_262_378" result="shape"/>
</filter>
</defs>
</svg>
